<?xml version="1.0" standalone="no"?>
<!DOCTYPE svg PUBLIC "-//W3C//DTD SVG 1.1//EN" "http://www.w3.org/Graphics/SVG/1.1/DTD/svg11.dtd" >
<svg xmlns="http://www.w3.org/2000/svg" xmlns:xlink="http://www.w3.org/1999/xlink" version="1.1">
<metadata></metadata>
<defs>
<font id="cadmanregular" horiz-adv-x="1200" >
<font-face units-per-em="2048" ascent="1638" descent="-410" />
<missing-glyph horiz-adv-x="650" />
<glyph unicode="&#xfb01;" horiz-adv-x="1298" d="M971 1198q-64 0 -108.5 44.5t-44.5 108.5q0 63 44.5 107.5t108.5 44.5q63 0 107.5 -44.5t44.5 -107.5q0 -64 -44.5 -108.5t-107.5 -44.5zM257 -330v1229h-154v150h154v102q0 369 323 369q79 0 148 -19q-54 -60 -56 -142q-41 11 -88 11q-155 0 -155 -219v-102h654v-1049 h-172v899h-482v-1169z" />
<glyph unicode="&#xfb03;" horiz-adv-x="2017" d="M257 -350v1249h-154v150h154v92q0 369 323 369q113 0 203 -39l-47 -148q-67 37 -152 37q-155 0 -155 -219v-92h548v132q0 369 323 369q93 0 170 -26q-63 -54 -76 -136q-42 12 -90 12q-155 0 -155 -219v-132h653v-1049h-172v899h-481v-1149l-172 -60v1209h-548v-1189z M1690 1198q-64 0 -108.5 44.5t-44.5 108.5q0 63 44.5 107.5t108.5 44.5q63 0 107.5 -44.5t44.5 -107.5q0 -64 -44.5 -108.5t-107.5 -44.5z" />
<glyph horiz-adv-x="0" />
<glyph horiz-adv-x="682" />
<glyph unicode=" "  horiz-adv-x="650" />
<glyph unicode="&#x09;" horiz-adv-x="650" />
<glyph unicode="&#xa0;" horiz-adv-x="650" />
<glyph unicode="!" horiz-adv-x="573" d="M285 -21q-58 0 -98.5 40.5t-40.5 98.5q0 57 40.5 97.5t98.5 40.5q57 0 97.5 -40.5t40.5 -97.5q0 -58 -40.5 -98.5t-97.5 -40.5zM359 399h-145l-29 985h199z" />
<glyph unicode="&#x22;" horiz-adv-x="696" d="M560 834h-127l-41 550h209zM240 834h-127l-41 550h209z" />
<glyph unicode="#" horiz-adv-x="1479" d="M778 0h-130l148 502h-290l-148 -502h-130l148 502h-290v119h325l77 261h-402v119h437l147 499h130l-147 -499h290l147 499h130l-147 -499h303v-119h-338l-77 -261h415v-119h-450zM831 621l77 261h-290l-77 -261h290z" />
<glyph unicode="$" horiz-adv-x="1153" d="M623 -133h-129v209q-271 13 -408 237l139 82q92 -159 269 -178v426q-217 49 -299 124.5t-82 209.5q0 148 105 236.5t276 95.5v191h129v-191q89 -4 159.5 -31t123.5 -71t106 -128l-142 -82q-87 157 -247 170v-391q219 -52 308 -134.5t89 -219.5q0 -151 -103.5 -244 t-293.5 -102v-209zM494 807v360q-207 -15 -207 -184q0 -76 59.5 -115t147.5 -61zM623 217q103 10 164 60.5t61 134.5q0 77 -53.5 123.5t-171.5 78.5v-397z" />
<glyph unicode="%" horiz-adv-x="1364" d="M328 778q-122 0 -184 72t-62 211q0 141 62.5 213.5t183.5 72.5t182.5 -73.5t61.5 -212.5q0 -137 -61.5 -210t-182.5 -73zM328 869q62 0 92.5 44.5t30.5 147.5q0 107 -31 150.5t-92 43.5q-64 0 -94.5 -44t-30.5 -150q0 -102 29.5 -147t95.5 -45zM345 -100h-123l781 1600 h123zM1028 -22q-122 0 -184 72t-62 211q0 141 62.5 213.5t183.5 72.5t182.5 -73.5t61.5 -212.5q0 -137 -61.5 -210t-182.5 -73zM1028 69q62 0 92.5 44.5t30.5 147.5q0 107 -31 150.5t-92 43.5q-64 0 -94.5 -44t-30.5 -150q0 -102 29.5 -147t95.5 -45z" />
<glyph unicode="&#x26;" horiz-adv-x="1361" d="M581 -29q-228 0 -358 106t-130 283q0 89 28 154.5t88.5 123t205.5 142.5q-68 78 -115 158t-47 160q0 315 371 315q163 0 252.5 -75.5t89.5 -192.5q0 -111 -72 -205.5t-229 -189.5l331 -392q92 108 131 271l156 -39q-63 -231 -180 -359l196 -231h-223l-94 111 q-102 -79 -197 -109.5t-204 -30.5zM564 868q106 59 166 130.5t60 144.5q0 59 -43 98t-129 39q-94 0 -141.5 -45t-47.5 -129q0 -53 41 -113.5t94 -124.5zM585 121q116 0 188 37t111 69l-367 435q-104 -68 -151.5 -111.5t-66.5 -85.5t-19 -109q0 -105 84.5 -170t220.5 -65z " />
<glyph unicode="'" horiz-adv-x="375" d="M246 834h-127l-41 550h209z" />
<glyph unicode="(" horiz-adv-x="695" d="M728 -395h-195q-190 218 -278 448.5t-88 507.5q0 283 88 510.5t278 448.5h195q-195 -188 -297.5 -433t-102.5 -526q0 -284 104 -526.5t296 -429.5z" />
<glyph unicode=")" horiz-adv-x="714" d="M158 -395h-194q196 193 297.5 434.5t101.5 521.5q0 256 -93 504t-306 455h194q189 -218 278 -446t89 -513q0 -275 -85.5 -501t-281.5 -455z" />
<glyph unicode="*" horiz-adv-x="870" d="M485 795h-112l2 268l-270 -160l-58 98l285 156l-285 156l58 96l270 -158l-2 269h112l-4 -269l273 158l57 -98l-285 -154l285 -156l-57 -96l-271 158z" />
<glyph unicode="+" horiz-adv-x="905" d="M525 257h-172v370h-330v148h330v370h172v-370h330v-148h-330v-370z" />
<glyph unicode="," horiz-adv-x="389" d="M158 -309l-77 67q118 92 136 211q-15 -3 -30 -3q-64 0 -108.5 44.5t-44.5 108.5q0 63 44.5 107.5t108.5 44.5q65 0 108.5 -48.5t43.5 -166.5q0 -226 -181 -365z" />
<glyph unicode="-" horiz-adv-x="678" d="M625 440h-623v172h623v-172z" />
<glyph unicode="." horiz-adv-x="367" d="M174 -34q-64 0 -108.5 44.5t-44.5 108.5q0 63 44.5 107.5t108.5 44.5q63 0 107.5 -44.5t44.5 -107.5q0 -64 -44.5 -108.5t-107.5 -44.5z" />
<glyph unicode="/" horiz-adv-x="803" d="M126 -299h-166l715 1819h168z" />
<glyph unicode="0" d="M599 -31q-506 0 -506 719t506 719q508 0 508 -717q0 -721 -508 -721zM600 129q313 0 313 561q0 557 -313 557q-312 0 -312 -559t312 -559zM600 585q-43 0 -73 30t-30 73t30 73t73 30t73 -30t30 -73t-30 -73t-73 -30z" />
<glyph unicode="1" d="M858 0h-183v1069q-123 -95 -333 -102v154q297 14 384 263h132v-1384z" />
<glyph unicode="2" d="M1066 0h-928v195q245 208 355 312.5t182 186t111.5 159t39.5 169.5q0 103 -68 165t-181 62q-107 0 -174.5 -47t-114.5 -123l-154 99q72 124 185 179.5t266 55.5q201 0 318.5 -99.5t117.5 -281.5q0 -92 -26 -172.5t-81.5 -153.5t-149 -167t-417.5 -371h719v-168z" />
<glyph unicode="3" d="M583 -31q-194 0 -313 106.5t-138 288.5l189 16q19 -125 85.5 -189t176.5 -64q133 0 211.5 78t78.5 236q0 149 -94.5 225t-248.5 76h-93v136l326 345h-626v160h868v-159l-317 -336q159 -20 269.5 -132.5t110.5 -298.5q0 -233 -131.5 -360.5t-353.5 -127.5z" />
<glyph unicode="4" d="M904 0h-178v307h-622v178l610 899h190v-917h191v-160h-191v-307zM726 467v653l-440 -653h440z" />
<glyph unicode="5" d="M567 -29q-160 0 -265.5 59.5t-156.5 143.5l153 100q90 -141 265 -141q155 0 228 83t73 226q0 125 -75 198t-224 73t-260 -82h-90l77 753h725v-167h-573l-43 -396q43 23 102.5 35t116.5 12q213 0 324.5 -108t111.5 -318q0 -217 -120.5 -344t-368.5 -127z" />
<glyph unicode="6" d="M606 -29q-251 0 -367 176.5t-116 518.5q0 356 149 551.5t374 195.5q218 0 342 -113l-115 -143q-90 96 -227 96q-274 0 -322 -473q57 41 144 74t189 33q191 0 305.5 -107.5t114.5 -330.5q0 -232 -125 -355t-346 -123zM614 131q138 0 207.5 80t69.5 231q0 283 -281 283 q-78 0 -156.5 -27.5t-131.5 -60.5q0 -266 71.5 -386t220.5 -120z" />
<glyph unicode="7" d="M526 0h-205l547 1217h-681v167h867v-172z" />
<glyph unicode="8" d="M601 -29q-465 0 -465 385q0 267 299 379q-267 120 -267 324q0 354 433 354q431 0 431 -352q0 -212 -269 -326q301 -125 301 -379q0 -385 -463 -385zM601 811q246 106 246 246q0 209 -246 209q-248 0 -248 -203q0 -134 248 -252zM601 121q279 0 279 235q0 192 -279 303 q-281 -109 -281 -305q0 -233 281 -233z" />
<glyph unicode="9" d="M573 0h-222q398 388 479 633q-109 -109 -283 -109q-190 0 -295 114t-105 315q0 186 123 320.5t325 134.5q218 0 338.5 -128.5t120.5 -388.5q0 -447 -481 -891zM584 666q130 0 207 75t77 207q0 155 -76 232.5t-198 77.5q-118 0 -189 -80t-71 -221q0 -144 64.5 -217.5 t185.5 -73.5z" />
<glyph unicode=":" horiz-adv-x="527" d="M259 643q-64 0 -108.5 44.5t-44.5 108.5q0 63 44.5 107.5t108.5 44.5q63 0 107.5 -44.5t44.5 -107.5q0 -64 -44.5 -108.5t-107.5 -44.5zM259 -31q-64 0 -108.5 44.5t-44.5 108.5q0 63 44.5 107.5t108.5 44.5q63 0 107.5 -44.5t44.5 -107.5q0 -64 -44.5 -108.5 t-107.5 -44.5z" />
<glyph unicode=";" horiz-adv-x="552" d="M268 644q-64 0 -108.5 44.5t-44.5 108.5q0 63 44.5 107.5t108.5 44.5q63 0 107.5 -44.5t44.5 -107.5q0 -64 -44.5 -108.5t-107.5 -44.5zM238 -308l-77 67q118 92 136 211q-15 -3 -30 -3q-64 0 -108.5 44.5t-44.5 108.5q0 63 44.5 107.5t108.5 44.5q65 0 108.5 -48.5 t43.5 -166.5q0 -226 -181 -365z" />
<glyph unicode="&#x3c;" horiz-adv-x="1001" d="M877 200l-825 393v174l825 386v-163l-674 -310l674 -317v-163z" />
<glyph unicode="=" horiz-adv-x="1019" d="M916 782h-837v143h837v-143zM916 492h-837v145h837v-145z" />
<glyph unicode="&#x3e;" horiz-adv-x="995" d="M114 200v163l674 317l-674 310v163l825 -386v-174z" />
<glyph unicode="?" horiz-adv-x="940" d="M367 -21q-58 0 -98.5 40.5t-40.5 98.5q0 57 40.5 97.5t98.5 40.5q57 0 97.5 -40.5t40.5 -97.5q0 -58 -40.5 -98.5t-97.5 -40.5zM451 379h-174q0 284 194.5 391.5t194.5 259.5q0 103 -66.5 161t-191.5 58q-184 0 -268 -141l-151 98q115 207 417 207q208 0 331.5 -94.5 t123.5 -267.5q0 -206 -205 -339.5t-205 -332.5z" />
<glyph unicode="@" horiz-adv-x="1908" d="M917 -156q-372 0 -577.5 204.5t-205.5 571.5q0 266 109.5 474.5t312.5 322.5t466 114q220 0 391.5 -92.5t265.5 -263.5t94 -393q0 -146 -45 -267t-127 -187.5t-189 -66.5q-88 0 -148.5 53.5t-71.5 136.5h-8q-41 -89 -117.5 -139.5t-181.5 -50.5q-153 0 -240 105t-87 286 q0 209 121 339.5t318 130.5q70 0 158 -12.5t159 -35.5q-26 -482 -26 -504q0 -183 136 -183q94 0 152.5 110.5t58.5 286.5q0 185 -76 324.5t-216 215t-321 75.5q-229 0 -398 -95t-258.5 -270.5t-89.5 -406.5q0 -313 165.5 -481t475.5 -168q215 0 447 88v-136 q-197 -86 -447 -86zM913 387q212 0 231 321l14 268q-74 20 -161 20q-133 0 -208.5 -92t-75.5 -256q0 -261 200 -261z" />
<glyph unicode="A" horiz-adv-x="1262" d="M1220 0h-192l-120 360h-564l-118 -360h-192l473 1384h240zM850 528l-223 674l-227 -674h450z" />
<glyph unicode="B" horiz-adv-x="1341" d="M684 0h-451v1384h410q254 0 366.5 -72.5t112.5 -242.5q0 -248 -215 -313q301 -42 301 -350q0 -213 -136 -309.5t-388 -96.5zM622 809q166 0 238 53t72 166q0 106 -66 149.5t-235 43.5h-213v-412h204zM606 168q176 0 255 23.5t117 77t38 145.5q0 86 -33.5 135.5 t-103.5 72.5t-226 23h-235v-477h188z" />
<glyph unicode="C" horiz-adv-x="1310" d="M737 -29q-311 0 -458.5 179.5t-147.5 541.5q0 361 146.5 541t451.5 180q331 0 496 -260l-152 -100q-120 196 -344 196q-208 0 -305.5 -138.5t-97.5 -418.5q0 -276 96 -416.5t309 -140.5q258 0 361 207l153 -100q-155 -271 -508 -271z" />
<glyph unicode="D" horiz-adv-x="1337" d="M585 0h-352v1384h348q242 0 382 -69.5t207 -220.5t67 -402q0 -254 -65.5 -404t-202 -219t-384.5 -69zM571 168q182 0 281.5 50.5t144.5 162t45 313.5q0 198 -44 310t-145 162.5t-282 50.5h-154v-1049h154z" />
<glyph unicode="E" horiz-adv-x="1172" d="M1079 0h-846v1384h846l-28 -167h-633v-404h565v-168h-565v-477h636z" />
<glyph unicode="F" horiz-adv-x="1101" d="M418 0h-185v1384h838l-28 -167h-625v-414h555v-168h-555v-635z" />
<glyph unicode="G" horiz-adv-x="1408" d="M735 -29q-312 0 -462 179t-150 540q0 366 150.5 544.5t449.5 178.5q330 0 496 -260l-150 -102q-111 198 -348 198q-209 0 -306 -138t-97 -423q0 -291 105 -422t312 -131q160 0 297 72v328h-336v167h521v-596q-236 -135 -482 -135z" />
<glyph unicode="H" horiz-adv-x="1391" d="M1233 0h-185v633h-630v-633h-185v1384h185v-583h630v583h185v-1384z" />
<glyph unicode="I" horiz-adv-x="821" d="M689 0h-566v160h191v1067h-191v157h566v-157h-191v-1067h191v-160z" />
<glyph unicode="J" horiz-adv-x="893" d="M261 -31q-59 0 -133 14.5t-127 36.5l68 158q32 -16 92 -30.5t98 -14.5q81 0 125 28t63 92.5t19 199.5v763h-307v168h491v-1007q0 -203 -89 -305.5t-300 -102.5z" />
<glyph unicode="K" horiz-adv-x="1280" d="M422 747l583 637h233l-622 -661l650 -723h-238l-606 677v-677h-189v1384h189v-637z" />
<glyph unicode="L" horiz-adv-x="1088" d="M1044 0h-811v1384h185v-1216h626v-168z" />
<glyph unicode="M" horiz-adv-x="1620" d="M1462 0h-176v1147l-381 -770h-115l-381 770v-1147h-176v1384h250l365 -753l372 753h242v-1384z" />
<glyph unicode="N" horiz-adv-x="1412" d="M1255 0h-219l-625 1188v-1188h-178v1384h271l573 -1087v1087h178v-1384z" />
<glyph unicode="O" horiz-adv-x="1419" d="M726 -29q-296 0 -444.5 167t-148.5 554q0 384 147 552.5t446 168.5q295 0 444 -165t149 -556q0 -393 -150.5 -557t-442.5 -164zM726 135q203 0 301 123t98 434q0 307 -96.5 432t-302.5 125t-302.5 -125t-96.5 -432q0 -309 97.5 -433t301.5 -124z" />
<glyph unicode="P" horiz-adv-x="1255" d="M418 0h-185v1384h410q259 0 375 -107t116 -335q0 -250 -117.5 -361.5t-381.5 -111.5h-217v-469zM596 637q146 0 213.5 28.5t99 92t31.5 180.5q0 145 -72 212t-246 67h-204v-580h178z" />
<glyph unicode="Q" horiz-adv-x="1419" d="M726 135q46 0 86 7l-216 320h220l162 -241q147 140 147 471q0 307 -96.5 432t-302.5 125t-302.5 -125t-96.5 -432q0 -309 97.5 -433t301.5 -124zM1289 -239h-220l-156 231q-84 -21 -187 -21q-296 0 -444.5 167t-148.5 554q0 384 147 552.5t446 168.5q295 0 444 -165 t149 -556q0 -453 -238 -622z" />
<glyph unicode="R" horiz-adv-x="1310" d="M1229 0h-217l-353 565h-241v-565h-185v1384h430q258 0 370 -95t112 -294q0 -170 -68.5 -269t-222.5 -132zM649 729q116 0 182.5 24.5t94.5 78t28 149.5q0 137 -69.5 188.5t-223.5 51.5h-243v-492h231z" />
<glyph unicode="S" horiz-adv-x="1239" d="M611 -29q-185 0 -310 66t-204 205l150 100q117 -207 364 -207q145 0 229.5 61.5t84.5 168.5q0 196 -318 258q-481 93 -481 391q0 184 118.5 291.5t354.5 107.5q188 0 300 -69.5t177 -178.5l-147 -104q-54 90 -131.5 139t-198.5 49q-135 0 -210 -59.5t-75 -159.5 q0 -175 334 -234q465 -82 465 -417q0 -194 -127.5 -301t-374.5 -107z" />
<glyph unicode="T" horiz-adv-x="1132" d="M720 0h-184v1217h-459v167h1102v-167h-459v-1217z" />
<glyph unicode="U" horiz-adv-x="1346" d="M715 -31q-261 0 -391 133t-130 456v826h185v-806q0 -268 84 -356.5t252 -88.5q167 0 251 88.5t84 356.5v806h185v-826q0 -327 -130 -458t-390 -131z" />
<glyph unicode="V" horiz-adv-x="1210" d="M743 -10h-248l-439 1394h192l371 -1206l370 1206h192z" />
<glyph unicode="W" horiz-adv-x="1773" d="M1377 -10h-221l-257 1118l-266 -1118h-217l-330 1394h187l252 -1118l268 1118h209l265 -1118l263 1118h181z" />
<glyph unicode="X" horiz-adv-x="1221" d="M1161 0h-217l-329 527l-344 -527h-212l448 695l-435 689h217l326 -521l339 521h212l-444 -689z" />
<glyph unicode="Y" horiz-adv-x="1069" d="M652 0h-187v516l-438 868h209l323 -673l334 673h199l-440 -858v-526z" />
<glyph unicode="Z" horiz-adv-x="1179" d="M1081 0h-965v176l729 1041h-698v167h917v-165l-737 -1051h754v-168z" />
<glyph unicode="[" horiz-adv-x="805" d="M682 -395h-487v1884h487v-133h-330v-1618h330v-133z" />
<glyph unicode="\" horiz-adv-x="991" d="M983 -299h-166l-717 1819h168z" />
<glyph unicode="]" horiz-adv-x="805" d="M610 -395h-487v133h330v1618h-330v133h487v-1884z" />
<glyph unicode="^" horiz-adv-x="1243" d="M1100 594h-152l-325 637l-328 -637h-152l404 790h149z" />
<glyph unicode="_" horiz-adv-x="1024" d="M1034 -256h-1044v102h1044v-102z" />
<glyph unicode="`" horiz-adv-x="641" d="M486 1208h-110q-65 57 -154 163t-129 175v23h203q32 -76 89 -175.5t101 -157.5v-28z" />
<glyph unicode="a" horiz-adv-x="1232" d="M485 149q161 0 260.5 234t99.5 373v131q-83 19 -175 19q-182 0 -271 -137t-89 -347q0 -273 175 -273zM465 -26q-340 0 -340 468q0 262 155 445t405 183q174 0 345 -46v-479q0 -351 65 -545h-175q-11 25 -19 68q-16 80 -23 189q-3 49 -3 145q-127 -428 -410 -428z" />
<glyph unicode="b" horiz-adv-x="1282" d="M657 -26q-168 0 -430 93v1533h185v-751q164 221 385 221q151 0 248 -144.5t97 -369.5q0 -264 -131.5 -423t-353.5 -159zM657 134q133 0 219 106.5t86 279.5t-59 271.5t-166 98.5q-94 0 -185 -81.5t-140 -206.5v-412q153 -56 245 -56z" />
<glyph unicode="c" horiz-adv-x="1063" d="M601 -26q-211 0 -348 148.5t-137 381.5q0 236 140.5 401t379.5 165q177 0 300 -87l-35 -186q-112 103 -280 103q-137 0 -224 -101q-91 -106 -91 -284q0 -167 85.5 -269t229.5 -102q168 0 305 124l20 -181q-144 -113 -345 -113z" />
<glyph unicode="d" horiz-adv-x="1292" d="M554 139q167 0 305 273v406q-134 77 -265 77q-118 0 -201 -104q-89 -110 -89 -287q0 -180 59.5 -272.5t190.5 -92.5zM519 -26q-182 0 -291 136t-109 363q0 257 132 427t343 170q111 0 265 -87v617h185v-1055q0 -342 75 -545h-180q-37 65 -55 190q-148 -216 -365 -216z " />
<glyph unicode="e" horiz-adv-x="1157" d="M607 -26q-216 0 -353 144.5t-137 390.5q0 255 129 408t361 153q405 0 405 -511q0 -46 -1 -60h-709q6 -177 93 -271q86 -94 227 -94q201 0 355 113l20 -170q-174 -103 -390 -103zM832 643q0 273 -250 273q-229 0 -272 -273h522z" />
<glyph unicode="f" horiz-adv-x="761" d="M254 -330v1229h-152v150h152v102q0 374 335 374q113 0 203 -44l-47 -148q-67 37 -152 37q-154 0 -154 -219v-102h232v-150h-232v-1169z" />
<glyph unicode="g" horiz-adv-x="1249" d="M507 170q168 0 325 236v448q-118 41 -210 41q-153 0 -234 -125q-71 -108 -71 -271q0 -179 55 -260q47 -69 135 -69zM572 -484q-186 0 -365 124l65 159q160 -118 290 -118q270 0 270 309v211q-161 -206 -345 -206q-152 0 -246 103q-109 119 -109 350q0 258 131.5 440 t388.5 182q145 0 365 -77v-967q0 -510 -445 -510z" />
<glyph unicode="h" horiz-adv-x="1322" d="M1116 0h-185v586q0 304 -190 304q-213 0 -335 -293v-597h-185v1600h185v-746q164 216 380 216q330 0 330 -427v-643z" />
<glyph unicode="i" horiz-adv-x="655" d="M325 1198q-64 0 -108.5 44.5t-44.5 108.5q0 63 44.5 107.5t108.5 44.5q63 0 107.5 -44.5t44.5 -107.5q0 -64 -44.5 -108.5t-107.5 -44.5zM449 0h-185v899h-100v151h285v-1050z" />
<glyph unicode="j" horiz-adv-x="622" d="M315 1198q-64 0 -108.5 44.5t-44.5 108.5q0 63 44.5 107.5t108.5 44.5q63 0 107.5 -44.5t44.5 -107.5q0 -64 -44.5 -108.5t-107.5 -44.5zM115 -495q-100 0 -188 30l43 150q73 -29 151 -29q84 0 109.5 58.5t25.5 168.5v1016h-110v151h294v-1195q0 -190 -75 -270t-250 -80z " />
<glyph unicode="k" horiz-adv-x="1119" d="M1091 0h-245l-440 535v-535h-185v1600h185v-982l405 432h250l-495 -460z" />
<glyph unicode="l" horiz-adv-x="685" d="M474 -29q-255 0 -255 251v1378h185v-1324q0 -132 101 -132q38 0 80 8l24 -165q-77 -16 -135 -16z" />
<glyph unicode="m" horiz-adv-x="1700" d="M1545 0h-185v637q0 253 -135 253q-172 0 -265 -211v-679h-185v637q0 253 -135 253q-164 0 -265 -211v-679h-185v633q0 249 -50 417h180q18 -53 32 -160q135 180 328 180q192 0 256 -173q143 173 339 173q270 0 270 -361v-709z" />
<glyph unicode="n" horiz-adv-x="1240" d="M1085 0h-185v596q0 294 -200 294q-193 0 -325 -293v-597h-185v633q0 259 -50 417h180q26 -65 40 -201q169 221 395 221q330 0 330 -427v-643z" />
<glyph unicode="o" horiz-adv-x="1180" d="M597 -31q-225 0 -344 138.5t-119 414.5q0 281 119.5 419t343.5 138q226 0 343 -140.5t117 -416.5q0 -273 -117.5 -413t-342.5 -140zM597 124q143 0 209 95.5t66 302.5q0 214 -67 308t-208 94q-145 0 -211.5 -94.5t-66.5 -307.5q0 -205 64 -301.5t214 -96.5z" />
<glyph unicode="p" horiz-adv-x="1275" d="M677 144q111 0 190.5 104t79.5 272q0 173 -62 274t-168 101q-189 0 -320 -303v-324q151 -124 280 -124zM397 -504h-185v1003q0 218 -8 328q-10 142 -42 223h180q27 -67 40 -196q163 216 370 216q175 0 277.5 -153t102.5 -366q0 -252 -130.5 -414.5t-324.5 -162.5 q-143 0 -280 113v-591z" />
<glyph unicode="q" horiz-adv-x="1171" d="M529 149q149 0 275 227v478q-106 41 -200 41q-153 0 -234 -125q-71 -108 -71 -271q0 -178 68 -264t162 -86zM989 -188q123 94 282 101v-154q-247 -14 -334 -263h-133v648q-130 -170 -290 -170q-169 0 -284.5 130.5t-115.5 343.5q0 268 136.5 445t383.5 177q164 0 355 -77 v-1181z" />
<glyph unicode="r" horiz-adv-x="1001" d="M375 0h-185v633q0 259 -50 417h180q26 -65 40 -201q142 221 325 221q230 0 230 -345l-160 -36q0 196 -115 196q-154 0 -265 -288v-597z" />
<glyph unicode="s" horiz-adv-x="1022" d="M496 -31q-134 0 -238 49.5t-152 139.5l138 93q79 -127 252 -127q209 0 209 152q0 134 -287 199.5t-287 296.5q0 139 100 223t275 84q139 0 232 -54t136 -130l-137 -94q-82 123 -231 123q-187 0 -187 -141q0 -121 287 -183.5t287 -316.5q0 -147 -104 -230.5t-293 -83.5z " />
<glyph unicode="t" horiz-adv-x="839" d="M585 -31q-300 0 -300 308v622h-149v150h149v255l185 80v-335h254v-150h-254v-579q0 -201 127 -201q76 0 141 28l45 -147q-100 -31 -198 -31z" />
<glyph unicode="u" horiz-adv-x="1215" d="M597 -28q-208 0 -312 111.5t-104 294.5v671h185v-641q0 -285 231 -285q230 0 230 281v645h185v-671q0 -187 -104 -296.5t-311 -109.5z" />
<glyph unicode="v" horiz-adv-x="1128" d="M655 -10h-190l-420 1060h210l305 -834l305 834h210z" />
<glyph unicode="w" horiz-adv-x="1614" d="M1238 -10h-190l-250 818l-250 -818h-190l-290 1060h185l210 -829l260 829h150l260 -829l210 829h185z" />
<glyph unicode="x" horiz-adv-x="1105" d="M1042 0h-220l-269 387l-261 -387h-225l378 543l-368 507h230l260 -372l245 372h225l-363 -525z" />
<glyph unicode="y" horiz-adv-x="1124" d="M255 -484q-141 0 -255 88l60 164q101 -77 185 -77q147 0 244 282l-439 1077h200l323 -841l287 841h200l-385 -1050q-177 -484 -420 -484z" />
<glyph unicode="z" horiz-adv-x="1033" d="M940 0h-840v113l575 782h-545v155h795v-98l-595 -798h610v-154z" />
<glyph unicode="{" horiz-adv-x="977" d="M874 -395h-69q-180 0 -286.5 98t-106.5 283v147q0 178 -74.5 267t-216.5 89h-19v148h19q291 0 291 356v146q0 188 107.5 284.5t285.5 96.5h69v-134h-51q-131 0 -192.5 -65.5t-61.5 -198.5v-172q0 -157 -73.5 -249.5t-206.5 -139.5q280 -95 280 -387v-172 q0 -133 61.5 -198.5t192.5 -65.5h51v-133z" />
<glyph unicode="|" horiz-adv-x="852" d="M504 -395h-156v1915h156v-1915z" />
<glyph unicode="}" horiz-adv-x="977" d="M172 -395h-70v133h52q131 0 192.5 65.5t61.5 198.5v172q0 292 280 387q-133 47 -206.5 139.5t-73.5 249.5v172q0 133 -61.5 198.5t-192.5 65.5h-52v134h70q193 0 293 -98.5t100 -282.5v-146q0 -356 291 -356h18v-148h-18q-142 0 -216.5 -89t-74.5 -267v-147 q0 -185 -105.5 -283t-287.5 -98z" />
<glyph unicode="~" horiz-adv-x="1427" d="M971 600q-62 0 -130.5 24.5t-136 54.5t-130 54.5t-109.5 24.5q-66 0 -144 -37.5t-157 -106.5v160q159 127 305 127q61 0 125.5 -24.5t129 -54t126 -54.5t117.5 -25q47 0 91.5 16t84.5 38.5t121 89.5v-160l-45 -32q-132 -95 -248 -95z" />
<glyph unicode="&#xa1;" horiz-adv-x="573" d="M286 1269q58 0 98.5 -40.5t40.5 -98.5q0 -57 -40.5 -97.5t-98.5 -40.5q-57 0 -97.5 40.5t-40.5 97.5q0 58 40.5 98.5t97.5 40.5zM212 849h145l29 -985h-199z" />
<glyph unicode="&#xa2;" horiz-adv-x="1030" d="M346 -260l55 256q-153 51 -218.5 190.5t-65.5 335.5q0 274 116 415.5t342 141.5q32 0 64 -4l47 213h119l-53 -237q125 -43 192 -164l-141 -86q-41 61 -86 90l-168 -772h31q84 0 137 31.5t100 97.5l141 -86q-49 -84 -136 -138.5t-240 -54.5q-34 0 -66 4l-51 -233h-119z M295 518q0 -129 29.5 -225t111.5 -141l170 776l-16 2h-17q-151 0 -214.5 -109.5t-63.5 -302.5z" />
<glyph unicode="&#xa3;" horiz-adv-x="1145" d="M100 0v156q69 14 124.5 119t55.5 303h-156v151h150q-9 53 -31.5 125.5t-22.5 159.5q0 399 439 399q286 0 383 -209l-134 -100q-62 148 -269 148q-228 0 -228 -216q0 -86 24.5 -176t26.5 -131h381v-151h-373q0 -295 -161 -422h737v-156h-946z" />
<glyph unicode="&#xa4;" horiz-adv-x="1294" d="M644 494q121 0 206.5 85.5t85.5 205.5t-86 206t-206 86t-205.5 -85.5t-85.5 -206.5t85 -206t206 -85zM1100 240l-203 203q-113 -83 -253 -83q-139 0 -252 82l-200 -202l-92 92l201 203q-82 112 -82 250t81 249l-200 204l92 92l200 -202q113 82 252 82q140 0 253 -83 l203 203l94 -92l-205 -205q80 -111 80 -248q0 -138 -81 -249l206 -204z" />
<glyph unicode="&#xa5;" horiz-adv-x="1069" d="M643 0h-187v516l-438 868h209l323 -673l334 673h199l-440 -858v-526zM966 531h-831v150h831v-150zM966 245h-831v150h831v-150z" />
<glyph unicode="&#xa6;" horiz-adv-x="368" d="M250 800h-150v800h150v-800zM250 -300h-150v800h150v-800z" />
<glyph unicode="&#xa7;" horiz-adv-x="1026" d="M471 -104q-202 0 -326 81l60 139q119 -71 270 -71q235 0 235 141q0 123 -290.5 223.5t-290.5 297.5q0 170 150 264q-136 83 -136 245q0 139 104.5 212t279.5 73q171 0 336 -76l-68 -152q-116 76 -277 76q-194 0 -194 -139q0 -124 290.5 -216.5t290.5 -301.5 q0 -167 -139 -266q129 -80 129 -223q0 -142 -113 -224.5t-311 -82.5zM610 498q109 75 109 178q0 145 -283 221q-123 -57 -123 -170q0 -135 297 -229z" />
<glyph unicode="&#xa8;" horiz-adv-x="749" d="M574 1210q-64 0 -108.5 44.5t-44.5 108.5q0 63 44.5 107.5t108.5 44.5q63 0 107.5 -44.5t44.5 -107.5q0 -64 -44.5 -108.5t-107.5 -44.5zM176 1210q-64 0 -108.5 44.5t-44.5 108.5q0 63 44.5 107.5t108.5 44.5q63 0 107.5 -44.5t44.5 -107.5q0 -64 -44.5 -108.5 t-107.5 -44.5z" />
<glyph unicode="&#xa9;" horiz-adv-x="1865" d="M917 -197q-220 0 -405.5 107.5t-292.5 294t-107 405.5q0 221 106 405.5t293.5 291t405.5 106.5q221 0 405.5 -106t291 -293.5t106.5 -403.5q0 -221 -106.5 -408t-292 -293t-404.5 -106zM917 -68q179 0 335.5 90.5t246 247.5t89.5 340t-90.5 340t-246 246.5t-334.5 89.5 q-181 0 -336.5 -90.5t-245.5 -247.5t-90 -338q0 -183 89 -339t245 -247.5t338 -91.5zM941 170q-204 0 -299.5 109.5t-95.5 332.5q0 224 94 334.5t297 110.5q224 0 318 -176l-119 -74q-29 51 -73 89t-128 38q-135 0 -189.5 -81t-54.5 -241q0 -163 58.5 -241t187.5 -78 q136 0 211 133l119 -72q-57 -96 -136 -140t-190 -44z" />
<glyph unicode="&#xaa;" horiz-adv-x="749" d="M250 982q84 0 122.5 113.5t38.5 182.5v61q-25 7 -73 7q-81 0 -122 -71q-34 -59 -34 -164q0 -129 68 -129zM235 880q-174 0 -174 231q0 135 66 226q77 105 218 105q90 0 187 -26v-243q0 -176 34 -280h-114q-19 39 -26 114q-38 -127 -191 -127zM623 687h-550v135h550v-135z " />
<glyph unicode="&#xab;" horiz-adv-x="927" d="M1002 53h-197l-393 471l393 471h197l-394 -471zM652 53h-197l-393 471l393 471h197l-394 -471z" />
<glyph unicode="&#xac;" horiz-adv-x="1011" d="M911 300h-127v285h-684v115h811v-400z" />
<glyph unicode="&#xad;" horiz-adv-x="678" d="M618 440h-623v172h623v-172z" />
<glyph unicode="&#xae;" horiz-adv-x="1855" d="M928 -197q-220 0 -405.5 107.5t-292.5 294t-107 405.5q0 221 106 405.5t293.5 291t405.5 106.5q221 0 405.5 -106t291 -293.5t106.5 -403.5q0 -221 -106.5 -408t-292 -293t-404.5 -106zM928 -68q179 0 335.5 90.5t246 247.5t89.5 340t-90.5 340t-246 246.5t-334.5 89.5 q-181 0 -336.5 -90.5t-245.5 -247.5t-90 -338q0 -183 89 -339t245 -247.5t338 -91.5zM1294 201h-164l-217 336h-131v-336h-139v850h275q151 0 232 -52.5t81 -193.5q0 -111 -46 -168t-124 -80zM911 657q103 0 138.5 32t35.5 110q0 73 -36.5 103t-130.5 30h-136v-275h129z" />
<glyph unicode="&#xaf;" horiz-adv-x="750" d="M650 1287h-550v135h550v-135z" />
<glyph unicode="&#xb0;" horiz-adv-x="678" d="M314 972q-109 0 -186.5 77.5t-77.5 186.5t77.5 186.5t186.5 77.5t186.5 -77.5t77.5 -186.5t-77.5 -186.5t-186.5 -77.5zM314 1078q65 0 111.5 46.5t46.5 111.5t-46.5 111.5t-111.5 46.5t-111.5 -46.5t-46.5 -111.5t46.5 -111.5t111.5 -46.5z" />
<glyph unicode="&#xb1;" horiz-adv-x="905" d="M856 39h-831v150h831v-150zM527 267h-172v370h-330v148h330v370h172v-370h330v-148h-330v-370z" />
<glyph unicode="&#xb2;" horiz-adv-x="606" d="M541 793h-492v106q125 105 179.5 157t90 92.5t55 78.5t19.5 84q0 50 -30.5 78.5t-79.5 28.5q-48 0 -78.5 -21.5t-61.5 -71.5l-87 63q63 126 231 126q107 0 169.5 -53t62.5 -145q0 -46 -13.5 -86.5t-41.5 -78t-75 -84.5t-198 -176h350v-98z" />
<glyph unicode="&#xb3;" horiz-adv-x="591" d="M275 778q-104 0 -167 56t-73 154l112 10q19 -127 128 -127q59 0 95 35.5t36 114.5q0 73 -43.5 108t-113.5 35h-61v76l156 165h-286v94h442v-88l-153 -162q69 -9 127 -68t58 -152q0 -118 -69 -184.5t-188 -66.5z" />
<glyph unicode="&#xb4;" horiz-adv-x="542" d="M184 1169h-111v28q48 68 103.5 164.5t87.5 168.5h202v-23q-44 -72 -131 -176.5t-151 -161.5z" />
<glyph unicode="&#xb5;" horiz-adv-x="1169" d="M313 -395h-174v1444h174v-793q93 -117 256 -117q153 0 273 144v766h176v-804q0 -95 110 -95v-150h-115q-126 0 -161 119q-107 -150 -281 -150q-165 0 -258 82v-446z" />
<glyph unicode="&#xb6;" horiz-adv-x="1312" d="M1084 -200h-155v1550h-123v-1550h-157v879q-73 -43 -165 -43q-160 0 -272 117.5t-112 314.5q0 164 130.5 298t340.5 134h651v-150h-138v-1550z" />
<glyph unicode="&#xb7;" horiz-adv-x="477" d="M265 532q-64 0 -108.5 44.5t-44.5 108.5q0 63 44.5 107.5t108.5 44.5q63 0 107.5 -44.5t44.5 -107.5q0 -64 -44.5 -108.5t-107.5 -44.5z" />
<glyph unicode="&#xb8;" horiz-adv-x="593" d="M273 -435q-117 0 -209 47l51 100q81 -36 162 -36q121 0 121 81q0 80 -186 103l72 138h116l-38 -76q167 -38 167 -167q0 -190 -256 -190z" />
<glyph unicode="&#xb9;" horiz-adv-x="510" d="M418 793h-120v519q-41 -32 -166 -36v91q150 7 194 132h92v-706z" />
<glyph unicode="&#xba;" horiz-adv-x="750" d="M333 875q-122 0 -184 72t-62 211q0 141 62.5 213.5t183.5 72.5t182.5 -73.5t61.5 -212.5q0 -137 -61.5 -210t-182.5 -73zM333 966q62 0 92.5 44.5t30.5 147.5q0 107 -31 150.5t-92 43.5q-64 0 -94.5 -44t-30.5 -150q0 -102 29.5 -147t95.5 -45zM590 687h-550v135h550 v-135z" />
<glyph unicode="&#xbb;" horiz-adv-x="927" d="M610 53h-196l393 471l-393 471h196l394 -471zM260 53h-196l393 471l-393 471h196l394 -471z" />
<glyph unicode="&#xbc;" horiz-adv-x="1504" d="M418 793h-120v519q-41 -32 -166 -36v91q150 7 194 132h92v-706zM1296 -7h-117v154h-311v96l309 456h119v-458h95v-94h-95v-154zM1179 241v277l-188 -277h188zM383 -100h-123l781 1600h123z" />
<glyph unicode="&#xbd;" horiz-adv-x="1560" d="M418 793h-120v519q-41 -32 -166 -36v91q150 7 194 132h92v-706zM1461 -7h-492v106q125 105 179.5 157t90 92.5t55 78.5t19.5 84q0 50 -30.5 78.5t-79.5 28.5q-48 0 -78.5 -21.5t-61.5 -71.5l-87 63q63 126 231 126q107 0 169.5 -53t62.5 -145q0 -46 -13.5 -86.5 t-41.5 -78t-75 -84.5t-198 -176h350v-98zM383 -100h-123l781 1600h123z" />
<glyph unicode="&#xbe;" horiz-adv-x="1501" d="M275 778q-104 0 -167 56t-73 154l112 10q19 -127 128 -127q59 0 95 35.5t36 114.5q0 73 -43.5 108t-113.5 35h-61v76l156 165h-286v94h442v-88l-153 -162q69 -9 127 -68t58 -152q0 -118 -69 -184.5t-188 -66.5zM1296 -7h-117v154h-311v96l309 456h119v-458h95v-94h-95 v-154zM1179 241v277l-188 -277h188zM393 -100h-123l781 1600h123z" />
<glyph unicode="&#xbf;" horiz-adv-x="940" d="M543 1272q58 0 98.5 -40.5t40.5 -98.5q0 -57 -40.5 -97.5t-98.5 -40.5q-57 0 -97.5 40.5t-40.5 97.5q0 58 40.5 98.5t97.5 40.5zM459 872h174q0 -284 -194.5 -391.5t-194.5 -259.5q0 -103 66.5 -161t191.5 -58q184 0 268 141l151 -98q-115 -207 -417 -207 q-208 0 -331.5 94.5t-123.5 267.5q0 206 205 339.5t205 332.5z" />
<glyph unicode="&#xc0;" horiz-adv-x="1262" d="M1220 0h-192l-120 360h-564l-118 -360h-192l473 1384h240zM850 528l-223 674l-227 -674h450zM824 1534h-110q-65 57 -154 163t-129 175v23h203q32 -76 89 -175.5t101 -157.5v-28z" />
<glyph unicode="&#xc1;" horiz-adv-x="1262" d="M1220 0h-192l-120 360h-564l-118 -360h-192l473 1384h240zM850 528l-223 674l-227 -674h450zM542 1535h-111v28q48 68 103.5 164.5t87.5 168.5h202v-23q-44 -72 -131 -176.5t-151 -161.5z" />
<glyph unicode="&#xc2;" horiz-adv-x="1262" d="M1220 0h-192l-120 360h-564l-118 -360h-192l473 1384h240zM850 528l-223 674l-227 -674h450zM964 1536h-119q-88 55 -221 186q-136 -134 -219 -186h-115v23q203 217 252 305h166q45 -85 256 -305v-23z" />
<glyph unicode="&#xc3;" horiz-adv-x="1262" d="M1220 0h-192l-120 360h-564l-118 -360h-192l473 1384h240zM850 528l-223 674l-227 -674h450zM353 1570h-98q13 121 70.5 189.5t148.5 68.5q46 0 89 -18.5t82 -41t75 -41t68 -18.5q49 0 73 29.5t39 91.5h99q-13 -121 -69.5 -189.5t-150.5 -68.5q-43 0 -84 18.5t-80.5 41 t-76 41t-70.5 18.5q-50 0 -75.5 -30t-39.5 -91z" />
<glyph unicode="&#xc4;" horiz-adv-x="1262" d="M1220 0h-192l-120 360h-564l-118 -360h-192l473 1384h240zM850 528l-223 674l-227 -674h450zM827 1547q-64 0 -108.5 44.5t-44.5 108.5q0 63 44.5 107.5t108.5 44.5q63 0 107.5 -44.5t44.5 -107.5q0 -64 -44.5 -108.5t-107.5 -44.5zM429 1547q-64 0 -108.5 44.5 t-44.5 108.5q0 63 44.5 107.5t108.5 44.5q63 0 107.5 -44.5t44.5 -107.5q0 -64 -44.5 -108.5t-107.5 -44.5z" />
<glyph unicode="&#xc5;" horiz-adv-x="1262" d="M1220 0h-192l-120 360h-564l-118 -360h-192l473 1384h240zM850 528l-223 674l-227 -674h450zM627 1516q-77 0 -130.5 53.5t-53.5 130.5t53.5 130.5t130.5 53.5t130.5 -53.5t53.5 -130.5t-53.5 -130.5t-130.5 -53.5zM627 1600q42 0 71 29t29 71t-29 71t-71 29t-71 -29 t-29 -71t29 -71t71 -29z" />
<glyph unicode="&#xc6;" horiz-adv-x="1690" d="M1600 0h-788v383h-422l-176 -383h-201l643 1384h944l-22 -167h-582v-408h526v-168h-526v-473h583zM812 551v666h-40l-305 -666h345z" />
<glyph unicode="&#xc7;" horiz-adv-x="1310" d="M737 -29q-311 0 -458.5 179.5t-147.5 541.5q0 361 146.5 541t451.5 180q331 0 496 -260l-152 -100q-120 196 -344 196q-208 0 -305.5 -138.5t-97.5 -418.5q0 -276 96 -416.5t309 -140.5q258 0 361 207l153 -100q-155 -271 -508 -271zM668 -445q-117 0 -209 47l51 100 q81 -36 162 -36q121 0 121 81q0 80 -186 103l72 138h116l-38 -76q167 -38 167 -167q0 -190 -256 -190z" />
<glyph unicode="&#xc8;" horiz-adv-x="1172" d="M1079 0h-846v1384h846l-28 -167h-633v-404h565v-168h-565v-477h636zM823 1534h-110q-65 57 -154 163t-129 175v23h203q32 -76 89 -175.5t101 -157.5v-28z" />
<glyph unicode="&#xc9;" horiz-adv-x="1172" d="M1079 0h-846v1384h846l-28 -167h-633v-404h565v-168h-565v-477h636zM541 1534h-111v28q48 68 103.5 164.5t87.5 168.5h202v-23q-44 -72 -131 -176.5t-151 -161.5z" />
<glyph unicode="&#xca;" horiz-adv-x="1172" d="M1079 0h-846v1384h846l-28 -167h-633v-404h565v-168h-565v-477h636zM967 1536h-119q-88 55 -221 186q-136 -134 -219 -186h-115v23q203 217 252 305h166q45 -85 256 -305v-23z" />
<glyph unicode="&#xcb;" horiz-adv-x="1172" d="M1076 0h-846v1384h846l-28 -167h-633v-404h565v-168h-565v-477h636zM829 1547q-64 0 -108.5 44.5t-44.5 108.5q0 63 44.5 107.5t108.5 44.5q63 0 107.5 -44.5t44.5 -107.5q0 -64 -44.5 -108.5t-107.5 -44.5zM431 1547q-64 0 -108.5 44.5t-44.5 108.5q0 63 44.5 107.5 t108.5 44.5q63 0 107.5 -44.5t44.5 -107.5q0 -64 -44.5 -108.5t-107.5 -44.5z" />
<glyph unicode="&#xcc;" horiz-adv-x="821" d="M689 0h-566v160h191v1067h-191v157h566v-157h-191v-1067h191v-160zM607 1534h-110q-65 57 -154 163t-129 175v23h203q32 -76 89 -175.5t101 -157.5v-28z" />
<glyph unicode="&#xcd;" horiz-adv-x="821" d="M689 0h-566v160h191v1067h-191v157h566v-157h-191v-1067h191v-160zM325 1535h-111v28q48 68 103.5 164.5t87.5 168.5h202v-23q-44 -72 -131 -176.5t-151 -161.5z" />
<glyph unicode="&#xce;" horiz-adv-x="821" d="M689 0h-566v160h191v1067h-191v157h566v-157h-191v-1067h191v-160zM747 1536h-119q-88 55 -221 186q-136 -134 -219 -186h-115v23q203 217 252 305h166q45 -85 256 -305v-23z" />
<glyph unicode="&#xcf;" horiz-adv-x="821" d="M689 0h-566v160h191v1067h-191v157h566v-157h-191v-1067h191v-160zM610 1548q-64 0 -108.5 44.5t-44.5 108.5q0 63 44.5 107.5t108.5 44.5q63 0 107.5 -44.5t44.5 -107.5q0 -64 -44.5 -108.5t-107.5 -44.5zM212 1548q-64 0 -108.5 44.5t-44.5 108.5q0 63 44.5 107.5 t108.5 44.5q63 0 107.5 -44.5t44.5 -107.5q0 -64 -44.5 -108.5t-107.5 -44.5z" />
<glyph unicode="&#xd0;" horiz-adv-x="1337" d="M585 0h-352v1384h348q242 0 382 -69.5t207 -220.5t67 -402q0 -254 -65.5 -404t-202 -219t-384.5 -69zM571 168q182 0 281.5 50.5t144.5 162t45 313.5q0 198 -44 310t-145 162.5t-282 50.5h-154v-1049h154zM740 606h-623v172h623v-172z" />
<glyph unicode="&#xd1;" horiz-adv-x="1412" d="M1255 0h-219l-625 1188v-1188h-178v1384h271l573 -1087v1087h178v-1384zM470 1570h-98q13 121 70.5 189.5t148.5 68.5q46 0 89 -18.5t82 -41t75 -41t68 -18.5q49 0 73 29.5t39 91.5h99q-13 -121 -69.5 -189.5t-150.5 -68.5q-43 0 -84 18.5t-80.5 41t-76 41t-70.5 18.5 q-50 0 -75.5 -30t-39.5 -91z" />
<glyph unicode="&#xd2;" horiz-adv-x="1419" d="M726 -29q-296 0 -444.5 167t-148.5 554q0 384 147 552.5t446 168.5q295 0 444 -165t149 -556q0 -393 -150.5 -557t-442.5 -164zM726 135q203 0 301 123t98 434q0 307 -96.5 432t-302.5 125t-302.5 -125t-96.5 -432q0 -309 97.5 -433t301.5 -124zM923 1535h-110 q-65 57 -154 163t-129 175v23h203q32 -76 89 -175.5t101 -157.5v-28z" />
<glyph unicode="&#xd3;" horiz-adv-x="1419" d="M726 -29q-296 0 -444.5 167t-148.5 554q0 384 147 552.5t446 168.5q295 0 444 -165t149 -556q0 -393 -150.5 -557t-442.5 -164zM726 135q203 0 301 123t98 434q0 307 -96.5 432t-302.5 125t-302.5 -125t-96.5 -432q0 -309 97.5 -433t301.5 -124zM641 1535h-111v28 q48 68 103.5 164.5t87.5 168.5h202v-23q-44 -72 -131 -176.5t-151 -161.5z" />
<glyph unicode="&#xd4;" horiz-adv-x="1419" d="M726 -29q-296 0 -444.5 167t-148.5 554q0 384 147 552.5t446 168.5q295 0 444 -165t149 -556q0 -393 -150.5 -557t-442.5 -164zM726 135q203 0 301 123t98 434q0 307 -96.5 432t-302.5 125t-302.5 -125t-96.5 -432q0 -309 97.5 -433t301.5 -124zM1063 1536h-119 q-88 55 -221 186q-136 -134 -219 -186h-115v23q203 217 252 305h166q45 -85 256 -305v-23z" />
<glyph unicode="&#xd5;" horiz-adv-x="1419" d="M726 -29q-296 0 -444.5 167t-148.5 554q0 384 147 552.5t446 168.5q295 0 444 -165t149 -556q0 -393 -150.5 -557t-442.5 -164zM726 135q203 0 301 123t98 434q0 307 -96.5 432t-302.5 125t-302.5 -125t-96.5 -432q0 -309 97.5 -433t301.5 -124zM452 1570h-98 q13 121 70.5 189.5t148.5 68.5q46 0 89 -18.5t82 -41t75 -41t68 -18.5q49 0 73 29.5t39 91.5h99q-13 -121 -69.5 -189.5t-150.5 -68.5q-43 0 -84 18.5t-80.5 41t-76 41t-70.5 18.5q-50 0 -75.5 -30t-39.5 -91z" />
<glyph unicode="&#xd6;" horiz-adv-x="1419" d="M726 -29q-296 0 -444.5 167t-148.5 554q0 384 147 552.5t446 168.5q295 0 444 -165t149 -556q0 -393 -150.5 -557t-442.5 -164zM726 135q203 0 301 123t98 434q0 307 -96.5 432t-302.5 125t-302.5 -125t-96.5 -432q0 -309 97.5 -433t301.5 -124zM926 1548 q-64 0 -108.5 44.5t-44.5 108.5q0 63 44.5 107.5t108.5 44.5q63 0 107.5 -44.5t44.5 -107.5q0 -64 -44.5 -108.5t-107.5 -44.5zM528 1548q-64 0 -108.5 44.5t-44.5 108.5q0 63 44.5 107.5t108.5 44.5q63 0 107.5 -44.5t44.5 -107.5q0 -64 -44.5 -108.5t-107.5 -44.5z" />
<glyph unicode="&#xd7;" horiz-adv-x="983" d="M794 286l-313 311l-311 -310l-100 100l312 311l-313 311l100 103l312 -313l313 312l99 -101l-311 -312l312 -310z" />
<glyph unicode="&#xd8;" horiz-adv-x="1419" d="M726 -29q-296 0 -444.5 167t-148.5 554q0 384 147 552.5t446 168.5q295 0 444 -165t149 -556q0 -393 -150.5 -557t-442.5 -164zM726 135q203 0 301 123t98 434q0 307 -96.5 432t-302.5 125t-302.5 -125t-96.5 -432q0 -309 97.5 -433t301.5 -124zM451 -218h-166l715 1819 h168z" />
<glyph unicode="&#xd9;" horiz-adv-x="1346" d="M715 -31q-261 0 -391 133t-130 456v826h185v-806q0 -268 84 -356.5t252 -88.5q167 0 251 88.5t84 356.5v806h185v-826q0 -327 -130 -458t-390 -131zM911 1534h-110q-65 57 -154 163t-129 175v23h203q32 -76 89 -175.5t101 -157.5v-28z" />
<glyph unicode="&#xda;" horiz-adv-x="1346" d="M715 -31q-261 0 -391 133t-130 456v826h185v-806q0 -268 84 -356.5t252 -88.5q167 0 251 88.5t84 356.5v806h185v-826q0 -327 -130 -458t-390 -131zM629 1534h-111v28q48 68 103.5 164.5t87.5 168.5h202v-23q-44 -72 -131 -176.5t-151 -161.5z" />
<glyph unicode="&#xdb;" horiz-adv-x="1346" d="M715 -31q-261 0 -391 133t-130 456v826h185v-806q0 -268 84 -356.5t252 -88.5q167 0 251 88.5t84 356.5v806h185v-826q0 -327 -130 -458t-390 -131zM1052 1536h-119q-88 55 -221 186q-136 -134 -219 -186h-115v23q203 217 252 305h166q45 -85 256 -305v-23z" />
<glyph unicode="&#xdc;" horiz-adv-x="1346" d="M715 -31q-261 0 -391 133t-130 456v826h185v-806q0 -268 84 -356.5t252 -88.5q167 0 251 88.5t84 356.5v806h185v-826q0 -327 -130 -458t-390 -131zM914 1547q-64 0 -108.5 44.5t-44.5 108.5q0 63 44.5 107.5t108.5 44.5q63 0 107.5 -44.5t44.5 -107.5 q0 -64 -44.5 -108.5t-107.5 -44.5zM516 1547q-64 0 -108.5 44.5t-44.5 108.5q0 63 44.5 107.5t108.5 44.5q63 0 107.5 -44.5t44.5 -107.5q0 -64 -44.5 -108.5t-107.5 -44.5z" />
<glyph unicode="&#xdd;" horiz-adv-x="1069" d="M652 0h-187v516l-438 868h209l323 -673l334 673h199l-440 -858v-526zM474 1534h-111v28q48 68 103.5 164.5t87.5 168.5h202v-23q-44 -72 -131 -176.5t-151 -161.5z" />
<glyph unicode="&#xde;" horiz-adv-x="1264" d="M418 0h-185v1384h185v-235h245q259 0 375 -109.5t116 -327.5q0 -219 -117.5 -328.5t-381.5 -109.5h-237v-274zM616 442q196 0 270 67.5t74 202.5q0 134 -71.5 201.5t-246.5 67.5h-224v-539h198z" />
<glyph unicode="&#xdf;" horiz-adv-x="1199" d="M747 -19q-120 0 -199 63v160q125 -72 199 -72q71 0 109.5 34.5t38.5 96.5q0 98 -178 188.5t-178 264.5q0 100 68 164t171 81q20 39 20 108q0 80 -51 136.5t-146 56.5q-217 0 -217 -271v-991h-185v985q0 193 111 313.5t296 120.5q170 0 273.5 -102.5t103.5 -234.5 q0 -94 -51 -184q-32 -57 -55 -57q-154 0 -154 -113q0 -98 179.5 -191.5t179.5 -268.5q0 -126 -93.5 -206.5t-241.5 -80.5z" />
<glyph unicode="&#xe0;" horiz-adv-x="1232" d="M485 149q161 0 260.5 234t99.5 373v131q-83 19 -175 19q-182 0 -271 -137t-89 -347q0 -273 175 -273zM465 -26q-340 0 -340 468q0 262 155 445t405 183q174 0 345 -46v-479q0 -351 65 -545h-175q-11 25 -19 68q-16 80 -23 189q-3 49 -3 145q-127 -428 -410 -428z M803 1185h-110q-65 57 -154 163t-129 175v23h203q32 -76 89 -175.5t101 -157.5v-28z" />
<glyph unicode="&#xe1;" horiz-adv-x="1232" d="M485 149q161 0 260.5 234t99.5 373v131q-83 19 -175 19q-182 0 -271 -137t-89 -347q0 -273 175 -273zM465 -26q-340 0 -340 468q0 262 155 445t405 183q174 0 345 -46v-479q0 -351 65 -545h-175q-11 25 -19 68q-16 80 -23 189q-3 49 -3 145q-127 -428 -410 -428z M521 1186h-111v28q48 68 103.5 164.5t87.5 168.5h202v-23q-44 -72 -131 -176.5t-151 -161.5z" />
<glyph unicode="&#xe2;" horiz-adv-x="1232" d="M485 149q161 0 260.5 234t99.5 373v131q-83 19 -175 19q-182 0 -271 -137t-89 -347q0 -273 175 -273zM465 -26q-340 0 -340 468q0 262 155 445t405 183q174 0 345 -46v-479q0 -351 65 -545h-175q-11 25 -19 68q-16 80 -23 189q-3 49 -3 145q-127 -428 -410 -428z M944 1186h-119q-88 55 -221 186q-136 -134 -219 -186h-115v23q203 217 252 305h166q45 -85 256 -305v-23z" />
<glyph unicode="&#xe3;" horiz-adv-x="1232" d="M485 149q161 0 260.5 234t99.5 373v131q-83 19 -175 19q-182 0 -271 -137t-89 -347q0 -273 175 -273zM465 -26q-340 0 -340 468q0 262 155 445t405 183q174 0 345 -46v-479q0 -351 65 -545h-175q-11 25 -19 68q-16 80 -23 189q-3 49 -3 145q-127 -428 -410 -428z M333 1220h-98q13 121 70.5 189.5t148.5 68.5q46 0 89 -18.5t82 -41t75 -41t68 -18.5q49 0 73 29.5t39 91.5h99q-13 -121 -69.5 -189.5t-150.5 -68.5q-43 0 -84 18.5t-80.5 41t-76 41t-70.5 18.5q-50 0 -75.5 -30t-39.5 -91z" />
<glyph unicode="&#xe4;" horiz-adv-x="1232" d="M485 149q161 0 260.5 234t99.5 373v131q-83 19 -175 19q-182 0 -271 -137t-89 -347q0 -273 175 -273zM465 -26q-340 0 -340 468q0 262 155 445t405 183q174 0 345 -46v-479q0 -351 65 -545h-175q-11 25 -19 68q-16 80 -23 189q-3 49 -3 145q-127 -428 -410 -428z M813 1197q-64 0 -108.5 44.5t-44.5 108.5q0 63 44.5 107.5t108.5 44.5q63 0 107.5 -44.5t44.5 -107.5q0 -64 -44.5 -108.5t-107.5 -44.5zM415 1197q-64 0 -108.5 44.5t-44.5 108.5q0 63 44.5 107.5t108.5 44.5q63 0 107.5 -44.5t44.5 -107.5q0 -64 -44.5 -108.5 t-107.5 -44.5z" />
<glyph unicode="&#xe5;" horiz-adv-x="1232" d="M485 149q161 0 260.5 234t99.5 373v131q-83 19 -175 19q-182 0 -271 -137t-89 -347q0 -273 175 -273zM465 -26q-340 0 -340 468q0 262 155 445t405 183q174 0 345 -46v-479q0 -351 65 -545h-175q-11 25 -19 68q-16 80 -23 189q-3 49 -3 145q-127 -428 -410 -428z M607 1166q-77 0 -130.5 53.5t-53.5 130.5t53.5 130.5t130.5 53.5t130.5 -53.5t53.5 -130.5t-53.5 -130.5t-130.5 -53.5zM607 1250q42 0 71 29t29 71t-29 71t-71 29t-71 -29t-29 -71t29 -71t71 -29z" />
<glyph unicode="&#xe6;" horiz-adv-x="1783" d="M1467 643q0 273 -250 273q-229 0 -272 -273h522zM473 123q86 0 165 42t163 107q-25 70 -25 227h-168q-311 0 -311 -202q0 -92 49 -133t127 -41zM891 928q128 142 351 142q405 0 405 -511q0 -46 -1 -60h-709q6 -177 93 -271q86 -94 227 -94q201 0 355 113l20 -170 q-174 -103 -390 -103q-236 0 -385 181q-98 -84 -216 -135t-217 -51q-140 0 -222.5 90.5t-82.5 221.5q0 362 499 362h158v78q0 209 -254 209q-178 0 -246 -117l-141 86q103 180 401 180q279 0 355 -151z" />
<glyph unicode="&#xe7;" horiz-adv-x="1063" d="M601 -26q-211 0 -348 148.5t-137 381.5q0 236 140.5 401t379.5 165q177 0 300 -87l-35 -186q-112 103 -280 103q-137 0 -224 -101q-91 -106 -91 -284q0 -167 85.5 -269t229.5 -102q168 0 305 124l20 -181q-144 -113 -345 -113zM546 -434q-117 0 -209 47l51 100 q81 -36 162 -36q121 0 121 81q0 80 -186 103l72 138h116l-38 -76q167 -38 167 -167q0 -190 -256 -190z" />
<glyph unicode="&#xe8;" horiz-adv-x="1157" d="M607 -26q-216 0 -353 144.5t-137 390.5q0 255 129 408t361 153q405 0 405 -511q0 -46 -1 -60h-709q6 -177 93 -271q86 -94 227 -94q201 0 355 113l20 -170q-174 -103 -390 -103zM832 643q0 273 -250 273q-229 0 -272 -273h522zM761 1184h-110q-65 57 -154 163t-129 175 v23h203q32 -76 89 -175.5t101 -157.5v-28z" />
<glyph unicode="&#xe9;" horiz-adv-x="1157" d="M607 -26q-216 0 -353 144.5t-137 390.5q0 255 129 408t361 153q405 0 405 -511q0 -46 -1 -60h-709q6 -177 93 -271q86 -94 227 -94q201 0 355 113l20 -170q-174 -103 -390 -103zM832 643q0 273 -250 273q-229 0 -272 -273h522zM479 1186h-111v28q48 68 103.5 164.5 t87.5 168.5h202v-23q-44 -72 -131 -176.5t-151 -161.5z" />
<glyph unicode="&#xea;" horiz-adv-x="1157" d="M607 -26q-216 0 -353 144.5t-137 390.5q0 255 129 408t361 153q405 0 405 -511q0 -46 -1 -60h-709q6 -177 93 -271q86 -94 227 -94q201 0 355 113l20 -170q-174 -103 -390 -103zM832 643q0 273 -250 273q-229 0 -272 -273h522zM902 1186h-119q-88 55 -221 186 q-136 -134 -219 -186h-115v23q203 217 252 305h166q45 -85 256 -305v-23z" />
<glyph unicode="&#xeb;" horiz-adv-x="1157" d="M607 -26q-216 0 -353 144.5t-137 390.5q0 255 129 408t361 153q405 0 405 -511q0 -46 -1 -60h-709q6 -177 93 -271q86 -94 227 -94q201 0 355 113l20 -170q-174 -103 -390 -103zM832 643q0 273 -250 273q-229 0 -272 -273h522zM764 1198q-64 0 -108.5 44.5t-44.5 108.5 q0 63 44.5 107.5t108.5 44.5q63 0 107.5 -44.5t44.5 -107.5q0 -64 -44.5 -108.5t-107.5 -44.5zM366 1198q-64 0 -108.5 44.5t-44.5 108.5q0 63 44.5 107.5t108.5 44.5q63 0 107.5 -44.5t44.5 -107.5q0 -64 -44.5 -108.5t-107.5 -44.5z" />
<glyph unicode="&#xec;" horiz-adv-x="596" d="M449 0h-185v899h-100v151h285v-1050zM473 1184h-110q-65 57 -154 163t-129 175v23h203q32 -76 89 -175.5t101 -157.5v-28z" />
<glyph unicode="&#xed;" horiz-adv-x="596" d="M449 0h-185v899h-100v151h285v-1050zM210 1184h-111v28q48 68 103.5 164.5t87.5 168.5h202v-23q-44 -72 -131 -176.5t-151 -161.5z" />
<glyph unicode="&#xee;" horiz-adv-x="596" d="M449 0h-185v899h-100v151h285v-1050zM653 1186h-119q-88 55 -221 186q-136 -134 -219 -186h-115v23q203 217 252 305h166q45 -85 256 -305v-23z" />
<glyph unicode="&#xef;" horiz-adv-x="596" d="M449 0h-185v899h-100v151h285v-1050zM522 1198q-64 0 -108.5 44.5t-44.5 108.5q0 63 44.5 107.5t108.5 44.5q63 0 107.5 -44.5t44.5 -107.5q0 -64 -44.5 -108.5t-107.5 -44.5zM124 1198q-64 0 -108.5 44.5t-44.5 108.5q0 63 44.5 107.5t108.5 44.5q63 0 107.5 -44.5 t44.5 -107.5q0 -64 -44.5 -108.5t-107.5 -44.5z" />
<glyph unicode="&#xf0;" horiz-adv-x="1253" d="M613 -25q-493 0 -493 547t493 547q97 0 196 -45q-96 129 -229 229l-278 -149l-95 108l240 129q-96 54 -250 111l127 109q159 -59 281 -136l250 136l94 -109l-213 -115q183 -139 275 -349t92 -426q0 -587 -490 -587zM613 131q296 0 296 391q0 154 -75 272.5t-221 118.5 q-298 0 -298 -391t298 -391z" />
<glyph unicode="&#xf1;" horiz-adv-x="1240" d="M1085 0h-185v596q0 294 -200 294q-193 0 -325 -293v-597h-185v633q0 259 -50 417h180q26 -65 40 -201q169 221 395 221q330 0 330 -427v-643zM326 1220h-98q13 121 70.5 189.5t148.5 68.5q46 0 89 -18.5t82 -41t75 -41t68 -18.5q49 0 73 29.5t39 91.5h99 q-13 -121 -69.5 -189.5t-150.5 -68.5q-43 0 -84 18.5t-80.5 41t-76 41t-70.5 18.5q-50 0 -75.5 -30t-39.5 -91z" />
<glyph unicode="&#xf2;" horiz-adv-x="1180" d="M597 -31q-225 0 -344 138.5t-119 414.5q0 281 119.5 419t343.5 138q226 0 343 -140.5t117 -416.5q0 -273 -117.5 -413t-342.5 -140zM597 124q143 0 209 95.5t66 302.5q0 214 -67 308t-208 94q-145 0 -211.5 -94.5t-66.5 -307.5q0 -205 64 -301.5t214 -96.5zM792 1184 h-110q-65 57 -154 163t-129 175v23h203q32 -76 89 -175.5t101 -157.5v-28z" />
<glyph unicode="&#xf3;" horiz-adv-x="1180" d="M597 -31q-225 0 -344 138.5t-119 414.5q0 281 119.5 419t343.5 138q226 0 343 -140.5t117 -416.5q0 -273 -117.5 -413t-342.5 -140zM597 124q143 0 209 95.5t66 302.5q0 214 -67 308t-208 94q-145 0 -211.5 -94.5t-66.5 -307.5q0 -205 64 -301.5t214 -96.5zM510 1184 h-111v28q48 68 103.5 164.5t87.5 168.5h202v-23q-44 -72 -131 -176.5t-151 -161.5z" />
<glyph unicode="&#xf4;" horiz-adv-x="1180" d="M597 -31q-225 0 -344 138.5t-119 414.5q0 281 119.5 419t343.5 138q226 0 343 -140.5t117 -416.5q0 -273 -117.5 -413t-342.5 -140zM597 124q143 0 209 95.5t66 302.5q0 214 -67 308t-208 94q-145 0 -211.5 -94.5t-66.5 -307.5q0 -205 64 -301.5t214 -96.5zM933 1186 h-119q-88 55 -221 186q-136 -134 -219 -186h-115v23q203 217 252 305h166q45 -85 256 -305v-23z" />
<glyph unicode="&#xf5;" horiz-adv-x="1180" d="M597 -31q-225 0 -344 138.5t-119 414.5q0 281 119.5 419t343.5 138q226 0 343 -140.5t117 -416.5q0 -273 -117.5 -413t-342.5 -140zM597 124q143 0 209 95.5t66 302.5q0 214 -67 308t-208 94q-145 0 -211.5 -94.5t-66.5 -307.5q0 -205 64 -301.5t214 -96.5zM322 1220h-98 q13 121 70.5 189.5t148.5 68.5q46 0 89 -18.5t82 -41t75 -41t68 -18.5q49 0 73 29.5t39 91.5h99q-13 -121 -69.5 -189.5t-150.5 -68.5q-43 0 -84 18.5t-80.5 41t-76 41t-70.5 18.5q-50 0 -75.5 -30t-39.5 -91z" />
<glyph unicode="&#xf6;" horiz-adv-x="1180" d="M597 -31q-225 0 -344 138.5t-119 414.5q0 281 119.5 419t343.5 138q226 0 343 -140.5t117 -416.5q0 -273 -117.5 -413t-342.5 -140zM597 124q143 0 209 95.5t66 302.5q0 214 -67 308t-208 94q-145 0 -211.5 -94.5t-66.5 -307.5q0 -205 64 -301.5t214 -96.5zM795 1198 q-64 0 -108.5 44.5t-44.5 108.5q0 63 44.5 107.5t108.5 44.5q63 0 107.5 -44.5t44.5 -107.5q0 -64 -44.5 -108.5t-107.5 -44.5zM397 1198q-64 0 -108.5 44.5t-44.5 108.5q0 63 44.5 107.5t108.5 44.5q63 0 107.5 -44.5t44.5 -107.5q0 -64 -44.5 -108.5t-107.5 -44.5z" />
<glyph unicode="&#xf7;" horiz-adv-x="915" d="M870 628h-831v150h831v-150zM455 887q-64 0 -108.5 44.5t-44.5 108.5q0 63 44.5 107.5t108.5 44.5q63 0 107.5 -44.5t44.5 -107.5q0 -64 -44.5 -108.5t-107.5 -44.5zM455 213q-64 0 -108.5 44.5t-44.5 108.5q0 63 44.5 107.5t108.5 44.5q63 0 107.5 -44.5t44.5 -107.5 q0 -64 -44.5 -108.5t-107.5 -44.5z" />
<glyph unicode="&#xf8;" horiz-adv-x="1180" d="M597 -31q-225 0 -344 138.5t-119 414.5q0 281 119.5 419t343.5 138q226 0 343 -140.5t117 -416.5q0 -273 -117.5 -413t-342.5 -140zM597 124q143 0 209 95.5t66 302.5q0 214 -67 308t-208 94q-145 0 -211.5 -94.5t-66.5 -307.5q0 -205 64 -301.5t214 -96.5zM267 -276 h-123l781 1600h123z" />
<glyph unicode="&#xf9;" horiz-adv-x="1215" d="M597 -28q-208 0 -312 111.5t-104 294.5v671h185v-641q0 -285 231 -285q230 0 230 281v645h185v-671q0 -187 -104 -296.5t-311 -109.5zM793 1184h-110q-65 57 -154 163t-129 175v23h203q32 -76 89 -175.5t101 -157.5v-28z" />
<glyph unicode="&#xfa;" horiz-adv-x="1215" d="M597 -28q-208 0 -312 111.5t-104 294.5v671h185v-641q0 -285 231 -285q230 0 230 281v645h185v-671q0 -187 -104 -296.5t-311 -109.5zM511 1185h-111v28q48 68 103.5 164.5t87.5 168.5h202v-23q-44 -72 -131 -176.5t-151 -161.5z" />
<glyph unicode="&#xfb;" horiz-adv-x="1215" d="M597 -28q-208 0 -312 111.5t-104 294.5v671h185v-641q0 -285 231 -285q230 0 230 281v645h185v-671q0 -187 -104 -296.5t-311 -109.5zM934 1186h-119q-88 55 -221 186q-136 -134 -219 -186h-115v23q203 217 252 305h166q45 -85 256 -305v-23z" />
<glyph unicode="&#xfc;" horiz-adv-x="1215" d="M597 -28q-208 0 -312 111.5t-104 294.5v671h185v-641q0 -285 231 -285q230 0 230 281v645h185v-671q0 -187 -104 -296.5t-311 -109.5zM796 1197q-64 0 -108.5 44.5t-44.5 108.5q0 63 44.5 107.5t108.5 44.5q63 0 107.5 -44.5t44.5 -107.5q0 -64 -44.5 -108.5 t-107.5 -44.5zM398 1197q-64 0 -108.5 44.5t-44.5 108.5q0 63 44.5 107.5t108.5 44.5q63 0 107.5 -44.5t44.5 -107.5q0 -64 -44.5 -108.5t-107.5 -44.5z" />
<glyph unicode="&#xfd;" horiz-adv-x="1124" d="M255 -484q-141 0 -255 88l60 164q101 -77 185 -77q147 0 244 282l-439 1077h200l323 -841l287 841h200l-385 -1050q-177 -484 -420 -484zM444 1184h-111v28q48 68 103.5 164.5t87.5 168.5h202v-23q-44 -72 -131 -176.5t-151 -161.5z" />
<glyph unicode="&#xfe;" horiz-adv-x="1260" d="M409 -495h-172v2095h172v-656q155 135 320 135q187 0 291 -141.5t104 -405.5q0 -258 -112.5 -410.5t-309.5 -152.5q-157 0 -293 117v-581zM679 123q117 0 192 98t75 307q0 398 -250 398q-147 0 -287 -135v-555q134 -113 270 -113z" />
<glyph unicode="&#xff;" horiz-adv-x="1124" d="M255 -484q-141 0 -255 88l60 164q101 -77 185 -77q147 0 244 282l-439 1077h200l323 -841l287 841h200l-385 -1050q-177 -484 -420 -484zM749 1197q-64 0 -108.5 44.5t-44.5 108.5q0 63 44.5 107.5t108.5 44.5q63 0 107.5 -44.5t44.5 -107.5q0 -64 -44.5 -108.5 t-107.5 -44.5zM351 1197q-64 0 -108.5 44.5t-44.5 108.5q0 63 44.5 107.5t108.5 44.5q63 0 107.5 -44.5t44.5 -107.5q0 -64 -44.5 -108.5t-107.5 -44.5z" />
<glyph unicode="&#x131;" horiz-adv-x="596" d="M449 0h-185v899h-100v151h285v-1050z" />
<glyph unicode="&#x152;" horiz-adv-x="1816" d="M729 -29q-305 0 -451.5 177t-146.5 544q0 366 145.5 543.5t452.5 177.5q124 0 223 -29h774l-23 -167h-581v-408h525v-168h-525v-473h583l21 -168h-772q-102 -29 -225 -29zM731 135q121 0 205 43v1028q-84 43 -205 43q-216 0 -310.5 -130.5t-94.5 -426.5 q0 -288 95.5 -422.5t309.5 -134.5z" />
<glyph unicode="&#x153;" horiz-adv-x="1840" d="M1332 -26q-216 0 -353 144.5t-137 390.5q0 255 129 408t361 153q405 0 405 -511q0 -46 -1 -60h-709q6 -177 93 -271q86 -94 227 -94q201 0 355 113l20 -170q-174 -103 -390 -103zM1557 643q0 273 -250 273q-229 0 -272 -273h522zM567 -31q-225 0 -344 138.5t-119 414.5 q0 281 119.5 419t343.5 138q226 0 343 -140.5t117 -416.5q0 -273 -117.5 -413t-342.5 -140zM567 124q143 0 209 95.5t66 302.5q0 214 -67 308t-208 94q-145 0 -211.5 -94.5t-66.5 -307.5q0 -205 64 -301.5t214 -96.5z" />
<glyph unicode="&#x178;" horiz-adv-x="1069" d="M652 0h-187v516l-438 868h209l323 -673l334 673h199l-440 -858v-526zM759 1547q-64 0 -108.5 44.5t-44.5 108.5q0 63 44.5 107.5t108.5 44.5q63 0 107.5 -44.5t44.5 -107.5q0 -64 -44.5 -108.5t-107.5 -44.5zM361 1547q-64 0 -108.5 44.5t-44.5 108.5q0 63 44.5 107.5 t108.5 44.5q63 0 107.5 -44.5t44.5 -107.5q0 -64 -44.5 -108.5t-107.5 -44.5z" />
<glyph unicode="&#x237;" horiz-adv-x="626" d="M92 -495q-100 0 -188 30l43 150q73 -29 151 -29q84 0 109.5 58.5t25.5 168.5v1016h-110v151h294v-1195q0 -190 -75 -270t-250 -80z" />
<glyph unicode="&#x2c6;" horiz-adv-x="875" d="M783 1186h-119q-88 55 -221 186q-136 -134 -219 -186h-115v23q203 217 252 305h166q45 -85 256 -305v-23z" />
<glyph unicode="&#x2da;" horiz-adv-x="534" d="M267 1166q-77 0 -130.5 53.5t-53.5 130.5t53.5 130.5t130.5 53.5t130.5 -53.5t53.5 -130.5t-53.5 -130.5t-130.5 -53.5zM267 1250q42 0 71 29t29 71t-29 71t-71 29t-71 -29t-29 -71t29 -71t71 -29z" />
<glyph unicode="&#x2dc;" horiz-adv-x="993" d="M193 1220h-98q13 121 70.5 189.5t148.5 68.5q46 0 89 -18.5t82 -41t75 -41t68 -18.5q49 0 73 29.5t39 91.5h99q-13 -121 -69.5 -189.5t-150.5 -68.5q-43 0 -84 18.5t-80.5 41t-76 41t-70.5 18.5q-50 0 -75.5 -30t-39.5 -91z" />
<glyph unicode="&#x1d52;" horiz-adv-x="632" d="M318 778q-122 0 -184 72t-62 211q0 141 62.5 213.5t183.5 72.5t182.5 -73.5t61.5 -212.5q0 -137 -61.5 -210t-182.5 -73zM318 869q62 0 92.5 44.5t30.5 147.5q0 107 -31 150.5t-92 43.5q-64 0 -94.5 -44t-30.5 -150q0 -102 29.5 -147t95.5 -45z" />
<glyph unicode="&#x2000;" horiz-adv-x="948" />
<glyph unicode="&#x2001;" horiz-adv-x="1896" />
<glyph unicode="&#x2002;" horiz-adv-x="948" />
<glyph unicode="&#x2003;" horiz-adv-x="1896" />
<glyph unicode="&#x2004;" horiz-adv-x="632" />
<glyph unicode="&#x2005;" horiz-adv-x="474" />
<glyph unicode="&#x2006;" horiz-adv-x="316" />
<glyph unicode="&#x2007;" horiz-adv-x="316" />
<glyph unicode="&#x2008;" horiz-adv-x="237" />
<glyph unicode="&#x2009;" horiz-adv-x="379" />
<glyph unicode="&#x200a;" horiz-adv-x="105" />
<glyph unicode="&#x2010;" horiz-adv-x="678" d="M625 440h-623v172h623v-172z" />
<glyph unicode="&#x2011;" horiz-adv-x="678" d="M625 440h-623v172h623v-172z" />
<glyph unicode="&#x2012;" horiz-adv-x="678" d="M625 440h-623v172h623v-172z" />
<glyph unicode="&#x2013;" horiz-adv-x="1024" d="M1024 450h-1024v100h1024v-100z" />
<glyph unicode="&#x2014;" horiz-adv-x="2048" d="M2048 450h-2048v100h2048v-100z" />
<glyph unicode="&#x2018;" horiz-adv-x="484" d="M246 994q-65 0 -108.5 48.5t-43.5 167.5q0 225 181 364l77 -67q-118 -92 -136 -211q15 3 30 3q64 0 108.5 -44.5t44.5 -108.5q0 -63 -44.5 -107.5t-108.5 -44.5z" />
<glyph unicode="&#x2019;" horiz-adv-x="484" d="M173 981l-77 67q118 92 136 211q-15 -3 -30 -3q-64 0 -108.5 44.5t-44.5 108.5q0 63 44.5 107.5t108.5 44.5q65 0 108.5 -48.5t43.5 -166.5q0 -226 -181 -365z" />
<glyph unicode="&#x201a;" horiz-adv-x="484" d="M173 -309l-77 67q118 92 136 211q-15 -3 -30 -3q-64 0 -108.5 44.5t-44.5 108.5q0 63 44.5 107.5t108.5 44.5q65 0 108.5 -48.5t43.5 -166.5q0 -226 -181 -365z" />
<glyph unicode="&#x201c;" horiz-adv-x="844" d="M606 994q-65 0 -108.5 48.5t-43.5 167.5q0 225 181 364l77 -67q-118 -92 -136 -211q15 3 30 3q64 0 108.5 -44.5t44.5 -108.5q0 -63 -44.5 -107.5t-108.5 -44.5zM246 994q-65 0 -108.5 48.5t-43.5 167.5q0 225 181 364l77 -67q-118 -92 -136 -211q15 3 30 3 q64 0 108.5 -44.5t44.5 -108.5q0 -63 -44.5 -107.5t-108.5 -44.5z" />
<glyph unicode="&#x201d;" horiz-adv-x="844" d="M533 981l-77 67q118 92 136 211q-15 -3 -30 -3q-64 0 -108.5 44.5t-44.5 108.5q0 63 44.5 107.5t108.5 44.5q65 0 108.5 -48.5t43.5 -166.5q0 -226 -181 -365zM173 981l-77 67q118 92 136 211q-15 -3 -30 -3q-64 0 -108.5 44.5t-44.5 108.5q0 63 44.5 107.5t108.5 44.5 q65 0 108.5 -48.5t43.5 -166.5q0 -226 -181 -365z" />
<glyph unicode="&#x201e;" horiz-adv-x="844" d="M533 -309l-77 67q118 92 136 211q-15 -3 -30 -3q-64 0 -108.5 44.5t-44.5 108.5q0 63 44.5 107.5t108.5 44.5q65 0 108.5 -48.5t43.5 -166.5q0 -226 -181 -365zM173 -309l-77 67q118 92 136 211q-15 -3 -30 -3q-64 0 -108.5 44.5t-44.5 108.5q0 63 44.5 107.5t108.5 44.5 q65 0 108.5 -48.5t43.5 -166.5q0 -226 -181 -365z" />
<glyph unicode="&#x2022;" horiz-adv-x="914" d="M457 149q-71 0 -136.5 27t-116 77.5t-77.5 116t-27 136.5t27 136.5t77.5 116t116 77.5t136.5 27t136.5 -27t116 -77.5t77.5 -116t27 -136.5t-27 -136.5t-77.5 -116t-116 -77.5t-136.5 -27z" />
<glyph unicode="&#x2026;" horiz-adv-x="1697" d="M1416 -34q-64 0 -108.5 44.5t-44.5 108.5q0 63 44.5 107.5t108.5 44.5q63 0 107.5 -44.5t44.5 -107.5q0 -64 -44.5 -108.5t-107.5 -44.5zM806 -34q-64 0 -108.5 44.5t-44.5 108.5q0 63 44.5 107.5t108.5 44.5q63 0 107.5 -44.5t44.5 -107.5q0 -64 -44.5 -108.5 t-107.5 -44.5zM196 -34q-64 0 -108.5 44.5t-44.5 108.5q0 63 44.5 107.5t108.5 44.5q63 0 107.5 -44.5t44.5 -107.5q0 -64 -44.5 -108.5t-107.5 -44.5z" />
<glyph unicode="&#x202f;" horiz-adv-x="379" />
<glyph unicode="&#x2039;" horiz-adv-x="735" d="M662 53h-197l-393 471l393 471h197l-394 -471z" />
<glyph unicode="&#x203a;" horiz-adv-x="735" d="M270 53h-196l393 471l-393 471h196l394 -471z" />
<glyph unicode="&#x2044;" horiz-adv-x="1034" d="M163 -100h-123l781 1600h123z" />
<glyph unicode="&#x205f;" horiz-adv-x="474" />
<glyph unicode="&#x20ac;" horiz-adv-x="1325" d="M777 -29q-508 0 -576 535h-108l39 119h59v139h-98l37 119h71q35 264 173.5 397t392.5 133q114 0 204.5 -29.5t153 -80.5t119.5 -150l-152 -96q-45 78 -88 116t-101 59t-136 21q-311 0 -371 -370h592l-37 -119h-565v-139h530l-37 -119h-483q28 -187 118.5 -281t256.5 -94 q113 0 192 49.5t146 173.5l147 -92q-87 -160 -199.5 -225.5t-279.5 -65.5z" />
<glyph unicode="&#x2122;" horiz-adv-x="1396" d="M1336 670h-128v503l-157 -314h-87l-154 314v-503h-128v714h159l169 -346l170 346h156v-714zM385 670h-132v609h-229v105h591v-105h-230v-609z" />
<glyph unicode="&#x2212;" horiz-adv-x="915" d="M870 626h-831v150h831v-150z" />
<glyph unicode="&#x25fc;" horiz-adv-x="1050" d="M0 1050h1050v-1050h-1050v1050z" />
<glyph horiz-adv-x="639" d="M254 82q84 0 122.5 113.5t38.5 182.5v61q-25 7 -73 7q-81 0 -122 -71q-34 -59 -34 -164q0 -129 68 -129zM239 -20q-174 0 -174 231q0 135 66 226q77 105 218 105q90 0 187 -26v-243q0 -176 34 -280h-114q-19 39 -26 114q-38 -127 -191 -127z" />
<glyph horiz-adv-x="631" d="M496 -7h-117v154h-311v96l309 456h119v-458h95v-94h-95v-154zM379 241v277l-188 -277h188z" />
<glyph horiz-adv-x="380" d="M-157 -100h-123l781 1600h123z" />
<glyph horiz-adv-x="632" d="M318 -22q-122 0 -184 72t-62 211q0 141 62.5 213.5t183.5 72.5t182.5 -73.5t61.5 -212.5q0 -137 -61.5 -210t-182.5 -73zM318 69q62 0 92.5 44.5t30.5 147.5q0 107 -31 150.5t-92 43.5q-64 0 -94.5 -44t-30.5 -150q0 -102 29.5 -147t95.5 -45z" />
<glyph horiz-adv-x="629" d="M418 -7h-120v519q-41 -32 -166 -36v91q150 7 194 132h92v-706z" />
<glyph horiz-adv-x="630" d="M296 -22q-104 0 -167 56t-73 154l112 10q19 -127 128 -127q59 0 95 35.5t36 114.5q0 73 -43.5 108t-113.5 35h-61v76l156 165h-286v94h442v-88l-153 -162q69 -9 127 -68t58 -152q0 -118 -69 -184.5t-188 -66.5z" />
<glyph horiz-adv-x="632" d="M561 -7h-492v106q125 105 179.5 157t90 92.5t55 78.5t19.5 84q0 50 -30.5 78.5t-79.5 28.5q-48 0 -78.5 -21.5t-61.5 -71.5l-87 63q63 126 231 126q107 0 169.5 -53t62.5 -145q0 -46 -13.5 -86.5t-41.5 -78t-75 -84.5t-198 -176h350v-98z" />
</font>
</defs>
</svg>
