<?xml version="1.0" standalone="no"?>
<!DOCTYPE svg PUBLIC "-//W3C//DTD SVG 1.1//EN" "http://www.w3.org/Graphics/SVG/1.1/DTD/svg11.dtd" >
<svg xmlns="http://www.w3.org/2000/svg" xmlns:xlink="http://www.w3.org/1999/xlink" version="1.1">
<metadata></metadata>
<defs>
<font id="cadmanbold" horiz-adv-x="1200" >
<font-face units-per-em="2048" ascent="1638" descent="-410" />
<missing-glyph horiz-adv-x="650" />
<glyph unicode="&#xfb01;" horiz-adv-x="1456" d="M237 -340v1164h-133v225h133v132q0 374 409 374q91 0 203 -31q-56 -86 -56 -173q0 -22 6 -74q-82 27 -149 27q-133 0 -133 -143v-112h753v-1049h-280v824h-473v-1094zM1120 1182q-70 0 -119.5 49.5t-49.5 119.5q0 69 49.5 118.5t119.5 49.5q69 0 118.5 -49.5t49.5 -118.5 q0 -70 -49.5 -119.5t-118.5 -49.5z" />
<glyph unicode="&#xfb03;" horiz-adv-x="2236" d="M237 -380v1204h-133v225h133v82q0 379 409 379q91 0 193 -35l-50 -245q-72 24 -139 24q-133 0 -133 -143v-62h500v112q0 394 409 394q91 0 203 -31q-56 -86 -56 -173q0 -22 6 -74q-82 27 -149 27q-133 0 -133 -143v-112h753v-1049h-280v824h-473v-1074l-280 -70v1144 h-500v-1134zM1900 1182q-70 0 -119.5 49.5t-49.5 119.5q0 69 49.5 118.5t119.5 49.5q69 0 118.5 -49.5t49.5 -118.5q0 -70 -49.5 -119.5t-118.5 -49.5z" />
<glyph horiz-adv-x="0" />
<glyph horiz-adv-x="682" />
<glyph unicode=" "  horiz-adv-x="650" />
<glyph unicode="&#x09;" horiz-adv-x="650" />
<glyph unicode="&#xa0;" horiz-adv-x="650" />
<glyph unicode="!" horiz-adv-x="599" d="M295 -20q-70 0 -119.5 49.5t-49.5 119.5q0 69 49.5 118.5t119.5 49.5q69 0 118.5 -49.5t49.5 -118.5q0 -70 -49.5 -119.5t-118.5 -49.5zM404 440h-215l-34 944h280z" />
<glyph unicode="&#x22;" horiz-adv-x="863" d="M739 772h-185l-45 612h275zM299 772h-185l-45 612h275z" />
<glyph unicode="#" horiz-adv-x="1479" d="M839 0h-180l137 462h-290l-137 -462h-180l137 462h-239v159h285l77 261h-362v159h409l135 459h180l-135 -459h290l135 459h180l-135 -459h231v-159h-278l-77 -261h355v-159h-401zM842 621l77 261h-290l-77 -261h290z" />
<glyph unicode="$" horiz-adv-x="1223" d="M693 -133h-180v192q-310 32 -438 232l205 139q37 -49 99 -94t134 -53v315q-164 41 -246.5 86.5t-125 112.5t-42.5 159q0 160 111 247t303 104v193h180v-193q144 -11 247.5 -69t162.5 -155l-193 -137q-34 47 -90.5 87t-126.5 50v-280q191 -50 269 -96t118.5 -112.5 t40.5 -164.5q0 -166 -111.5 -258t-316.5 -109v-196zM513 850v237q-65 -4 -106 -32.5t-41 -83.5q0 -39 30.5 -68t116.5 -53zM693 281q74 8 118 41.5t44 85.5q0 51 -34.5 83.5t-127.5 61.5v-272z" />
<glyph unicode="%" horiz-adv-x="1373" d="M331 785q-268 0 -268 283q0 286 268 286q266 0 266 -286q0 -283 -266 -283zM331 912q52 0 75 35.5t23 120.5q0 86 -22.5 122.5t-75.5 36.5q-54 0 -77 -37.5t-23 -121.5t23 -120t77 -36zM374 -100h-173l780 1600h173zM1031 -15q-268 0 -268 283q0 286 268 286 q266 0 266 -286q0 -283 -266 -283zM1031 112q52 0 75 35.5t23 120.5q0 86 -22.5 122.5t-75.5 36.5q-54 0 -77 -37.5t-23 -121.5t23 -120t77 -36z" />
<glyph unicode="&#x26;" horiz-adv-x="1388" d="M594 -29q-237 0 -374.5 109t-137.5 293q0 131 57.5 217t231.5 194q-59 72 -101 148t-42 153q0 160 106 244t303 84q165 0 271 -74t106 -209q0 -72 -31 -136t-85 -120t-165 -129l263 -309q64 87 102 230l227 -52q-51 -211 -176 -356l217 -258h-327l-72 86 q-72 -49 -158 -82t-215 -33zM584 922q65 43 103.5 77.5t52.5 61t14 67.5t-34 68t-89 27q-70 0 -105.5 -34t-35.5 -93q0 -41 23.5 -81t70.5 -93zM598 180q129 0 226 76l-308 356q-94 -59 -131 -114.5t-37 -126.5q0 -90 67 -140.5t183 -50.5z" />
<glyph unicode="'" horiz-adv-x="423" d="M301 772h-185l-45 612h275z" />
<glyph unicode="(" horiz-adv-x="744" d="M832 -395h-293q-409 433 -409 956q0 528 409 961h293q-217 -205 -337 -438.5t-120 -522.5t120 -520t337 -436z" />
<glyph unicode=")" horiz-adv-x="759" d="M212 -395h-293q217 205 337 436t120 520t-120 522.5t-337 438.5h293q409 -433 409 -961q0 -523 -409 -956z" />
<glyph unicode="*" horiz-adv-x="928" d="M552 733h-174l12 260l-260 -159l-90 149l282 141l-282 146l90 149l258 -159l-10 260h174l-13 -260l261 159l90 -151l-283 -142l283 -143l-90 -149l-259 159z" />
<glyph unicode="+" horiz-adv-x="912" d="M547 275h-202v349h-319v178h319v350h202v-350h319v-178h-319v-349z" />
<glyph unicode="," horiz-adv-x="406" d="M80 -359l-64 95q171 101 179 236q-92 0 -142 57q-43 49 -43 118q0 70 43 122q49 61 142 61q83 0 134 -62q48 -59 48 -146q0 -314 -297 -481z" />
<glyph unicode="-" horiz-adv-x="680" d="M628 399h-623v254h623v-254z" />
<glyph unicode="." horiz-adv-x="406" d="M193 -34q-36 0 -69.5 14t-59 39.5t-39.5 59t-14 69.5t14 69.5t39.5 59t59 39.5t69.5 14t69.5 -14t59 -39.5t39.5 -59t14 -69.5t-14 -69.5t-39.5 -59t-59 -39.5t-69.5 -14z" />
<glyph unicode="/" horiz-adv-x="836" d="M190 -299h-254l690 1819h256z" />
<glyph unicode="0" d="M599 -31q-539 0 -539 721q0 723 539 723q541 0 541 -721q0 -723 -541 -723zM599 211q250 0 250 481q0 479 -250 479q-248 0 -248 -481q0 -479 248 -479zM600 573q-49 0 -83.5 34.5t-34.5 83.5t34.5 84t83.5 35t84 -35t35 -84t-35 -83.5t-84 -34.5z" />
<glyph unicode="1" d="M909 0h-283v979q-123 -95 -336 -102v244q320 14 387 263h232v-1384z" />
<glyph unicode="2" d="M1099 0h-994v236q163 137 297 262t207 207.5t113.5 158t40.5 158.5q0 65 -49 103t-135 38q-93 0 -152 -43t-98 -102l-228 160q85 127 201.5 181t290.5 54q214 0 337.5 -100t123.5 -281q0 -133 -48.5 -233.5t-138 -195t-223 -208.5t-164.5 -137h619v-258z" />
<glyph unicode="3" d="M586 -31q-405 0 -492 374l276 47q38 -182 203 -182q234 0 234 228q0 115 -68.5 178.5t-201.5 63.5h-99v165l283 298h-544v243h878v-209l-302 -332q353 -64 353 -420q0 -178 -137 -316t-383 -138z" />
<glyph unicode="4" d="M968 0h-270v229h-635v260l616 895h289v-913h170v-242h-170v-229zM698 471v543l-360 -543h360z" />
<glyph unicode="5" d="M564 -29q-319 0 -470 228l225 159q77 -135 241 -135q256 0 256 238q0 100 -62.5 157.5t-191.5 57.5q-138 0 -209 -74h-197l82 782h809v-258h-584l-28 -243q95 39 211 39q222 0 340.5 -119t118.5 -348q0 -226 -134.5 -355t-406.5 -129z" />
<glyph unicode="6" d="M613 -29q-250 0 -386.5 155.5t-136.5 481.5q0 392 167 598.5t439 206.5q217 0 325 -93l-160 -217q-79 68 -195 68q-115 0 -186.5 -92t-88.5 -262q117 96 295 96q195 0 309.5 -119.5t114.5 -344.5q0 -222 -134 -350t-363 -128zM615 213q213 0 213 229q0 106 -59 169 t-158 63q-128 0 -228 -76q0 -385 232 -385z" />
<glyph unicode="7" d="M589 0h-316l510 1126h-592v258h918v-172z" />
<glyph unicode="8" d="M601 -29q-498 0 -498 404q0 233 256 360q-223 115 -223 303q0 375 465 375q463 0 463 -373q0 -172 -249 -307q282 -120 282 -348q0 -414 -496 -414zM601 836q187 89 187 200q0 156 -187 156q-189 0 -189 -150q0 -115 189 -206zM601 195q214 0 214 180q0 156 -214 256 q-215 -90 -215 -258q0 -178 215 -178z" />
<glyph unicode="9" d="M630 0h-332q292 279 450 556q-95 -72 -209 -72q-193 0 -304 133t-111 333q0 198 125 330t335 132q233 0 362.5 -137.5t129.5 -379.5q0 -452 -446 -895zM588 700q94 0 150.5 62t56.5 171q0 120 -58.5 184.5t-148.5 64.5q-87 0 -137 -63t-50 -179q0 -118 49 -179t138 -61z " />
<glyph unicode=":" horiz-adv-x="536" d="M275 644q-36 0 -69.5 14t-59 39.5t-39.5 59t-14 69.5t14 69.5t39.5 59t59 39.5t69.5 14t69.5 -14t59 -39.5t39.5 -59t14 -69.5t-14 -69.5t-39.5 -59t-59 -39.5t-69.5 -14zM275 -34q-36 0 -69.5 14t-59 39.5t-39.5 59t-14 69.5t14 69.5t39.5 59t59 39.5t69.5 14t69.5 -14 t59 -39.5t39.5 -59t14 -69.5t-14 -69.5t-39.5 -59t-59 -39.5t-69.5 -14z" />
<glyph unicode=";" horiz-adv-x="554" d="M277 644q-36 0 -69.5 14t-59 39.5t-39.5 59t-14 69.5t14 69.5t39.5 59t59 39.5t69.5 14t69.5 -14t59 -39.5t39.5 -59t14 -69.5t-14 -69.5t-39.5 -59t-59 -39.5t-69.5 -14zM161 -359l-64 95q171 101 179 236q-92 0 -142 57q-43 49 -43 118q0 70 43 122q49 61 142 61 q83 0 134 -62q48 -59 48 -146q0 -314 -297 -481z" />
<glyph unicode="&#x3c;" horiz-adv-x="1025" d="M925 180l-825 421v154l825 417v-206l-582 -288l582 -292v-206z" />
<glyph unicode="=" horiz-adv-x="1056" d="M957 778h-880v170h880v-170zM957 446h-880v170h880v-170z" />
<glyph unicode="&#x3e;" horiz-adv-x="1025" d="M100 180v206l582 292l-582 288v206l825 -417v-154z" />
<glyph unicode="?" horiz-adv-x="1003" d="M412 -20q-70 0 -119.5 49.5t-49.5 119.5q0 69 49.5 118.5t119.5 49.5q69 0 118.5 -49.5t49.5 -118.5q0 -70 -49.5 -119.5t-118.5 -49.5zM544 399h-272q0 311 188.5 398t188.5 221q0 153 -197 153q-90 0 -144.5 -35.5t-99.5 -109.5l-233 139q69 123 184 185.5t291 62.5 q238 0 363.5 -98.5t125.5 -276.5q0 -219 -197.5 -339.5t-197.5 -299.5z" />
<glyph unicode="@" horiz-adv-x="1900" d="M939 -151q-391 0 -609.5 205.5t-218.5 572.5q0 254 111.5 461t318 325t474.5 118q227 0 405 -92.5t274.5 -263.5t96.5 -394q0 -148 -47.5 -271t-133.5 -193t-201 -70q-76 0 -134.5 36.5t-84.5 96.5h-16q-111 -133 -283 -133q-182 0 -287 109.5t-105 300.5 q0 217 138 349.5t360 132.5q88 0 194.5 -17t175.5 -41q-24 -451 -24 -503q0 -143 79 -143q66 0 105 96.5t39 251.5q0 166 -69 293t-194 194t-286 67q-207 0 -360.5 -85.5t-235.5 -246.5t-82 -372q0 -284 152 -436t440 -152q109 0 239.5 24.5t257.5 70.5v-197 q-220 -94 -489 -94zM914 435q93 0 141.5 65.5t58.5 212.5l13 227q-52 12 -118 12q-128 0 -199.5 -80.5t-71.5 -219.5q0 -217 176 -217z" />
<glyph unicode="A" horiz-adv-x="1326" d="M1303 0h-285l-92 281h-533l-90 -281h-284l458 1384h367zM846 528l-186 572l-187 -572h373z" />
<glyph unicode="B" horiz-adv-x="1368" d="M718 0h-520v1384h489q266 0 381 -77.5t115 -245.5q0 -264 -258 -316q174 -24 253.5 -110t79.5 -234q0 -208 -143 -304.5t-397 -96.5zM652 842q125 0 185.5 35t60.5 122q0 79 -58 109.5t-180 30.5h-180v-297h172zM623 250q165 0 227.5 16t91 54t28.5 106q0 93 -63 131.5 t-236 38.5h-191v-346h143z" />
<glyph unicode="C" horiz-adv-x="1344" d="M758 -29q-643 0 -643 721t633 721q376 0 526 -248l-219 -170q-48 72 -88 104t-91 48t-122 16q-170 0 -259 -108.5t-89 -362.5q0 -237 83.5 -354t266.5 -117q123 0 191.5 47t124.5 125l223 -164q-89 -133 -218.5 -195.5t-318.5 -62.5z" />
<glyph unicode="D" horiz-adv-x="1430" d="M620 0h-422v1384h418q245 0 389.5 -71t213.5 -221.5t69 -399.5q0 -250 -69 -402t-208 -221t-391 -69zM589 258q167 0 251.5 38.5t120.5 128.5t36 269q0 181 -35.5 268.5t-120.5 125.5t-252 38h-108v-868h108z" />
<glyph unicode="E" horiz-adv-x="1188" d="M1097 0h-899v1384h899l-44 -249h-573v-295h520v-250h-520v-332h575z" />
<glyph unicode="F" horiz-adv-x="1129" d="M480 0h-282v1384h890l-45 -258h-563v-309h510v-249h-510v-568z" />
<glyph unicode="G" horiz-adv-x="1456" d="M765 -29q-324 0 -488 169t-164 540q0 733 645 733q188 0 328 -63t213 -185l-217 -170q-53 86 -129 127t-191 41q-189 0 -273.5 -121.5t-84.5 -361.5q0 -238 83.5 -348.5t268.5 -110.5q140 0 258 58v215h-270v249h553v-612q-96 -72 -238.5 -116t-293.5 -44z" />
<glyph unicode="H" horiz-adv-x="1436" d="M1308 0h-283v588h-545v-588h-282v1384h282v-538h545v538h283v-1384z" />
<glyph unicode="I" horiz-adv-x="904" d="M789 0h-668v217h193v950h-193v217h668v-217h-192v-950h192v-217z" />
<glyph unicode="J" horiz-adv-x="951" d="M303 -31q-161 0 -313 54l86 251q103 -55 213 -55q168 0 168 234v713h-268v218h551v-1007q0 -219 -110.5 -313.5t-326.5 -94.5z" />
<glyph unicode="K" horiz-adv-x="1315" d="M468 808l468 576h318l-582 -653l658 -731h-350l-512 621v-621h-270v1384h270v-576z" />
<glyph unicode="L" horiz-adv-x="1123" d="M1062 0h-864v1384h282v-1126h582v-258z" />
<glyph unicode="M" horiz-adv-x="1692" d="M1566 0h-273v930l-332 -578h-163l-328 578v-930h-272v1384h325l361 -657l364 657h318v-1384z" />
<glyph unicode="N" horiz-adv-x="1436" d="M1310 0h-332l-504 989v-989h-276v1384h366l469 -933v933h277v-1384z" />
<glyph unicode="O" horiz-adv-x="1429" d="M723 -29q-317 0 -461.5 179.5t-144.5 541.5q0 364 144.5 542.5t461.5 178.5q319 0 462.5 -178.5t143.5 -542.5q0 -381 -152.5 -551t-453.5 -170zM723 221q176 0 245.5 102.5t69.5 368.5t-69.5 368.5t-245.5 102.5t-245.5 -102.5t-69.5 -368.5t70.5 -368.5t244.5 -102.5z " />
<glyph unicode="P" horiz-adv-x="1318" d="M480 0h-282v1384h520q235 0 363 -109.5t128 -354.5q0 -250 -117.5 -371t-381.5 -121h-230v-428zM595 674q155 0 214.5 21.5t84 72.5t24.5 150q0 117 -64.5 169t-232.5 52h-141v-465h115z" />
<glyph unicode="Q" horiz-adv-x="1429" d="M723 221q16 0 31 1l-198 310h290l125 -196q67 106 67 356q0 266 -69.5 368.5t-245.5 102.5t-245.5 -102.5t-69.5 -368.5t70.5 -368.5t244.5 -102.5zM1319 -208h-290l-126 197q-82 -18 -180 -18q-317 0 -461.5 179.5t-144.5 541.5q0 364 144.5 542.5t461.5 178.5 q319 0 462.5 -178.5t143.5 -542.5q0 -381 -157 -551q-22 -25 -47 -46z" />
<glyph unicode="R" horiz-adv-x="1365" d="M1299 0h-323l-353 524h-143v-524h-282v1384h503q267 0 390.5 -96t123.5 -315q0 -177 -74.5 -282t-211.5 -134zM687 770q95 0 146 18t73.5 56t22.5 117q0 106 -53.5 142t-176.5 36h-219v-369h207z" />
<glyph unicode="S" horiz-adv-x="1276" d="M627 -29q-184 0 -319.5 61t-220.5 197l217 166q48 -68 91 -102t102 -53t136 -19q115 0 179.5 39.5t64.5 120.5q0 46 -22.5 77t-67.5 53.5t-154.5 51.5t-205 58.5t-165 76.5t-109.5 118t-40 179q0 197 133 307.5t381 110.5q359 0 508 -246l-215 -168q-57 88 -128 126 t-169 38t-159.5 -35.5t-61.5 -111.5q0 -67 64 -102.5t223 -71.5q88 -23 174 -49.5t153.5 -73.5t108.5 -123t41 -195q0 -208 -136.5 -319t-402.5 -111z" />
<glyph unicode="T" horiz-adv-x="1222" d="M781 0h-282v1126h-426v258h1134v-258h-426v-1126z" />
<glyph unicode="U" horiz-adv-x="1394" d="M737 -31q-302 0 -435.5 140.5t-133.5 468.5v806h282v-786q0 -141 27 -222t86 -119t172 -38q161 0 225 85.5t64 289.5v790h282v-806q0 -325 -132 -467t-437 -142z" />
<glyph unicode="V" horiz-adv-x="1240" d="M797 -10h-333l-426 1394h286l312 -1032l311 1032h281z" />
<glyph unicode="W" horiz-adv-x="1839" d="M1441 -10h-289l-232 925l-233 -925h-285l-350 1394h281l221 -903l229 903h279l231 -909l227 909h279z" />
<glyph unicode="X" horiz-adv-x="1297" d="M1262 0h-317l-297 477l-301 -477h-311l463 694l-451 690h321l287 -466l297 466h311l-454 -684z" />
<glyph unicode="Y" horiz-adv-x="1119" d="M725 0h-284v522l-433 862h308l270 -579l276 579h297l-434 -856v-528z" />
<glyph unicode="Z" horiz-adv-x="1203" d="M1102 0h-989v238l635 888h-605v258h942v-227l-641 -899h658v-258z" />
<glyph unicode="[" horiz-adv-x="764" d="M702 -395h-548v1884h548v-207h-309v-1470h309v-207z" />
<glyph unicode="\" horiz-adv-x="1036" d="M1049 -299h-254l-693 1819h256z" />
<glyph unicode="]" horiz-adv-x="764" d="M610 -395h-549v207h310v1470h-310v207h549v-1884z" />
<glyph unicode="^" horiz-adv-x="1300" d="M1178 594h-220l-307 557l-309 -557h-219l434 790h186z" />
<glyph unicode="_" horiz-adv-x="1024" d="M1034 -256h-1044v102h1044v-102z" />
<glyph unicode="`" horiz-adv-x="801" d="M679 1205h-202q-63 49 -185 158t-190 183v23h342q63 -112 235 -334v-30z" />
<glyph unicode="a" horiz-adv-x="1310" d="M514 219q99 0 209.5 179.5t110.5 352.5v68q-84 21 -165 21q-147 0 -221 -119t-74 -299q0 -203 140 -203zM434 -26q-340 0 -340 448q0 272 166 460t451 188q216 0 409 -46v-479q0 -351 65 -545h-266q-55 143 -55 340q-158 -366 -430 -366z" />
<glyph unicode="b" horiz-adv-x="1299" d="M699 -26q-208 0 -515 93v1533h280v-730q158 200 374 200q147 0 241.5 -145t94.5 -369q0 -265 -129 -423.5t-346 -158.5zM654 196q108 0 179 89t71 235q0 139 -45 218.5t-127 79.5q-156 0 -268 -216v-355q109 -51 190 -51z" />
<glyph unicode="c" horiz-adv-x="1032" d="M575 -26q-221 0 -354.5 147t-133.5 383q0 251 146.5 408.5t375.5 157.5q175 0 310 -73l-44 -259q-118 95 -261 95q-107 0 -175 -84q-72 -88 -72 -234q0 -137 67.5 -220.5t179.5 -83.5q145 0 285 112l30 -251q-155 -98 -354 -98z" />
<glyph unicode="d" horiz-adv-x="1306" d="M565 206q147 0 265 206v347q-118 64 -245 64q-89 0 -149.5 -92t-60.5 -227q0 -298 190 -298zM510 -26q-185 0 -300 136.5t-115 362.5q0 247 134 422t356 175q102 0 245 -87v617h280v-1055q0 -342 75 -545h-275q-41 86 -55 180q-140 -206 -345 -206z" />
<glyph unicode="e" horiz-adv-x="1142" d="M586 -26q-209 0 -354 142t-145 393q0 257 134.5 409t364.5 152q420 0 420 -532l1 -75h-646q17 -252 250 -252q200 0 360 104l21 -238q-177 -103 -406 -103zM752 648q0 206 -180 206q-178 0 -205 -206h385z" />
<glyph unicode="f" horiz-adv-x="827" d="M247 -340v1164h-133v225h133v102q0 379 409 379q91 0 193 -35l-50 -245q-72 24 -149 24q-123 0 -123 -133v-92h213v-225h-213v-1094z" />
<glyph unicode="g" horiz-adv-x="1268" d="M558 240q58 0 123 50t112 138v356q-81 41 -155 41q-125 0 -189 -103q-56 -89 -56 -223q0 -259 165 -259zM573 -484q-202 0 -405 134l85 215q160 -118 290 -118q250 0 250 243v190q-158 -185 -325 -185q-355 0 -355 473q0 258 151.5 430t409.5 172q169 0 399 -77v-947 q0 -530 -500 -530z" />
<glyph unicode="h" horiz-adv-x="1340" d="M1156 0h-280v566q0 252 -155 252q-162 0 -260 -221v-597h-280v1600h280v-725q160 195 390 195q305 0 305 -427v-643z" />
<glyph unicode="i" horiz-adv-x="720" d="M428 1168q-36 0 -69.5 14t-59 39.5t-39.5 59t-14 69.5t14 69.5t39.5 59t59 39.5t69.5 14t69.5 -14t59 -39.5t39.5 -59t14 -69.5t-14 -69.5t-39.5 -59t-59 -39.5t-69.5 -14zM570 0h-280v824h-130v226h410v-1050z" />
<glyph unicode="j" horiz-adv-x="755" d="M400 1168q-36 0 -69.5 14t-59 39.5t-39.5 59t-14 69.5t14 69.5t39.5 59t59 39.5t69.5 14t69.5 -14t59 -39.5t39.5 -59t14 -69.5t-14 -69.5t-39.5 -59t-59 -39.5t-69.5 -14zM201 -495q-133 0 -232 40l56 224q73 -29 141 -29q125 0 125 207v877h-130v226h410v-1195 q0 -350 -370 -350z" />
<glyph unicode="k" horiz-adv-x="1192" d="M1174 0h-367l-346 484v-484h-280v1600h280v-936l328 386h355l-478 -460z" />
<glyph unicode="l" horiz-adv-x="747" d="M511 -26q-332 0 -332 404v1222h280v-1216q0 -150 113 -150q48 0 91 12l39 -246q-104 -26 -191 -26z" />
<glyph unicode="m" horiz-adv-x="1806" d="M1619 0h-280v617q0 201 -105 201q-125 0 -200 -139v-679h-280v617q0 201 -105 201q-127 0 -200 -159v-659h-280v633q0 249 -50 417h260q37 -73 47 -150q133 170 338 170q182 0 246 -173q143 173 339 173q270 0 270 -341v-729z" />
<glyph unicode="n" horiz-adv-x="1328" d="M1144 0h-280v566q0 252 -145 252q-172 0 -270 -221v-597h-280v633q0 259 -50 417h275q28 -78 40 -191q167 211 385 211q325 0 325 -427v-643z" />
<glyph unicode="o" horiz-adv-x="1247" d="M613 -31q-507 0 -507 553q0 557 507 557q505 0 505 -557q0 -553 -505 -553zM613 195q125 0 175 78.5t50 248.5q0 173 -49 252.5t-176 79.5q-126 0 -177 -81.5t-51 -250.5q0 -168 50.5 -247.5t177.5 -79.5z" />
<glyph unicode="p" horiz-adv-x="1308" d="M685 212q96 0 162 82q70 88 70 226q0 142 -51.5 223.5t-141.5 81.5q-150 0 -247 -223v-293q107 -97 208 -97zM477 -504h-280v1003q0 218 -8 328q-10 142 -42 223h275q27 -59 40 -175q158 195 363 195q167 0 269.5 -146.5t102.5 -372.5q0 -262 -127 -419.5t-319 -157.5 q-152 0 -274 93v-571z" />
<glyph unicode="q" horiz-adv-x="1300" d="M583 209q113 0 210 170v413q-71 33 -135 33q-139 0 -212 -103q-63 -88 -63 -223q0 -144 61 -222q53 -68 139 -68zM1073 -119q125 95 298 102v-224q-280 -14 -347 -263h-232v626q-141 -148 -289 -148q-169 0 -284.5 130.5t-115.5 343.5q0 278 141.5 450t378.5 172 q206 0 450 -77v-1112z" />
<glyph unicode="r" horiz-adv-x="1084" d="M449 0h-280v633q0 259 -50 417h275q27 -83 40 -201q133 221 315 221q260 0 260 -386l-223 -36q-11 156 -125 156q-130 0 -212 -289v-515z" />
<glyph unicode="s" horiz-adv-x="1075" d="M537 -31q-319 0 -438 163l182 155q71 -97 240 -97q174 0 174 107q0 97 -292 158t-292 305q0 139 107 229q106 90 313 90q281 0 414 -180l-193 -147q-84 106 -225 106q-152 0 -152 -98q0 -91 292 -154t292 -307q0 -154 -114 -242t-308 -88z" />
<glyph unicode="t" horiz-adv-x="892" d="M605 -31q-364 0 -364 348v517h-133v215h133v215l280 120v-335h244v-215h-244v-474q0 -168 117 -168q71 0 141 29l45 -221q-104 -31 -219 -31z" />
<glyph unicode="u" horiz-adv-x="1261" d="M652 -31q-489 0 -489 479v601h280v-571q0 -294 209 -294t209 290v575h280v-601q0 -479 -489 -479z" />
<glyph unicode="v" horiz-adv-x="1145" d="M690 -10h-244q-208 571 -420 1060h312l234 -752l230 752h308q-222 -526 -420 -1060z" />
<glyph unicode="w" horiz-adv-x="1619" d="M1261 -10h-290l-170 725l-170 -725h-290l-290 1060h288l157 -757l185 757h240l185 -757l157 757h288z" />
<glyph unicode="x" horiz-adv-x="1189" d="M1156 0h-330l-248 344l-222 -344h-305q198 268 389 536q-197 280 -379 514h330l235 -331l210 331h305q-197 -264 -378 -523q210 -301 393 -527z" />
<glyph unicode="y" horiz-adv-x="1148" d="M278 -484q-161 0 -275 88l70 224q91 -77 185 -77q112 0 200 230q-265 726 -425 1069h313l240 -749l204 749h313q-143 -342 -385 -1050q-165 -484 -440 -484z" />
<glyph unicode="z" horiz-adv-x="1075" d="M978 0h-880v164l520 664h-490v222h835v-149l-530 -680h545v-221z" />
<glyph unicode="{" horiz-adv-x="915" d="M854 -395h-70q-221 0 -317 103.5t-96 301.5v142q0 141 -59.5 221t-170.5 80h-39v221h39q111 0 170.5 77.5t59.5 223.5v139q0 197 95 301.5t318 104.5h70v-207h-41q-117 0 -160 -48t-43 -165v-166q0 -137 -64.5 -231.5t-174.5 -141.5q108 -39 173.5 -137t65.5 -234v-165 q0 -117 43 -165t160 -48h41v-207z" />
<glyph unicode="|" horiz-adv-x="801" d="M520 -395h-239v1915h239v-1915z" />
<glyph unicode="}" horiz-adv-x="915" d="M131 -395h-70v207h41q117 0 160 48t43 165v165q0 136 65.5 234t174.5 137q-111 47 -175.5 141.5t-64.5 231.5v166q0 117 -43 165t-160 48h-41v207h70q223 0 318.5 -104.5t95.5 -301.5v-139q0 -146 59.5 -223.5t169.5 -77.5h39v-221h-39q-110 0 -169.5 -80t-59.5 -221 v-142q0 -198 -96.5 -301.5t-317.5 -103.5z" />
<glyph unicode="~" horiz-adv-x="1386" d="M936 569q-72 0 -137.5 24.5t-126 54.5t-114.5 54.5t-101 24.5q-92 0 -170 -45t-144 -102v229q56 47 106 73t95 38t117 12q65 0 128.5 -24.5t122 -54.5t114 -54.5t106.5 -24.5q80 0 154.5 38t156.5 110v-222q-67 -53 -141 -92t-166 -39z" />
<glyph unicode="&#xa1;" horiz-adv-x="599" d="M300 1349q69 0 118.5 -49.5t49.5 -118.5q0 -70 -49.5 -119.5t-118.5 -49.5q-70 0 -119.5 49.5t-49.5 119.5q0 69 49.5 118.5t119.5 49.5zM190 889h215l34 -944h-280z" />
<glyph unicode="&#xa2;" horiz-adv-x="1059" d="M317 -260l60 266q-152 57 -218.5 189.5t-66.5 322.5q0 265 126 413t378 148h18l48 209h180l-54 -237q145 -49 209 -152l-192 -137q-27 35 -66 61l-139 -628h12q60 0 110 17t95 75l195 -137q-60 -89 -158 -135t-248 -46l-55 2l-51 -231h-183zM358 522q0 -196 74 -270 l133 600q-107 -9 -157 -86t-50 -244z" />
<glyph unicode="&#xa3;" d="M100 0v213q65 13 120.5 98t55.5 263h-151v200h137q0 28 -26.5 105t-26.5 147q0 387 482 387q296 0 411 -229l-217 -131q-72 143 -214 143q-194 0 -194 -189q0 -53 23 -127.5t26 -105.5h385v-200h-370q0 -233 -117 -334h674v-240h-998z" />
<glyph unicode="&#xa4;" horiz-adv-x="1356" d="M676 498q118 0 202.5 84.5t84.5 203.5q0 118 -84.5 202.5t-202.5 84.5q-119 0 -203.5 -84.5t-84.5 -202.5q0 -119 84.5 -203.5t203.5 -84.5zM1131 209l-202 201q-115 -77 -253 -77q-139 0 -254 77l-199 -201l-123 123l200 202q-77 114 -77 252q0 136 75 250l-198 202 l123 123l199 -201q115 78 254 78t254 -78l201 201l125 -123l-203 -203q75 -114 75 -249q0 -138 -76 -252l204 -202z" />
<glyph unicode="&#xa5;" horiz-adv-x="1119" d="M688 0h-284v522l-433 862h308l270 -579l276 579h297l-434 -856v-528zM967 510h-840v180h840v-180zM967 195h-840v180h840v-180z" />
<glyph unicode="&#xa6;" horiz-adv-x="400" d="M300 800h-200v800h200v-800zM300 -300h-200v800h200v-800z" />
<glyph unicode="&#xa7;" horiz-adv-x="995" d="M455 -140q-203 0 -349 79l91 176q128 -67 258 -67q194 0 194 127q0 99 -264 196t-264 314q0 159 133 260q-133 84 -133 243q0 141 111.5 220t293.5 79q170 0 363 -84l-82 -190q-149 83 -287 83q-155 0 -155 -114q0 -89 265 -185t265 -315q0 -177 -125 -270 q125 -75 125 -229q0 -148 -119.5 -235.5t-320.5 -87.5zM590 500q78 67 78 156q0 138 -234 201q-90 -63 -90 -150q0 -117 246 -207z" />
<glyph unicode="&#xa8;" horiz-adv-x="933" d="M213 1138q-36 0 -69.5 14t-59 39.5t-39.5 59t-14 69.5t14 69.5t39.5 59t59 39.5t69.5 14t69.5 -14t59 -39.5t39.5 -59t14 -69.5t-14 -69.5t-39.5 -59t-59 -39.5t-69.5 -14zM683 1138q-36 0 -69.5 14t-59 39.5t-39.5 59t-14 69.5t14 69.5t39.5 59t59 39.5t69.5 14 t69.5 -14t59 -39.5t39.5 -59t14 -69.5t-14 -69.5t-39.5 -59t-59 -39.5t-69.5 -14z" />
<glyph unicode="&#xa9;" horiz-adv-x="1827" d="M906 -197q-219 0 -406 108.5t-293 295t-106 403.5t106 402.5t293.5 293t405.5 107.5q217 0 403 -106.5t293 -292.5t107 -404q0 -217 -105.5 -403t-292.5 -295t-405 -109zM906 -41q173 0 320.5 85.5t235 237t87.5 328.5q0 173 -86 323.5t-235.5 237t-321.5 86.5 q-174 0 -323 -87t-234.5 -237.5t-85.5 -322.5q0 -176 87.5 -328t235 -237.5t320.5 -85.5zM931 170q-422 0 -422 442q0 217 100.5 331t317.5 114q133 0 209.5 -51.5t134.5 -143.5l-176 -100q-33 47 -67 78.5t-103 31.5q-109 0 -155 -59t-46 -201q0 -143 48 -200.5t155 -57.5 q65 0 104 29t76 78l180 -96q-71 -88 -118.5 -123.5t-106 -53.5t-131.5 -18z" />
<glyph unicode="&#xaa;" horiz-adv-x="797" d="M267 1014q49 0 97.5 86t48.5 173v29q-31 8 -68 8q-64 0 -96 -61q-28 -51 -28 -141q0 -94 46 -94zM227 877q-174 0 -174 231q0 137 80.5 234t232.5 97q110 0 218 -26v-243q0 -176 35 -280h-161q-30 78 -30 112q-54 -125 -201 -125zM643 640h-594v182h594v-182z" />
<glyph unicode="&#xab;" horiz-adv-x="1176" d="M1210 53h-299l-420 471l420 471h299l-420 -471zM760 53h-299l-420 471l420 471h299l-420 -471z" />
<glyph unicode="&#xac;" horiz-adv-x="1099" d="M999 240h-197v299h-702v161h899v-460z" />
<glyph unicode="&#xad;" horiz-adv-x="680" d="M589 399h-623v254h623v-254z" />
<glyph unicode="&#xae;" horiz-adv-x="1802" d="M901 -197q-219 0 -406 108.5t-293 295t-106 403.5t106 402.5t293.5 293t405.5 107.5q217 0 403 -106.5t293 -292.5t107 -404q0 -217 -105.5 -403t-292.5 -295t-405 -109zM901 -41q173 0 320.5 85.5t235 237t87.5 328.5q0 173 -86 323.5t-235.5 237t-321.5 86.5 q-174 0 -323 -87t-234.5 -237.5t-85.5 -322.5q0 -176 87.5 -328t235 -237.5t320.5 -85.5zM1329 201h-250l-211 307h-75v-307h-205v850h305q178 0 260 -63t82 -197q0 -185 -145 -246zM889 682q54 0 81 7t39.5 25.5t12.5 65.5t-21.5 70.5t-103.5 23.5h-104v-192h96z" />
<glyph unicode="&#xaf;" horiz-adv-x="794" d="M694 1240h-594v182h594v-182z" />
<glyph unicode="&#xb0;" horiz-adv-x="688" d="M324 972q-109 0 -186.5 77.5t-77.5 186.5t77.5 186.5t186.5 77.5t186.5 -77.5t77.5 -186.5t-77.5 -186.5t-186.5 -77.5zM324 1092q60 0 102.5 42t42.5 102t-42.5 102.5t-102.5 42.5t-102 -42.5t-42 -102.5t42 -102t102 -42z" />
<glyph unicode="&#xb1;" horiz-adv-x="920" d="M554 315h-202v349h-319v178h319v350h202v-350h319v-178h-319v-349zM873 -1h-840v180h840v-180z" />
<glyph unicode="&#xb2;" horiz-adv-x="631" d="M577 793h-525v126q257 216 309 314q20 37 20 78q0 31 -21 47.5t-57 16.5q-40 0 -66.5 -19.5t-53.5 -61.5l-134 94q46 68 108 97t153 29q114 0 179.5 -53t65.5 -145q0 -67 -25 -117.5t-70 -98.5t-112.5 -105.5t-68.5 -58.5h298v-143z" />
<glyph unicode="&#xb3;" horiz-adv-x="631" d="M302 778q-215 0 -262 198l166 28q19 -93 89 -93q103 0 103 107q0 114 -121 114h-63v90l134 142h-265v135h467v-112l-147 -161q173 -32 173 -214q0 -90 -72 -162t-202 -72z" />
<glyph unicode="&#xb4;" horiz-adv-x="759" d="M285 1208h-203v30q172 220 235 331h342v-23q-52 -57 -177.5 -170t-196.5 -168z" />
<glyph unicode="&#xb5;" horiz-adv-x="1235" d="M389 -395h-258v1445h258v-751q77 -100 197 -100q131 0 227 120v731h256v-725q0 -103 110 -103v-222h-155q-135 0 -177 101q-99 -132 -257 -132q-122 0 -201 70v-434z" />
<glyph unicode="&#xb6;" horiz-adv-x="1368" d="M1114 -200h-165v1540h-123v-1540h-177v879q-73 -43 -145 -43q-180 0 -292 117.5t-112 314.5q0 164 130.5 298t340.5 134h691v-160h-148v-1540z" />
<glyph unicode="&#xb7;" horiz-adv-x="551" d="M213 506q-36 0 -69.5 14t-59 39.5t-39.5 59t-14 69.5t14 69.5t39.5 59t59 39.5t69.5 14t69.5 -14t59 -39.5t39.5 -59t14 -69.5t-14 -69.5t-39.5 -59t-59 -39.5t-69.5 -14z" />
<glyph unicode="&#xb8;" horiz-adv-x="1044" d="M463 -434q-174 0 -264 45l69 145q106 -45 193 -45q53 0 74.5 11.5t21.5 35.5q0 63 -180 72l88 170h170l-31 -62q62 -14 104 -61t42 -121q0 -190 -287 -190z" />
<glyph unicode="&#xb9;" horiz-adv-x="630" d="M457 793h-169v474q-41 -32 -168 -36v136q161 7 195 132h142v-706z" />
<glyph unicode="&#xba;" horiz-adv-x="757" d="M398 875q-268 0 -268 283q0 286 268 286q266 0 266 -286q0 -283 -266 -283zM398 1002q52 0 75 35.5t23 120.5q0 86 -22.5 122.5t-75.5 36.5q-54 0 -77 -37.5t-23 -121.5t23 -120t77 -36zM671 640h-594v182h594v-182z" />
<glyph unicode="&#xbb;" horiz-adv-x="1077" d="M811 53h-299l420 471l-420 471h299l420 -471zM361 53h-299l420 471l-420 471h299l420 -471z" />
<glyph unicode="&#xbc;" horiz-adv-x="1485" d="M457 793h-169v474q-41 -32 -168 -36v136q161 7 195 132h142v-706zM1320 -7h-163v115h-317v137l312 454h168v-456h85v-135h-85v-115zM1157 243v221l-147 -221h147zM444 -100h-173l780 1600h173z" />
<glyph unicode="&#xbd;" horiz-adv-x="1588" d="M480 793h-169v474q-41 -32 -168 -36v136q161 7 195 132h142v-706zM1500 -7h-525v126q257 216 309 314q20 37 20 78q0 31 -21 47.5t-57 16.5q-40 0 -66.5 -19.5t-53.5 -61.5l-134 94q46 68 108 97t153 29q114 0 179.5 -53t65.5 -145q0 -67 -25 -117.5t-70 -98.5 t-112.5 -105.5t-68.5 -58.5h298v-143zM457 -100h-173l780 1600h173z" />
<glyph unicode="&#xbe;" horiz-adv-x="1501" d="M332 778q-215 0 -262 198l166 28q19 -93 89 -93q103 0 103 107q0 114 -121 114h-63v90l134 142h-265v135h467v-112l-147 -161q173 -32 173 -214q0 -90 -72 -162t-202 -72zM1320 -7h-163v115h-317v137l312 454h168v-456h85v-135h-85v-115zM1157 243v221l-147 -221h147z M434 -100h-173l780 1600h173z" />
<glyph unicode="&#xbf;" horiz-adv-x="1003" d="M558 1348q69 0 118.5 -49.5t49.5 -118.5q0 -70 -49.5 -119.5t-118.5 -49.5q-70 0 -119.5 49.5t-49.5 119.5q0 69 49.5 118.5t119.5 49.5zM425 929h272q0 -311 -188.5 -398t-188.5 -221q0 -153 197 -153q90 0 144.5 35.5t99.5 109.5l233 -139q-69 -123 -184 -185.5 t-291 -62.5q-238 0 -363.5 98.5t-125.5 276.5q0 219 197.5 339.5t197.5 299.5z" />
<glyph unicode="&#xc0;" horiz-adv-x="1326" d="M1303 0h-285l-92 281h-533l-90 -281h-284l458 1384h367zM846 528l-186 572l-187 -572h373zM950 1533h-202q-63 49 -185 158t-190 183v23h342q63 -112 235 -334v-30z" />
<glyph unicode="&#xc1;" horiz-adv-x="1326" d="M1303 0h-285l-92 281h-533l-90 -281h-284l458 1384h367zM846 528l-186 572l-187 -572h373zM576 1534h-203v30q172 220 235 331h342v-23q-52 -57 -177.5 -170t-196.5 -168z" />
<glyph unicode="&#xc2;" horiz-adv-x="1326" d="M1303 0h-285l-92 281h-533l-90 -281h-284l458 1384h367zM846 528l-186 572l-187 -572h373zM1096 1536h-203q-157 93 -234 176q-78 -81 -229 -176h-203v27q189 189 256 301h357q31 -52 107.5 -141.5t148.5 -159.5v-27z" />
<glyph unicode="&#xc3;" horiz-adv-x="1326" d="M1303 0h-285l-92 281h-533l-90 -281h-284l458 1384h367zM846 528l-186 572l-187 -572h373zM396 1545h-149q11 145 82.5 227t189.5 82q41 0 80.5 -16.5t78 -36t75.5 -35.5t73 -16q31 0 59.5 26t41.5 80h149q-11 -145 -83.5 -227t-188.5 -82q-41 0 -80.5 16.5t-78 36 t-75.5 36t-73 16.5q-31 0 -59.5 -26.5t-41.5 -80.5z" />
<glyph unicode="&#xc4;" horiz-adv-x="1326" d="M1303 0h-285l-92 281h-533l-90 -281h-284l458 1384h367zM846 528l-186 572l-187 -572h373zM426 1518q-36 0 -69.5 14t-59 39.5t-39.5 59t-14 69.5t14 69.5t39.5 59t59 39.5t69.5 14t69.5 -14t59 -39.5t39.5 -59t14 -69.5t-14 -69.5t-39.5 -59t-59 -39.5t-69.5 -14z M896 1518q-36 0 -69.5 14t-59 39.5t-39.5 59t-14 69.5t14 69.5t39.5 59t59 39.5t69.5 14t69.5 -14t59 -39.5t39.5 -59t14 -69.5t-14 -69.5t-39.5 -59t-59 -39.5t-69.5 -14z" />
<glyph unicode="&#xc5;" horiz-adv-x="1326" d="M1303 0h-285l-92 281h-533l-90 -281h-284l458 1384h367zM846 528l-186 572l-187 -572h373zM662 1507q-81 0 -137.5 56.5t-56.5 137.5q0 80 56.5 136.5t137.5 56.5q80 0 136.5 -56.5t56.5 -136.5q0 -81 -56.5 -137.5t-136.5 -56.5zM662 1586q47 0 80.5 33.5t33.5 81.5 q0 47 -33.5 80.5t-80.5 33.5q-48 0 -81.5 -33.5t-33.5 -80.5q0 -48 33.5 -81.5t81.5 -33.5z" />
<glyph unicode="&#xc6;" horiz-adv-x="1756" d="M817 608v527h-44l-236 -527h280zM1667 0h-850v360h-392l-161 -360h-287l615 1384h1075l-45 -249h-522v-301h469v-250h-469v-326h524z" />
<glyph unicode="&#xc7;" horiz-adv-x="1344" d="M758 -29q-643 0 -643 721t633 721q376 0 526 -248l-219 -170q-48 72 -88 104t-91 48t-122 16q-170 0 -259 -108.5t-89 -362.5q0 -237 83.5 -354t266.5 -117q123 0 191.5 47t124.5 125l223 -164q-89 -133 -218.5 -195.5t-318.5 -62.5zM663 -435q-174 0 -264 45l69 145 q106 -45 193 -45q53 0 74.5 11.5t21.5 35.5q0 63 -180 72l88 170h170l-31 -62q62 -14 104 -61t42 -121q0 -190 -287 -190z" />
<glyph unicode="&#xc8;" horiz-adv-x="1188" d="M1097 0h-899v1384h899l-44 -249h-573v-295h520v-250h-520v-332h575zM936 1533h-202q-63 49 -185 158t-190 183v23h342q63 -112 235 -334v-30z" />
<glyph unicode="&#xc9;" horiz-adv-x="1188" d="M1097 0h-899v1384h899l-44 -249h-573v-295h520v-250h-520v-332h575zM562 1534h-203v30q172 220 235 331h342v-23q-52 -57 -177.5 -170t-196.5 -168z" />
<glyph unicode="&#xca;" horiz-adv-x="1188" d="M1097 0h-899v1384h899l-44 -249h-573v-295h520v-250h-520v-332h575zM1077 1536h-203q-157 93 -234 176q-78 -81 -229 -176h-203v27q189 189 256 301h357q31 -52 107.5 -141.5t148.5 -159.5v-27z" />
<glyph unicode="&#xcb;" horiz-adv-x="1188" d="M1097 0h-899v1384h899l-44 -249h-573v-295h520v-250h-520v-332h575zM407 1518q-36 0 -69.5 14t-59 39.5t-39.5 59t-14 69.5t14 69.5t39.5 59t59 39.5t69.5 14t69.5 -14t59 -39.5t39.5 -59t14 -69.5t-14 -69.5t-39.5 -59t-59 -39.5t-69.5 -14zM877 1518q-36 0 -69.5 14 t-59 39.5t-39.5 59t-14 69.5t14 69.5t39.5 59t59 39.5t69.5 14t69.5 -14t59 -39.5t39.5 -59t14 -69.5t-14 -69.5t-39.5 -59t-59 -39.5t-69.5 -14z" />
<glyph unicode="&#xcc;" horiz-adv-x="904" d="M789 0h-668v217h193v950h-193v217h668v-217h-192v-950h192v-217zM744 1534h-202q-63 49 -185 158t-190 183v23h342q63 -112 235 -334v-30z" />
<glyph unicode="&#xcd;" horiz-adv-x="904" d="M789 0h-668v217h193v950h-193v217h668v-217h-192v-950h192v-217zM368 1534h-203v30q172 220 235 331h342v-23q-52 -57 -177.5 -170t-196.5 -168z" />
<glyph unicode="&#xce;" horiz-adv-x="904" d="M789 0h-668v217h193v950h-193v217h668v-217h-192v-950h192v-217zM889 1536h-203q-157 93 -234 176q-78 -81 -229 -176h-203v27q189 189 256 301h357q31 -52 107.5 -141.5t148.5 -159.5v-27z" />
<glyph unicode="&#xcf;" horiz-adv-x="904" d="M789 0h-668v217h193v950h-193v217h668v-217h-192v-950h192v-217zM220 1518q-36 0 -69.5 14t-59 39.5t-39.5 59t-14 69.5t14 69.5t39.5 59t59 39.5t69.5 14t69.5 -14t59 -39.5t39.5 -59t14 -69.5t-14 -69.5t-39.5 -59t-59 -39.5t-69.5 -14zM690 1518q-36 0 -69.5 14 t-59 39.5t-39.5 59t-14 69.5t14 69.5t39.5 59t59 39.5t69.5 14t69.5 -14t59 -39.5t39.5 -59t14 -69.5t-14 -69.5t-39.5 -59t-59 -39.5t-69.5 -14z" />
<glyph unicode="&#xd0;" horiz-adv-x="1430" d="M620 0h-422v1384h418q245 0 389.5 -71t213.5 -221.5t69 -399.5q0 -250 -69 -402t-208 -221t-391 -69zM589 258q167 0 251.5 38.5t120.5 128.5t36 269q0 181 -35.5 268.5t-120.5 125.5t-252 38h-108v-868h108zM694 565h-623v254h623v-254z" />
<glyph unicode="&#xd1;" horiz-adv-x="1436" d="M1310 0h-332l-504 989v-989h-276v1384h366l469 -933v933h277v-1384zM489 1545h-149q11 145 82.5 227t189.5 82q41 0 80.5 -16.5t78 -36t75.5 -35.5t73 -16q31 0 59.5 26t41.5 80h149q-11 -145 -83.5 -227t-188.5 -82q-41 0 -80.5 16.5t-78 36t-75.5 36t-73 16.5 q-31 0 -59.5 -26.5t-41.5 -80.5z" />
<glyph unicode="&#xd2;" horiz-adv-x="1429" d="M723 -29q-317 0 -461.5 179.5t-144.5 541.5q0 364 144.5 542.5t461.5 178.5q319 0 462.5 -178.5t143.5 -542.5q0 -381 -152.5 -551t-453.5 -170zM723 221q176 0 245.5 102.5t69.5 368.5t-69.5 368.5t-245.5 102.5t-245.5 -102.5t-69.5 -368.5t70.5 -368.5t244.5 -102.5z M1012 1533h-202q-63 49 -185 158t-190 183v23h342q63 -112 235 -334v-30z" />
<glyph unicode="&#xd3;" horiz-adv-x="1429" d="M723 -29q-317 0 -461.5 179.5t-144.5 541.5q0 364 144.5 542.5t461.5 178.5q319 0 462.5 -178.5t143.5 -542.5q0 -381 -152.5 -551t-453.5 -170zM723 221q176 0 245.5 102.5t69.5 368.5t-69.5 368.5t-245.5 102.5t-245.5 -102.5t-69.5 -368.5t70.5 -368.5t244.5 -102.5z M638 1534h-203v30q172 220 235 331h342v-23q-52 -57 -177.5 -170t-196.5 -168z" />
<glyph unicode="&#xd4;" horiz-adv-x="1429" d="M723 -29q-317 0 -461.5 179.5t-144.5 541.5q0 364 144.5 542.5t461.5 178.5q319 0 462.5 -178.5t143.5 -542.5q0 -381 -152.5 -551t-453.5 -170zM723 221q176 0 245.5 102.5t69.5 368.5t-69.5 368.5t-245.5 102.5t-245.5 -102.5t-69.5 -368.5t70.5 -368.5t244.5 -102.5z M1158 1536h-203q-157 93 -234 176q-78 -81 -229 -176h-203v27q189 189 256 301h357q31 -52 107.5 -141.5t148.5 -159.5v-27z" />
<glyph unicode="&#xd5;" horiz-adv-x="1429" d="M723 -29q-317 0 -461.5 179.5t-144.5 541.5q0 364 144.5 542.5t461.5 178.5q319 0 462.5 -178.5t143.5 -542.5q0 -381 -152.5 -551t-453.5 -170zM723 221q176 0 245.5 102.5t69.5 368.5t-69.5 368.5t-245.5 102.5t-245.5 -102.5t-69.5 -368.5t70.5 -368.5t244.5 -102.5z M458 1545h-149q11 145 82.5 227t189.5 82q41 0 80.5 -16.5t78 -36t75.5 -35.5t73 -16q31 0 59.5 26t41.5 80h149q-11 -145 -83.5 -227t-188.5 -82q-41 0 -80.5 16.5t-78 36t-75.5 36t-73 16.5q-31 0 -59.5 -26.5t-41.5 -80.5z" />
<glyph unicode="&#xd6;" horiz-adv-x="1429" d="M723 -29q-317 0 -461.5 179.5t-144.5 541.5q0 364 144.5 542.5t461.5 178.5q319 0 462.5 -178.5t143.5 -542.5q0 -381 -152.5 -551t-453.5 -170zM723 221q176 0 245.5 102.5t69.5 368.5t-69.5 368.5t-245.5 102.5t-245.5 -102.5t-69.5 -368.5t70.5 -368.5t244.5 -102.5z M488 1518q-36 0 -69.5 14t-59 39.5t-39.5 59t-14 69.5t14 69.5t39.5 59t59 39.5t69.5 14t69.5 -14t59 -39.5t39.5 -59t14 -69.5t-14 -69.5t-39.5 -59t-59 -39.5t-69.5 -14zM958 1518q-36 0 -69.5 14t-59 39.5t-39.5 59t-14 69.5t14 69.5t39.5 59t59 39.5t69.5 14t69.5 -14 t59 -39.5t39.5 -59t14 -69.5t-14 -69.5t-39.5 -59t-59 -39.5t-69.5 -14z" />
<glyph unicode="&#xd7;" horiz-adv-x="1043" d="M834 240l-313 310l-311 -310l-140 144l312 307l-312 309l140 144l311 -312l313 312l139 -144l-311 -309l311 -307z" />
<glyph unicode="&#xd8;" horiz-adv-x="1429" d="M723 -29q-317 0 -461.5 179.5t-144.5 541.5q0 364 144.5 542.5t461.5 178.5q319 0 462.5 -178.5t143.5 -542.5q0 -381 -152.5 -551t-453.5 -170zM723 221q176 0 245.5 102.5t69.5 368.5t-69.5 368.5t-245.5 102.5t-245.5 -102.5t-69.5 -368.5t70.5 -368.5t244.5 -102.5z M489 -218h-254l690 1819h256z" />
<glyph unicode="&#xd9;" horiz-adv-x="1394" d="M737 -31q-302 0 -435.5 140.5t-133.5 468.5v806h282v-786q0 -141 27 -222t86 -119t172 -38q161 0 225 85.5t64 289.5v790h282v-806q0 -325 -132 -467t-437 -142zM1026 1533h-202q-63 49 -185 158t-190 183v23h342q63 -112 235 -334v-30z" />
<glyph unicode="&#xda;" horiz-adv-x="1394" d="M737 -31q-302 0 -435.5 140.5t-133.5 468.5v806h282v-786q0 -141 27 -222t86 -119t172 -38q161 0 225 85.5t64 289.5v790h282v-806q0 -325 -132 -467t-437 -142zM652 1534h-203v30q172 220 235 331h342v-23q-52 -57 -177.5 -170t-196.5 -168z" />
<glyph unicode="&#xdb;" horiz-adv-x="1394" d="M737 -31q-302 0 -435.5 140.5t-133.5 468.5v806h282v-786q0 -141 27 -222t86 -119t172 -38q161 0 225 85.5t64 289.5v790h282v-806q0 -325 -132 -467t-437 -142zM1172 1536h-203q-157 93 -234 176q-78 -81 -229 -176h-203v27q189 189 256 301h357q31 -52 107.5 -141.5 t148.5 -159.5v-27z" />
<glyph unicode="&#xdc;" horiz-adv-x="1394" d="M737 -31q-302 0 -435.5 140.5t-133.5 468.5v806h282v-786q0 -141 27 -222t86 -119t172 -38q161 0 225 85.5t64 289.5v790h282v-806q0 -325 -132 -467t-437 -142zM502 1518q-36 0 -69.5 14t-59 39.5t-39.5 59t-14 69.5t14 69.5t39.5 59t59 39.5t69.5 14t69.5 -14t59 -39.5 t39.5 -59t14 -69.5t-14 -69.5t-39.5 -59t-59 -39.5t-69.5 -14zM972 1518q-36 0 -69.5 14t-59 39.5t-39.5 59t-14 69.5t14 69.5t39.5 59t59 39.5t69.5 14t69.5 -14t59 -39.5t39.5 -59t14 -69.5t-14 -69.5t-39.5 -59t-59 -39.5t-69.5 -14z" />
<glyph unicode="&#xdd;" horiz-adv-x="1119" d="M725 0h-284v522l-433 862h308l270 -579l276 579h297l-434 -856v-528zM498 1534h-203v30q172 220 235 331h342v-23q-52 -57 -177.5 -170t-196.5 -168z" />
<glyph unicode="&#xde;" horiz-adv-x="1291" d="M480 0h-282v1384h282v-220h228q235 0 358 -114.5t123 -343.5q0 -230 -112.5 -344.5t-376.5 -114.5h-220v-247zM585 483q195 0 254 55.5t59 167.5q0 111 -66 166.5t-221 55.5h-131v-445h105z" />
<glyph unicode="&#xdf;" horiz-adv-x="1229" d="M763 -21q-134 0 -220 62l46 176q90 -55 153 -55q59 0 96 30t37 83q0 80 -161.5 172.5t-161.5 267.5q0 189 204 248q12 28 12 81q0 72 -44 113.5t-117 41.5q-90 0 -136.5 -54t-46.5 -180v-965h-252v960q0 204 113 322t330 118q189 0 298.5 -91t109.5 -245 q0 -91 -23 -162.5t-67 -71.5q-71 0 -101.5 -28t-30.5 -68q0 -80 164 -173.5t164 -264.5q0 -136 -94 -226.5t-272 -90.5z" />
<glyph unicode="&#xe0;" horiz-adv-x="1310" d="M514 219q99 0 209.5 179.5t110.5 352.5v68q-84 21 -165 21q-147 0 -221 -119t-74 -299q0 -203 140 -203zM434 -26q-340 0 -340 448q0 272 166 460t451 188q216 0 409 -46v-479q0 -351 65 -545h-266q-55 143 -55 340q-158 -366 -430 -366zM918 1183h-202q-63 49 -185 158 t-190 183v23h342q63 -112 235 -334v-30z" />
<glyph unicode="&#xe1;" horiz-adv-x="1310" d="M514 219q99 0 209.5 179.5t110.5 352.5v68q-84 21 -165 21q-147 0 -221 -119t-74 -299q0 -203 140 -203zM434 -26q-340 0 -340 448q0 272 166 460t451 188q216 0 409 -46v-479q0 -351 65 -545h-266q-55 143 -55 340q-158 -366 -430 -366zM544 1184h-203v30 q172 220 235 331h342v-23q-52 -57 -177.5 -170t-196.5 -168z" />
<glyph unicode="&#xe2;" horiz-adv-x="1310" d="M514 219q99 0 209.5 179.5t110.5 352.5v68q-84 21 -165 21q-147 0 -221 -119t-74 -299q0 -203 140 -203zM434 -26q-340 0 -340 448q0 272 166 460t451 188q216 0 409 -46v-479q0 -351 65 -545h-266q-55 143 -55 340q-158 -366 -430 -366zM1064 1186h-203 q-157 93 -234 176q-78 -81 -229 -176h-203v27q189 189 256 301h357q31 -52 107.5 -141.5t148.5 -159.5v-27z" />
<glyph unicode="&#xe3;" horiz-adv-x="1310" d="M514 219q99 0 209.5 179.5t110.5 352.5v68q-84 21 -165 21q-147 0 -221 -119t-74 -299q0 -203 140 -203zM434 -26q-340 0 -340 448q0 272 166 460t451 188q216 0 409 -46v-479q0 -351 65 -545h-266q-55 143 -55 340q-158 -366 -430 -366zM364 1195h-149q11 145 82.5 227 t189.5 82q41 0 80.5 -16.5t78 -36t75.5 -35.5t73 -16q31 0 59.5 26t41.5 80h149q-11 -145 -83.5 -227t-188.5 -82q-41 0 -80.5 16.5t-78 36t-75.5 36t-73 16.5q-31 0 -59.5 -26.5t-41.5 -80.5z" />
<glyph unicode="&#xe4;" horiz-adv-x="1310" d="M514 219q99 0 209.5 179.5t110.5 352.5v68q-84 21 -165 21q-147 0 -221 -119t-74 -299q0 -203 140 -203zM434 -26q-340 0 -340 448q0 272 166 460t451 188q216 0 409 -46v-479q0 -351 65 -545h-266q-55 143 -55 340q-158 -366 -430 -366zM395 1168q-36 0 -69.5 14 t-59 39.5t-39.5 59t-14 69.5t14 69.5t39.5 59t59 39.5t69.5 14t69.5 -14t59 -39.5t39.5 -59t14 -69.5t-14 -69.5t-39.5 -59t-59 -39.5t-69.5 -14zM865 1168q-36 0 -69.5 14t-59 39.5t-39.5 59t-14 69.5t14 69.5t39.5 59t59 39.5t69.5 14t69.5 -14t59 -39.5t39.5 -59 t14 -69.5t-14 -69.5t-39.5 -59t-59 -39.5t-69.5 -14z" />
<glyph unicode="&#xe5;" horiz-adv-x="1310" d="M514 219q99 0 209.5 179.5t110.5 352.5v68q-84 21 -165 21q-147 0 -221 -119t-74 -299q0 -203 140 -203zM434 -26q-340 0 -340 448q0 272 166 460t451 188q216 0 409 -46v-479q0 -351 65 -545h-266q-55 143 -55 340q-158 -366 -430 -366zM630 1157q-81 0 -137.5 56.5 t-56.5 137.5q0 80 56.5 136.5t137.5 56.5q80 0 136.5 -56.5t56.5 -136.5q0 -81 -56.5 -137.5t-136.5 -56.5zM630 1236q47 0 80.5 33.5t33.5 81.5q0 47 -33.5 80.5t-80.5 33.5q-48 0 -81.5 -33.5t-33.5 -80.5q0 -48 33.5 -81.5t81.5 -33.5z" />
<glyph unicode="&#xe6;" horiz-adv-x="1790" d="M1398 648q0 206 -180 206q-178 0 -205 -206h385zM735 463h-124q-139 0 -200.5 -41t-61.5 -123q0 -125 139 -125q144 0 281 102q-30 101 -34 187zM1232 1070q420 0 420 -532l1 -75h-646q17 -252 250 -252q200 0 360 104l21 -238q-177 -103 -406 -103t-383 173 q-166 -178 -418 -178q-170 0 -259 91.5t-89 242.5q0 157 105.5 251t342.5 94h211v73q0 153 -200 153q-179 0 -242 -108l-191 129q136 184 431 184q258 0 360 -126q124 117 332 117z" />
<glyph unicode="&#xe7;" horiz-adv-x="1032" d="M575 -26q-221 0 -354.5 147t-133.5 383q0 251 146.5 408.5t375.5 157.5q175 0 310 -73l-44 -259q-118 95 -261 95q-107 0 -175 -84q-72 -88 -72 -234q0 -137 67.5 -220.5t179.5 -83.5q145 0 285 112l30 -251q-155 -98 -354 -98zM511 -434q-174 0 -264 45l69 145 q106 -45 193 -45q53 0 74.5 11.5t21.5 35.5q0 63 -180 72l88 170h170l-31 -62q62 -14 104 -61t42 -121q0 -190 -287 -190z" />
<glyph unicode="&#xe8;" horiz-adv-x="1142" d="M586 -26q-209 0 -354 142t-145 393q0 257 134.5 409t364.5 152q420 0 420 -532l1 -75h-646q17 -252 250 -252q200 0 360 104l21 -238q-177 -103 -406 -103zM752 648q0 206 -180 206q-178 0 -205 -206h385zM836 1183h-202q-63 49 -185 158t-190 183v23h342 q63 -112 235 -334v-30z" />
<glyph unicode="&#xe9;" horiz-adv-x="1142" d="M586 -26q-209 0 -354 142t-145 393q0 257 134.5 409t364.5 152q420 0 420 -532l1 -75h-646q17 -252 250 -252q200 0 360 104l21 -238q-177 -103 -406 -103zM752 648q0 206 -180 206q-178 0 -205 -206h385zM462 1184h-203v30q172 220 235 331h342v-23q-52 -57 -177.5 -170 t-196.5 -168z" />
<glyph unicode="&#xea;" horiz-adv-x="1142" d="M586 -26q-209 0 -354 142t-145 393q0 257 134.5 409t364.5 152q420 0 420 -532l1 -75h-646q17 -252 250 -252q200 0 360 104l21 -238q-177 -103 -406 -103zM752 648q0 206 -180 206q-178 0 -205 -206h385zM982 1186h-203q-157 93 -234 176q-78 -81 -229 -176h-203v27 q189 189 256 301h357q31 -52 107.5 -141.5t148.5 -159.5v-27z" />
<glyph unicode="&#xeb;" horiz-adv-x="1142" d="M586 -26q-209 0 -354 142t-145 393q0 257 134.5 409t364.5 152q420 0 420 -532l1 -75h-646q17 -252 250 -252q200 0 360 104l21 -238q-177 -103 -406 -103zM752 648q0 206 -180 206q-178 0 -205 -206h385zM312 1168q-36 0 -69.5 14t-59 39.5t-39.5 59t-14 69.5t14 69.5 t39.5 59t59 39.5t69.5 14t69.5 -14t59 -39.5t39.5 -59t14 -69.5t-14 -69.5t-39.5 -59t-59 -39.5t-69.5 -14zM782 1168q-36 0 -69.5 14t-59 39.5t-39.5 59t-14 69.5t14 69.5t39.5 59t59 39.5t69.5 14t69.5 -14t59 -39.5t39.5 -59t14 -69.5t-14 -69.5t-39.5 -59t-59 -39.5 t-69.5 -14z" />
<glyph unicode="&#xec;" horiz-adv-x="720" d="M570 0h-280v824h-130v226h410v-1050zM643 1183h-202q-63 49 -185 158t-190 183v23h342q63 -112 235 -334v-30z" />
<glyph unicode="&#xed;" horiz-adv-x="720" d="M570 0h-280v824h-130v226h410v-1050zM328 1184h-203v30q172 220 235 331h342v-23q-52 -57 -177.5 -170t-196.5 -168z" />
<glyph unicode="&#xee;" horiz-adv-x="720" d="M570 0h-280v824h-130v226h410v-1050zM814 1186h-203q-157 93 -234 176q-78 -81 -229 -176h-203v27q189 189 256 301h357q31 -52 107.5 -141.5t148.5 -159.5v-27z" />
<glyph unicode="&#xef;" horiz-adv-x="720" d="M570 0h-280v824h-130v226h410v-1050zM145 1168q-36 0 -69.5 14t-59 39.5t-39.5 59t-14 69.5t14 69.5t39.5 59t59 39.5t69.5 14t69.5 -14t59 -39.5t39.5 -59t14 -69.5t-14 -69.5t-39.5 -59t-59 -39.5t-69.5 -14zM615 1168q-36 0 -69.5 14t-59 39.5t-39.5 59t-14 69.5 t14 69.5t39.5 59t59 39.5t69.5 14t69.5 -14t59 -39.5t39.5 -59t14 -69.5t-14 -69.5t-39.5 -59t-59 -39.5t-69.5 -14z" />
<glyph unicode="&#xf0;" horiz-adv-x="1251" d="M627 188q141 2 194.5 99.5t53.5 226.5q0 135 -61.5 231.5t-184.5 96.5q-125 0 -187 -88.5t-62 -239.5q0 -145 66.5 -235.5t180.5 -90.5zM625 -25q-263 0 -397 157t-134 395q0 214 114 369t343 159q88 0 147.5 -17.5t104.5 -48.5h4q-74 148 -217 254l-189 -123l-104 97 l170 110q-111 68 -203 98l125 140q137 -49 260 -121l189 121l104 -97l-170 -108q389 -279 389 -782q0 -603 -536 -603z" />
<glyph unicode="&#xf1;" horiz-adv-x="1328" d="M1144 0h-280v566q0 252 -145 252q-172 0 -270 -221v-597h-280v633q0 259 -50 417h275q28 -78 40 -191q167 211 385 211q325 0 325 -427v-643zM366 1195h-149q11 145 82.5 227t189.5 82q41 0 80.5 -16.5t78 -36t75.5 -35.5t73 -16q31 0 59.5 26t41.5 80h149 q-11 -145 -83.5 -227t-188.5 -82q-41 0 -80.5 16.5t-78 36t-75.5 36t-73 16.5q-31 0 -59.5 -26.5t-41.5 -80.5z" />
<glyph unicode="&#xf2;" horiz-adv-x="1247" d="M613 -31q-507 0 -507 553q0 557 507 557q505 0 505 -557q0 -553 -505 -553zM613 195q125 0 175 78.5t50 248.5q0 173 -49 252.5t-176 79.5q-126 0 -177 -81.5t-51 -250.5q0 -168 50.5 -247.5t177.5 -79.5zM901 1183h-202q-63 49 -185 158t-190 183v23h342 q63 -112 235 -334v-30z" />
<glyph unicode="&#xf3;" horiz-adv-x="1247" d="M613 -31q-507 0 -507 553q0 557 507 557q505 0 505 -557q0 -553 -505 -553zM613 195q125 0 175 78.5t50 248.5q0 173 -49 252.5t-176 79.5q-126 0 -177 -81.5t-51 -250.5q0 -168 50.5 -247.5t177.5 -79.5zM527 1184h-203v30q172 220 235 331h342v-23q-52 -57 -177.5 -170 t-196.5 -168z" />
<glyph unicode="&#xf4;" horiz-adv-x="1247" d="M613 -31q-507 0 -507 553q0 557 507 557q505 0 505 -557q0 -553 -505 -553zM613 195q125 0 175 78.5t50 248.5q0 173 -49 252.5t-176 79.5q-126 0 -177 -81.5t-51 -250.5q0 -168 50.5 -247.5t177.5 -79.5zM1047 1186h-203q-157 93 -234 176q-78 -81 -229 -176h-203v27 q189 189 256 301h357q31 -52 107.5 -141.5t148.5 -159.5v-27z" />
<glyph unicode="&#xf5;" horiz-adv-x="1247" d="M613 -31q-507 0 -507 553q0 557 507 557q505 0 505 -557q0 -553 -505 -553zM613 195q125 0 175 78.5t50 248.5q0 173 -49 252.5t-176 79.5q-126 0 -177 -81.5t-51 -250.5q0 -168 50.5 -247.5t177.5 -79.5zM347 1195h-149q11 145 82.5 227t189.5 82q41 0 80.5 -16.5 t78 -36t75.5 -35.5t73 -16q31 0 59.5 26t41.5 80h149q-11 -145 -83.5 -227t-188.5 -82q-41 0 -80.5 16.5t-78 36t-75.5 36t-73 16.5q-31 0 -59.5 -26.5t-41.5 -80.5z" />
<glyph unicode="&#xf6;" horiz-adv-x="1247" d="M613 -31q-507 0 -507 553q0 557 507 557q505 0 505 -557q0 -553 -505 -553zM613 195q125 0 175 78.5t50 248.5q0 173 -49 252.5t-176 79.5q-126 0 -177 -81.5t-51 -250.5q0 -168 50.5 -247.5t177.5 -79.5zM377 1168q-36 0 -69.5 14t-59 39.5t-39.5 59t-14 69.5t14 69.5 t39.5 59t59 39.5t69.5 14t69.5 -14t59 -39.5t39.5 -59t14 -69.5t-14 -69.5t-39.5 -59t-59 -39.5t-69.5 -14zM847 1168q-36 0 -69.5 14t-59 39.5t-39.5 59t-14 69.5t14 69.5t39.5 59t59 39.5t69.5 14t69.5 -14t59 -39.5t39.5 -59t14 -69.5t-14 -69.5t-39.5 -59t-59 -39.5 t-69.5 -14z" />
<glyph unicode="&#xf7;" horiz-adv-x="920" d="M880 602h-840v180h840v-180zM460 849q-36 0 -69.5 14t-59 39.5t-39.5 59t-14 69.5t14 69.5t39.5 59t59 39.5t69.5 14t69.5 -14t59 -39.5t39.5 -59t14 -69.5t-14 -69.5t-39.5 -59t-59 -39.5t-69.5 -14zM460 171q-36 0 -69.5 14t-59 39.5t-39.5 59t-14 69.5t14 69.5 t39.5 59t59 39.5t69.5 14t69.5 -14t59 -39.5t39.5 -59t14 -69.5t-14 -69.5t-39.5 -59t-59 -39.5t-69.5 -14z" />
<glyph unicode="&#xf8;" horiz-adv-x="1247" d="M613 -31q-507 0 -507 553q0 557 507 557q505 0 505 -557q0 -553 -505 -553zM613 195q125 0 175 78.5t50 248.5q0 173 -49 252.5t-176 79.5q-126 0 -177 -81.5t-51 -250.5q0 -168 50.5 -247.5t177.5 -79.5zM309 -276h-173l780 1600h173z" />
<glyph unicode="&#xf9;" horiz-adv-x="1261" d="M652 -31q-489 0 -489 479v601h280v-571q0 -294 209 -294t209 290v575h280v-601q0 -479 -489 -479zM941 1183h-202q-63 49 -185 158t-190 183v23h342q63 -112 235 -334v-30z" />
<glyph unicode="&#xfa;" horiz-adv-x="1261" d="M652 -31q-489 0 -489 479v601h280v-571q0 -294 209 -294t209 290v575h280v-601q0 -479 -489 -479zM567 1184h-203v30q172 220 235 331h342v-23q-52 -57 -177.5 -170t-196.5 -168z" />
<glyph unicode="&#xfb;" horiz-adv-x="1261" d="M652 -31q-489 0 -489 479v601h280v-571q0 -294 209 -294t209 290v575h280v-601q0 -479 -489 -479zM1087 1186h-203q-157 93 -234 176q-78 -81 -229 -176h-203v27q189 189 256 301h357q31 -52 107.5 -141.5t148.5 -159.5v-27z" />
<glyph unicode="&#xfc;" horiz-adv-x="1261" d="M652 -31q-489 0 -489 479v601h280v-571q0 -294 209 -294t209 290v575h280v-601q0 -479 -489 -479zM417 1168q-36 0 -69.5 14t-59 39.5t-39.5 59t-14 69.5t14 69.5t39.5 59t59 39.5t69.5 14t69.5 -14t59 -39.5t39.5 -59t14 -69.5t-14 -69.5t-39.5 -59t-59 -39.5t-69.5 -14 zM887 1168q-36 0 -69.5 14t-59 39.5t-39.5 59t-14 69.5t14 69.5t39.5 59t59 39.5t69.5 14t69.5 -14t59 -39.5t39.5 -59t14 -69.5t-14 -69.5t-39.5 -59t-59 -39.5t-69.5 -14z" />
<glyph unicode="&#xfd;" horiz-adv-x="1148" d="M278 -484q-161 0 -275 88l70 224q91 -77 185 -77q112 0 200 230q-265 726 -425 1069h313l240 -749l204 749h313q-143 -342 -385 -1050q-165 -484 -440 -484zM447 1184h-203v30q172 220 235 331h342v-23q-52 -57 -177.5 -170t-196.5 -168z" />
<glyph unicode="&#xfe;" horiz-adv-x="1283" d="M462 -495h-258v2095h258v-644q127 123 316 123q198 0 301.5 -141.5t103.5 -405.5q0 -169 -51 -298t-146 -197t-227 -68q-174 0 -297 109v-573zM688 197q106 0 167.5 90.5t61.5 240.5q0 153 -53 238.5t-158 85.5q-113 0 -244 -102v-459q112 -94 226 -94z" />
<glyph unicode="&#xff;" horiz-adv-x="1148" d="M278 -484q-161 0 -275 88l70 224q91 -77 185 -77q112 0 200 230q-265 726 -425 1069h313l240 -749l204 749h313q-143 -342 -385 -1050q-165 -484 -440 -484zM318 1168q-36 0 -69.5 14t-59 39.5t-39.5 59t-14 69.5t14 69.5t39.5 59t59 39.5t69.5 14t69.5 -14t59 -39.5 t39.5 -59t14 -69.5t-14 -69.5t-39.5 -59t-59 -39.5t-69.5 -14zM788 1168q-36 0 -69.5 14t-59 39.5t-39.5 59t-14 69.5t14 69.5t39.5 59t59 39.5t69.5 14t69.5 -14t59 -39.5t39.5 -59t14 -69.5t-14 -69.5t-39.5 -59t-59 -39.5t-69.5 -14z" />
<glyph unicode="&#x131;" horiz-adv-x="720" d="M570 0h-280v824h-130v226h410v-1050z" />
<glyph unicode="&#x152;" horiz-adv-x="1927" d="M726 -29q-312 0 -461.5 189.5t-149.5 531.5q0 344 151.5 532.5t459.5 188.5q121 0 247 -29h865l-46 -249h-522v-301h467v-250h-467v-326h523l45 -258h-861q-106 -29 -251 -29zM748 221q128 0 238 64v813q-100 65 -238 65q-182 0 -262 -110t-80 -361q0 -246 78 -358.5 t264 -112.5z" />
<glyph unicode="&#x153;" horiz-adv-x="1920" d="M1342 -26q-209 0 -354 142t-145 393q0 257 134.5 409t364.5 152q420 0 420 -532l1 -75h-646q17 -252 250 -252q200 0 360 104l21 -238q-177 -103 -406 -103zM1508 648q0 206 -180 206q-178 0 -205 -206h385zM613 -31q-507 0 -507 553q0 557 507 557q505 0 505 -557 q0 -553 -505 -553zM613 195q125 0 175 78.5t50 248.5q0 173 -49 252.5t-176 79.5q-126 0 -177 -81.5t-51 -250.5q0 -168 50.5 -247.5t177.5 -79.5z" />
<glyph unicode="&#x178;" horiz-adv-x="1119" d="M725 0h-284v522l-433 862h308l270 -579l276 579h297l-434 -856v-528zM348 1518q-36 0 -69.5 14t-59 39.5t-39.5 59t-14 69.5t14 69.5t39.5 59t59 39.5t69.5 14t69.5 -14t59 -39.5t39.5 -59t14 -69.5t-14 -69.5t-39.5 -59t-59 -39.5t-69.5 -14zM818 1518q-36 0 -69.5 14 t-59 39.5t-39.5 59t-14 69.5t14 69.5t39.5 59t59 39.5t69.5 14t69.5 -14t59 -39.5t39.5 -59t14 -69.5t-14 -69.5t-39.5 -59t-59 -39.5t-69.5 -14z" />
<glyph unicode="&#x237;" horiz-adv-x="713" d="M201 -495q-133 0 -232 40l56 224q73 -29 141 -29q125 0 125 207v877h-130v226h410v-1195q0 -350 -370 -350z" />
<glyph unicode="&#x2c6;" horiz-adv-x="1061" d="M965 1186h-203q-157 93 -234 176q-78 -81 -229 -176h-203v27q189 189 256 301h357q31 -52 107.5 -141.5t148.5 -159.5v-27z" />
<glyph unicode="&#x2da;" horiz-adv-x="587" d="M294 1157q-81 0 -137.5 56.5t-56.5 137.5q0 80 56.5 136.5t137.5 56.5q80 0 136.5 -56.5t56.5 -136.5q0 -81 -56.5 -137.5t-136.5 -56.5zM294 1236q47 0 80.5 33.5t33.5 81.5q0 47 -33.5 80.5t-80.5 33.5q-48 0 -81.5 -33.5t-33.5 -80.5q0 -48 33.5 -81.5t81.5 -33.5z " />
<glyph unicode="&#x2dc;" horiz-adv-x="1034" d="M252 1195h-149q11 145 82.5 227t189.5 82q41 0 80.5 -16.5t78 -36t75.5 -35.5t73 -16q31 0 59.5 26t41.5 80h149q-11 -145 -83.5 -227t-188.5 -82q-41 0 -80.5 16.5t-78 36t-75.5 36t-73 16.5q-31 0 -59.5 -26.5t-41.5 -80.5z" />
<glyph unicode="&#x1d52;" horiz-adv-x="648" d="M321 785q-268 0 -268 283q0 286 268 286q266 0 266 -286q0 -283 -266 -283zM321 912q52 0 75 35.5t23 120.5q0 86 -22.5 122.5t-75.5 36.5q-54 0 -77 -37.5t-23 -121.5t23 -120t77 -36z" />
<glyph unicode="&#x2000;" horiz-adv-x="949" />
<glyph unicode="&#x2001;" horiz-adv-x="1898" />
<glyph unicode="&#x2002;" horiz-adv-x="949" />
<glyph unicode="&#x2003;" horiz-adv-x="1898" />
<glyph unicode="&#x2004;" horiz-adv-x="632" />
<glyph unicode="&#x2005;" horiz-adv-x="474" />
<glyph unicode="&#x2006;" horiz-adv-x="316" />
<glyph unicode="&#x2007;" horiz-adv-x="316" />
<glyph unicode="&#x2008;" horiz-adv-x="237" />
<glyph unicode="&#x2009;" horiz-adv-x="379" />
<glyph unicode="&#x200a;" horiz-adv-x="105" />
<glyph unicode="&#x2010;" horiz-adv-x="680" d="M628 399h-623v254h623v-254z" />
<glyph unicode="&#x2011;" horiz-adv-x="680" d="M628 399h-623v254h623v-254z" />
<glyph unicode="&#x2012;" horiz-adv-x="680" d="M628 399h-623v254h623v-254z" />
<glyph unicode="&#x2013;" horiz-adv-x="1024" d="M1024 430h-1024v140h1024v-140z" />
<glyph unicode="&#x2014;" horiz-adv-x="2048" d="M2048 430h-2048v140h2048v-140z" />
<glyph unicode="&#x2018;" horiz-adv-x="566" d="M290 948q-95 0 -142.5 63.5t-47.5 185.5q0 233 248 425l63 -72q-152 -127 -152 -266q15 2 39 2q73 0 120.5 -44.5t47.5 -117.5q0 -72 -48 -124t-128 -52z" />
<glyph unicode="&#x2019;" horiz-adv-x="563" d="M95 865l-64 95q171 101 179 236q-92 0 -142 57q-43 49 -43 118q0 70 43 122q49 61 142 61q83 0 134 -62q48 -59 48 -146q0 -314 -297 -481z" />
<glyph unicode="&#x201a;" horiz-adv-x="563" d="M95 -359l-64 95q171 101 179 236q-92 0 -142 57q-43 49 -43 118q0 70 43 122q49 61 142 61q83 0 134 -62q48 -59 48 -146q0 -314 -297 -481z" />
<glyph unicode="&#x201c;" horiz-adv-x="1026" d="M750 948q-95 0 -142.5 63.5t-47.5 185.5q0 233 248 425l63 -72q-152 -127 -152 -266q15 2 39 2q73 0 120.5 -44.5t47.5 -117.5q0 -72 -48 -124t-128 -52zM290 948q-95 0 -142.5 63.5t-47.5 185.5q0 233 248 425l63 -72q-152 -127 -152 -266q15 2 39 2q73 0 120.5 -44.5 t47.5 -117.5q0 -72 -48 -124t-128 -52z" />
<glyph unicode="&#x201d;" horiz-adv-x="1013" d="M545 865l-64 95q171 101 179 236q-92 0 -142 57q-43 49 -43 118q0 70 43 122q49 61 142 61q83 0 134 -62q48 -59 48 -146q0 -314 -297 -481zM95 865l-64 95q171 101 179 236q-92 0 -142 57q-43 49 -43 118q0 70 43 122q49 61 142 61q83 0 134 -62q48 -59 48 -146 q0 -314 -297 -481z" />
<glyph unicode="&#x201e;" horiz-adv-x="1018" d="M550 -359l-64 95q171 101 179 236q-92 0 -142 57q-43 49 -43 118q0 70 43 122q49 61 142 61q83 0 134 -62q48 -59 48 -146q0 -314 -297 -481zM95 -359l-64 95q171 101 179 236q-92 0 -142 57q-43 49 -43 118q0 70 43 122q49 61 142 61q83 0 134 -62q48 -59 48 -146 q0 -314 -297 -481z" />
<glyph unicode="&#x2022;" horiz-adv-x="914" d="M457 149q-71 0 -136.5 27t-116 77.5t-77.5 116t-27 136.5t27 136.5t77.5 116t116 77.5t136.5 27t136.5 -27t116 -77.5t77.5 -116t27 -136.5t-27 -136.5t-77.5 -116t-116 -77.5t-136.5 -27z" />
<glyph unicode="&#x2026;" horiz-adv-x="1917" d="M213 -34q-36 0 -69.5 14t-59 39.5t-39.5 59t-14 69.5t14 69.5t39.5 59t59 39.5t69.5 14t69.5 -14t59 -39.5t39.5 -59t14 -69.5t-14 -69.5t-39.5 -59t-59 -39.5t-69.5 -14zM896 -34q-36 0 -69.5 14t-59 39.5t-39.5 59t-14 69.5t14 69.5t39.5 59t59 39.5t69.5 14t69.5 -14 t59 -39.5t39.5 -59t14 -69.5t-14 -69.5t-39.5 -59t-59 -39.5t-69.5 -14zM1579 -34q-36 0 -69.5 14t-59 39.5t-39.5 59t-14 69.5t14 69.5t39.5 59t59 39.5t69.5 14t69.5 -14t59 -39.5t39.5 -59t14 -69.5t-14 -69.5t-39.5 -59t-59 -39.5t-69.5 -14z" />
<glyph unicode="&#x202f;" horiz-adv-x="379" />
<glyph unicode="&#x2039;" horiz-adv-x="862" d="M780 53h-299l-420 471l420 471h299l-420 -471z" />
<glyph unicode="&#x203a;" horiz-adv-x="862" d="M381 53h-299l420 471l-420 471h299l420 -471z" />
<glyph unicode="&#x2044;" horiz-adv-x="1084" d="M214 -100h-173l780 1600h173z" />
<glyph unicode="&#x205f;" horiz-adv-x="474" />
<glyph unicode="&#x20ac;" horiz-adv-x="1359" d="M794 -29q-505 0 -602 473h-119l39 191h58v119h-97l43 190h76q96 469 592 469q365 0 510 -248l-201 -161q-53 78 -90.5 107.5t-85.5 44.5t-116 15q-132 0 -206.5 -55t-107.5 -172h522l-43 -190h-505v-119h487l-39 -191h-424q35 -127 110.5 -179t205.5 -52q92 0 162 40 t143 146l209 -149q-80 -118 -149 -174t-157 -80.5t-215 -24.5z" />
<glyph unicode="&#x2122;" horiz-adv-x="1570" d="M1493 678h-164v423l-142 -247h-102l-140 246v-422h-164v706h187l170 -310l172 310h183v-706zM458 678h-169v563h-213v143h595v-143h-213v-563z" />
<glyph unicode="&#x2212;" horiz-adv-x="920" d="M880 623h-840v180h840v-180z" />
<glyph unicode="&#x25fc;" horiz-adv-x="1050" d="M0 1050h1050v-1050h-1050v1050z" />
<glyph horiz-adv-x="674" d="M267 124q49 0 97.5 86t48.5 173v29q-31 8 -68 8q-64 0 -96 -61q-28 -51 -28 -141q0 -94 46 -94zM227 -13q-174 0 -174 231q0 137 80.5 234t232.5 97q110 0 218 -26v-243q0 -176 35 -280h-161q-30 78 -30 112q-54 -125 -201 -125z" />
<glyph horiz-adv-x="629" d="M520 -7h-163v115h-317v137l312 454h168v-456h85v-135h-85v-115zM357 243v221l-147 -221h147z" />
<glyph horiz-adv-x="328" d="M-86 -100h-173l780 1600h173z" />
<glyph horiz-adv-x="648" d="M321 -15q-268 0 -268 283q0 286 268 286q266 0 266 -286q0 -283 -266 -283zM321 112q52 0 75 35.5t23 120.5q0 86 -22.5 122.5t-75.5 36.5q-54 0 -77 -37.5t-23 -121.5t23 -120t77 -36z" />
<glyph horiz-adv-x="630" d="M457 -7h-169v474q-41 -32 -168 -36v136q161 7 195 132h142v-706z" />
<glyph horiz-adv-x="631" d="M302 -22q-215 0 -262 198l166 28q19 -93 89 -93q103 0 103 107q0 114 -121 114h-63v90l134 142h-265v135h467v-112l-147 -161q173 -32 173 -214q0 -90 -72 -162t-202 -72z" />
<glyph horiz-adv-x="631" d="M577 -7h-525v126q257 216 309 314q20 37 20 78q0 31 -21 47.5t-57 16.5q-40 0 -66.5 -19.5t-53.5 -61.5l-134 94q46 68 108 97t153 29q114 0 179.5 -53t65.5 -145q0 -67 -25 -117.5t-70 -98.5t-112.5 -105.5t-68.5 -58.5h298v-143z" />
</font>
</defs>
</svg>
