<?xml version="1.0" standalone="no"?>
<!DOCTYPE svg PUBLIC "-//W3C//DTD SVG 1.1//EN" "http://www.w3.org/Graphics/SVG/1.1/DTD/svg11.dtd" >
<svg xmlns="http://www.w3.org/2000/svg" xmlns:xlink="http://www.w3.org/1999/xlink" version="1.1">
<metadata></metadata>
<defs>
<font id="cadmanitalic" horiz-adv-x="1200" >
<font-face units-per-em="2048" ascent="1638" descent="-410" />
<missing-glyph horiz-adv-x="650" />
<glyph unicode="&#xfb01;" horiz-adv-x="1299" d="M1110 1198q-64 0 -99 45q-25 31 -25 75q0 83 72 142q53 43 116 43q64 0 99 -44q25 -33 25 -76q0 -82 -70 -140q-55 -45 -118 -45zM-68 -495q-101 0 -171 40l62 132q56 -29 113 -29q131 0 179 227l217 1024h-154l32 150h154l22 102q80 369 391 369q89 0 154 -19 q-67 -60 -86 -142q-39 11 -76 11q-164 0 -211 -219l-22 -102h654l-223 -1049h-172l191 899h-482l-221 -1044q-74 -350 -351 -350z" />
<glyph unicode="&#xfb03;" horiz-adv-x="2019" d="M-68 -505q-101 0 -171 40l62 132q56 -29 103 -29q141 0 189 227l219 1034h-154l32 150h154l20 92q80 369 391 369q123 0 205 -39l-79 -148q-59 37 -134 37q-163 0 -211 -219l-20 -92h548l28 132q78 369 391 369q103 0 175 -26q-75 -54 -105 -136q-39 12 -77 12 q-166 0 -212 -219l-28 -132h653l-223 -1049h-172l191 899h-481l-214 -1014q-74 -350 -351 -350q-101 0 -171 40l62 132q56 -29 113 -29q131 0 179 227l210 994h-548l-223 -1054q-74 -350 -351 -350zM1821 1198q-64 0 -99 45q-25 31 -25 75q0 82 71 141q54 44 118 44 q62 0 97 -44q25 -32 25 -76q0 -84 -70 -140q-55 -45 -117 -45z" />
<glyph horiz-adv-x="0" />
<glyph horiz-adv-x="682" />
<glyph unicode=" "  horiz-adv-x="650" />
<glyph unicode="&#x09;" horiz-adv-x="650" />
<glyph unicode="&#xa0;" horiz-adv-x="650" />
<glyph unicode="!" horiz-adv-x="567" d="M138 -21q-58 0 -90 41q-23 28 -23 68q0 74 64 127q49 41 107 41q57 0 90 -40q22 -29 22 -69q0 -74 -64 -127q-49 -41 -106 -41zM301 399h-145l180 985h199z" />
<glyph unicode="&#x22;" horiz-adv-x="672" d="M588 834h-125l76 550h205zM268 834h-125l76 550h205z" />
<glyph unicode="#" horiz-adv-x="1473" d="M638 0h-130l255 502h-290l-255 -502h-130l255 502h-290l25 119h325l132 261h-402l26 119h437l253 499h130l-253 -499h290l253 499h130l-253 -499h303l-26 -119h-338l-132 -261h415l-25 -119h-450zM823 621l132 261h-290l-132 -261h290z" />
<glyph unicode="$" horiz-adv-x="1077" d="M430 -131h-125l45 209q-132 12 -217 75q-78 58 -111 156l150 84q15 -62 63 -104q56 -51 143 -62l91 422q-153 53 -219 128q-64 71 -64 175q0 146 92 236q108 106 330 117l20 106h127l-22 -111q112 -17 192 -78.5t115 -148.5l-141 -86q-65 142 -197 166l-84 -379 q155 -55 225 -129q72 -77 72 -190q0 -164 -114 -263t-330 -116zM503 225q127 10 186 63q56 50 56 142q0 68 -34.5 109t-125.5 73zM503 809l74 348q-118 -9 -173 -62q-48 -46 -48 -120q0 -64 27.5 -97.5t119.5 -68.5z" />
<glyph unicode="%" horiz-adv-x="1482" d="M345 778q-123 0 -171 75q-28 42 -28 110q0 43 12 98q30 142 107.5 214t192.5 72q201 0 201 -186q0 -45 -12 -100q-29 -138 -105.5 -210.5t-196.5 -72.5zM361 872q124 0 165 189q10 51 10 94q0 98 -84 98q-65 0 -107.5 -43.5t-64.5 -148.5q-11 -50 -11 -87q0 -102 92 -102 zM248 -100h-153l1162 1600h151zM1025 -22q-123 0 -171 75q-28 42 -28 110q0 43 12 98q30 142 107.5 214t192.5 72q201 0 201 -186q0 -45 -12 -100q-29 -138 -105.5 -210.5t-196.5 -72.5zM1041 72q124 0 165 189q10 51 10 94q0 98 -84 98q-65 0 -107.5 -43.5t-64.5 -148.5 q-11 -50 -11 -87q0 -102 92 -102z" />
<glyph unicode="&#x26;" horiz-adv-x="1259" d="M406 -29q-188 0 -280.5 87t-92.5 245q0 156 107 273q83 91 286 206q-53 97 -70.5 159t-17.5 146q0 59 24 117t70.5 104t115 74.5t157.5 28.5q307 0 307 -256q0 -108 -77 -198q-82 -97 -283 -220l202 -364q79 95 176 282l146 -67q-104 -223 -238 -367l127 -221h-196 l-62 104q-178 -133 -401 -133zM410 129q178 0 317 115l-227 407q-89 -54 -145.5 -96t-88.5 -80t-43.5 -75t-11.5 -81q0 -86 51 -138t148 -52zM578 870q149 87 209 151q55 59 55 126q0 62 -34.5 92.5t-112.5 30.5q-91 0 -142 -58q-47 -53 -47 -129q0 -75 43 -157z" />
<glyph unicode="'" horiz-adv-x="352" d="M263 834h-125l76 550h205z" />
<glyph unicode="(" horiz-adv-x="654" d="M487 -395h-183q-100 159 -145 312q-49 164 -49 376q0 328 164 659q161 325 436 568h190q-288 -241 -459 -577q-167 -329 -167 -648q0 -405 213 -690z" />
<glyph unicode=")" horiz-adv-x="656" d="M-90 -395h-191q289 241 459 577q168 330 168 647q0 401 -213 691h182q100 -158 146 -313q49 -168 49 -376q0 -326 -164 -658q-162 -326 -436 -568z" />
<glyph unicode="*" horiz-adv-x="803" d="M464 795h-110l61 274l-270 -156l-49 105l295 145l-242 154l74 92l229 -158l55 269h111l-62 -269l267 144l53 -99l-301 -145l248 -156l-72 -90l-231 158z" />
<glyph unicode="+" horiz-adv-x="895" d="M438 258h-172l78 370h-330l32 148h330l78 370h172l-78 -370h330l-32 -148h-330z" />
<glyph unicode="," horiz-adv-x="369" d="M-29 -309l-62 67q137 92 180 211q-15 -3 -30 -3q-64 0 -99 45q-25 31 -25 75q0 82 71 141q54 44 118 44q65 0 98 -47q19 -28 19 -80q0 -37 -11 -88q-48 -226 -259 -365z" />
<glyph unicode="-" horiz-adv-x="644" d="M555 440h-610l37 172h610z" />
<glyph unicode="." horiz-adv-x="349" d="M53 -33q-64 0 -99 45q-25 31 -25 75q0 82 71 141q54 44 118 44q63 0 98 -44q25 -33 25 -76q0 -82 -71 -140q-54 -45 -117 -45z" />
<glyph unicode="/" horiz-adv-x="790" d="M-66 -299h-166l1077 1819h170z" />
<glyph unicode="0" horiz-adv-x="1199" d="M446 -31q-389 0 -389 424q0 128 36 295q153 719 659 719q391 0 391 -425q0 -127 -35 -292q-154 -721 -662 -721zM481 129q313 0 432 561q33 153 33 265q0 292 -227 292q-312 0 -431 -559q-33 -154 -33 -266q0 -293 226 -293zM579 585q-43 0 -68 31q-16 20 -16 52 q0 53 49 93q35 30 79 30q41 0 65 -30q18 -22 18 -51q0 -54 -48 -94q-37 -31 -79 -31z" />
<glyph unicode="1" d="M607 0h-183l227 1069q-143 -95 -354 -102l33 154q300 14 439 263h132z" />
<glyph unicode="2" d="M971 0h-928l41 195q290 208 422 312.5t221.5 186t145.5 159t75 169.5q6 29 6 56q0 65 -47 118t-160 53q-107 0 -184 -47t-141 -123l-133 99q99 124 223.5 179.5t277.5 55.5q201 0 298 -99q68 -71 68 -184q0 -45 -11 -98q-19 -92 -62 -172.5t-114 -153.5t-184.5 -167 t-496.5 -371h719z" />
<glyph unicode="3" d="M423 -31q-194 0 -290 107q-80 88 -80 230q0 28 3 58l193 16l-1 -32q0 -221 209 -221q133 0 228 78t129 236q9 42 9 79q0 92 -67 157t-221 65h-93l29 136l399 345h-626l34 160h868l-34 -159l-388 -336q154 -20 241 -132q59 -77 59 -189q0 -51 -12 -110 q-49 -233 -208 -360.5t-381 -127.5z" />
<glyph unicode="4" horiz-adv-x="1201" d="M821 0h-178l65 307h-622l38 178l801 899h190l-195 -917h191l-34 -160h-191zM742 467l139 653l-579 -653h440z" />
<glyph unicode="5" d="M414 -29q-160 0 -253 59.5t-126 143.5l174 100q62 -141 235 -141q155 0 246 83t121 226q8 39 8 73q0 198 -249 198q-149 0 -274 -72h-90l233 743h725l-35 -167h-573l-127 -396q47 23 109 35t119 12q213 0 302 -108q59 -72 59 -188q0 -59 -15 -130q-46 -217 -193.5 -344 t-395.5 -127z" />
<glyph unicode="6" d="M454 -29q-251 0 -330 177q-41 91 -41 226q0 127 36 292q75 356 265.5 551.5t415.5 195.5q218 0 318 -113l-145 -143q-70 96 -207 96q-274 0 -422 -473q66 41 160 74t196 33q191 0 282 -107q60 -71 60 -192q0 -63 -16 -139q-49 -232 -200 -355t-372 -123zM496 131 q138 0 224.5 80t118.5 231q10 50 10 91q0 192 -231 192q-78 0 -162.5 -27.5t-144.5 -60.5q-31 -146 -31 -248q0 -154 53.5 -206t162.5 -52z" />
<glyph unicode="7" d="M341 0h-205l806 1217h-681l35 167h867l-36 -172z" />
<glyph unicode="8" horiz-adv-x="1199" d="M460 -29q-395 0 -395 278q0 49 12 107q56 267 379 379q-204 102 -204 264q0 29 6 60q75 354 508 354q368 0 368 -256q0 -44 -11 -96q-46 -212 -339 -326q230 -104 230 -299q0 -38 -9 -80q-82 -385 -545 -385zM638 811q269 106 299 246q7 32 7 59q0 150 -209 150 q-248 0 -291 -203q-3 -15 -3 -31q0 -117 197 -221zM492 121q279 0 329 235q6 26 6 51q0 156 -221 252q-353 -127 -353 -369q0 -169 239 -169z" />
<glyph unicode="9" d="M374 0h-222q480 388 613 633q-132 -109 -305 -109q-191 0 -271 114q-53 74 -53 186q0 59 15 129q39 186 190.5 320.5t354.5 134.5q217 0 310 -129q59 -81 59 -214q0 -78 -20 -174q-95 -447 -671 -891zM527 666q129 0 222 75t121 207q12 56 12 101q0 82 -49 145.5 t-171 63.5q-118 0 -206 -80t-118 -221q-12 -55 -12 -100q0 -191 201 -191z" />
<glyph unicode=":" horiz-adv-x="518" d="M276 644q-64 0 -99 45q-25 31 -25 75q0 82 71 141q54 44 118 44q63 0 98 -44q25 -33 25 -76q0 -82 -71 -140q-54 -45 -117 -45zM133 -30q-64 0 -99 45q-25 31 -25 75q0 82 71 141q54 44 118 44q63 0 98 -44q25 -33 25 -76q0 -82 -71 -140q-54 -45 -117 -45z" />
<glyph unicode=";" horiz-adv-x="524" d="M251 645q-64 0 -99 45q-25 31 -25 75q0 82 71 141q54 44 118 44q63 0 98 -44q25 -33 25 -76q0 -82 -71 -140q-54 -45 -117 -45zM63 -309l-62 67q137 92 180 211q-15 -3 -30 -3q-64 0 -99 45q-25 31 -25 75q0 82 71 141q54 44 118 44q65 0 98 -47q19 -28 19 -80 q0 -37 -11 -88q-48 -226 -259 -365z" />
<glyph unicode="&#x3c;" horiz-adv-x="970" d="M767 200l-742 393l37 174l907 386l-37 -173l-740 -310l609 -307z" />
<glyph unicode="=" horiz-adv-x="1006" d="M937 782h-837l31 143h837zM876 492h-837l30 145h837z" />
<glyph unicode="&#x3e;" horiz-adv-x="988" d="M10 200l37 181l742 317l-611 300l34 155l743 -386l-37 -174z" />
<glyph unicode="?" horiz-adv-x="922" d="M204 -21q-58 0 -90 41q-23 28 -23 68q0 74 64 127q49 41 107 41q57 0 90 -40q22 -29 22 -69q0 -74 -64 -127q-49 -41 -106 -41zM373 379h-174q60 284 278 392q255 126 255 315q0 163 -218 163q-185 0 -297 -141l-131 98q160 207 461 207q198 0 293 -82t95 -194 q0 -40 -10 -86q-43 -206 -276.5 -339.5t-275.5 -332.5z" />
<glyph unicode="@" horiz-adv-x="1856" d="M830 -162q-325 0 -511.5 191t-186.5 522q0 270 131 502.5t355 359.5t503 127q197 0 339.5 -78t217.5 -221t75 -330q0 -185 -56.5 -335t-160 -234.5t-229.5 -84.5q-204 0 -221 190h-8q-115 -190 -301 -190q-119 0 -186.5 78t-67.5 216q0 163 70 294t195 205.5t269 74.5 q68 0 132.5 -12t155.5 -50l-101 -380q-32 -120 -32 -178q0 -121 105 -121q81 0 146.5 69.5t103.5 189.5t38 252q0 247 -132 379.5t-382 132.5q-236 0 -420.5 -111t-286.5 -305.5t-102 -430.5q0 -279 148.5 -433t423.5 -154q203 0 434 89v-131q-226 -93 -458 -93zM813 384 q194 0 282 326l72 266q-65 24 -131 24q-97 0 -180 -57t-130.5 -158t-47.5 -219q0 -96 34 -139t101 -43z" />
<glyph unicode="A" horiz-adv-x="1252" d="M1089 0h-187l-43 360h-564l-195 -360h-197l767 1384h240zM836 528l-82 674l-368 -674h450z" />
<glyph unicode="B" horiz-adv-x="1319" d="M513 0h-451l294 1384h410q254 0 351 -72q71 -53 71 -158q0 -39 -10 -85q-52 -247 -281 -313q133 -19 197 -101q42 -53 42 -141q0 -48 -13 -108q-86 -406 -610 -406zM623 809q166 0 249 53t108 166q6 30 6 54q0 64 -48.5 101.5t-217.5 37.5h-213l-88 -412h204zM471 168 q176 0 260 23.5t133 77t69 145.5q8 38 8 69q0 39 -18 77.5t-83 61.5t-221 23h-235l-101 -477h188z" />
<glyph unicode="C" horiz-adv-x="1297" d="M568 -29q-291 0 -408 184q-77 121 -77 269q0 118 32 268q77 361 261.5 541t489.5 180q331 0 441 -260l-163 -90q-79 186 -313 186q-208 0 -334.5 -138.5t-186.5 -418.5q-28 -129 -28 -229q0 -328 315 -328q118 0 214.5 46.5t190.5 160.5l131 -100q-88 -106 -168 -160.5 t-177 -82.5t-220 -28z" />
<glyph unicode="D" horiz-adv-x="1292" d="M406 0h-352l294 1384h348q242 0 368 -69q173 -97 173 -354q0 -116 -32 -269q-54 -254 -151.5 -404t-248.5 -219t-399 -69zM428 168q182 0 292 50.5t179 162t112 313.5q28 132 28 226q0 187 -103.5 242t-284.5 55h-154l-223 -1049h154z" />
<glyph unicode="E" horiz-adv-x="1144" d="M905 0h-846l294 1384h846l-63 -167h-633l-86 -404h565l-36 -168h-565l-101 -477h636z" />
<glyph unicode="F" horiz-adv-x="1078" d="M246 0h-185l294 1384h838l-63 -167h-625l-88 -414h555l-36 -168h-555z" />
<glyph unicode="G" horiz-adv-x="1390" d="M574 -29q-312 0 -424 179q-66 106 -66 276q0 117 31 264q152 723 753 723q360 0 441 -260l-172 -102q-69 198 -306 198q-209 0 -335 -138t-187 -423q-27 -129 -27 -226q0 -123 60 -225t267 -102q130 0 312 72l70 328h-336l35 167h521l-126 -596q-265 -135 -511 -135z" />
<glyph unicode="H" horiz-adv-x="1449" d="M1059 0h-185l135 633h-630l-135 -633h-185l294 1384h185l-124 -583h630l124 583h185z" />
<glyph unicode="I" horiz-adv-x="789" d="M524 0h-566l34 160h191l227 1067h-191l33 157h566l-33 -157h-191l-227 -1067h191z" />
<glyph unicode="J" horiz-adv-x="858" d="M83 -31q-59 0 -129.5 14.5t-119.5 36.5l102 158q28 -16 85 -30.5t95 -14.5q81 0 131 28t83 92.5t61 199.5l163 763h-307l35 168h491l-214 -1007q-43 -203 -154 -305.5t-322 -102.5z" />
<glyph unicode="K" horiz-adv-x="1223" d="M1092 0h-238l-462 677l-144 -677h-189l294 1384h189l-135 -637l718 637h233l-762 -661z" />
<glyph unicode="L" horiz-adv-x="1034" d="M870 0h-811l294 1384h185l-258 -1216h626z" />
<glyph unicode="M" horiz-adv-x="1604" d="M1288 0h-176l244 1147l-547 -770h-115l-215 770l-244 -1147h-176l294 1384h250l207 -753l530 753h242z" />
<glyph unicode="N" horiz-adv-x="1402" d="M1086 0h-219l-372 1188l-253 -1188h-178l294 1384h271l342 -1087l231 1087h178z" />
<glyph unicode="O" horiz-adv-x="1380" d="M556 -29q-256 0 -365.5 122t-109.5 312q0 124 35 287q82 384 264.5 552.5t481.5 168.5q245 0 359.5 -115t114.5 -317q0 -124 -34 -289q-83 -393 -268.5 -557t-477.5 -164zM591 135q203 0 327 123t190 434q31 148 31 253q0 154 -73 229t-239 75q-206 0 -329 -125 t-188 -432q-32 -148 -32 -253q0 -145 69.5 -224.5t243.5 -79.5z" />
<glyph unicode="P" horiz-adv-x="1237" d="M247 0h-185l294 1384h410q259 0 352 -107q62 -70 62 -193q0 -64 -17 -142q-53 -250 -194 -361.5t-405 -111.5h-217zM560 637q146 0 220 28.5t119 92t69 180.5q11 51 11 92q0 76 -47.5 131.5t-221.5 55.5h-204l-124 -580h178z" />
<glyph unicode="Q" horiz-adv-x="1384" d="M591 135q46 0 87 7l-148 320h220l111 -241q177 140 247 471q31 148 31 253q0 304 -312 304q-206 0 -329 -125t-188 -432q-32 -148 -32 -253q0 -145 69.5 -224.5t243.5 -79.5zM1074 -239h-220l-107 231q-88 -21 -191 -21q-256 0 -365.5 122t-109.5 312q0 124 35 287 q82 384 264.5 552.5t481.5 168.5q255 0 364.5 -120t109.5 -312q0 -124 -34 -289q-96 -453 -370 -622z" />
<glyph unicode="R" horiz-adv-x="1285" d="M1058 0h-217l-233 565h-241l-120 -565h-185l294 1384h430q258 0 350 -95q63 -65 63 -178q0 -53 -14 -116q-36 -170 -125.5 -269t-250.5 -132zM633 729q116 0 187.5 24.5t111 78t60.5 149.5q10 45 10 81q0 73 -49 116t-203 43h-243l-105 -492h231z" />
<glyph unicode="S" horiz-adv-x="1234" d="M456 -29q-187 0 -298 66t-161 205l172 100q73 -207 318 -207q147 0 244.5 61.5t120.5 168.5q5 23 5 45q0 158 -269 213q-405 82 -405 321q0 34 8 70q39 184 180 291.5t377 107.5q188 0 285.5 -69.5t139.5 -178.5l-169 -104q-35 90 -102.5 139t-188.5 49 q-135 0 -222.5 -59.5t-108.5 -159.5q-4 -18 -4 -35q0 -146 288 -199q387 -71 387 -330q0 -41 -10 -87q-42 -194 -192 -301t-395 -107z" />
<glyph unicode="T" horiz-adv-x="1184" d="M529 0h-184l258 1217h-459l36 167h1102l-36 -167h-459z" />
<glyph unicode="U" horiz-adv-x="1391" d="M542 -31q-186 0 -306 80t-120 269q0 109 33 260l171 806h185l-167 -786q-30 -139 -30 -229q0 -148 70 -192t196 -44q127 0 208 42.5t133.5 135.5t92.5 283l168 790h185l-171 -806q-48 -227 -127 -358t-201.5 -191t-319.5 -60z" />
<glyph unicode="V" horiz-adv-x="1187" d="M569 -10h-248l-140 1394h193l114 -1206l627 1206h189z" />
<glyph unicode="W" horiz-adv-x="1754" d="M1192 -10h-221l-25 1118l-498 -1118h-217l-33 1394h184l21 -1118l499 1118h209l27 -1126l501 1126h181z" />
<glyph unicode="X" horiz-adv-x="1168" d="M981 0h-217l-218 557l-460 -557h-207l597 694l-290 690h217l211 -546l454 546h207l-587 -684z" />
<glyph unicode="Y" horiz-adv-x="1031" d="M471 0h-187l112 526l-256 858h209l182 -673l475 673h199l-620 -849z" />
<glyph unicode="Z" horiz-adv-x="1140" d="M901 0h-965l37 176l951 1041h-698l35 167h917l-35 -165l-960 -1051h754z" />
<glyph unicode="[" horiz-adv-x="788" d="M473 -395h-477l399 1884h477l-28 -133h-322l-344 -1618h322z" />
<glyph unicode="\" horiz-adv-x="971" d="M788 -299h-155l-324 1819h158z" />
<glyph unicode="]" horiz-adv-x="788" d="M403 -395h-475l27 133h321l345 1618h-324l29 133h477z" />
<glyph unicode="^" horiz-adv-x="1133" d="M1036 649h-129l-174 592l-422 -592h-145l524 735h135z" />
<glyph unicode="_" horiz-adv-x="1024" d="M868 -256h-1063l23 102h1063z" />
<glyph unicode="`" horiz-adv-x="545" d="M423 1208h-110q-53 57 -119.5 163t-91.5 175l5 23h203q15 -76 51 -175.5t68 -157.5z" />
<glyph unicode="a" horiz-adv-x="1248" d="M412 147q125 0 296.5 240t197.5 369l26 131q-69 18 -181 18q-202 0 -331 -183.5t-129 -382.5q0 -192 121 -192zM356 -26q-255 0 -255 304q0 342 216 567.5t473 225.5q192 0 356 -47l-98 -479q-47 -231 -47 -434q0 -68 1 -111h-175l-1 38q0 212 42 384 q-260 -448 -512 -448z" />
<glyph unicode="b" horiz-adv-x="1278" d="M556 131q143 0 272.5 139t129.5 374q0 249 -158 249q-94 0 -235.5 -166t-189.5 -277l-49 -240q131 -79 230 -79zM526 -26q-191 0 -411 115l211 1021q22 101 40 255q15 123 15 202l-1 33h190v-15q0 -24 -3 -69q-8 -120 -28 -254q-10 -64 -100 -507q230 316 440 316 q267 0 267 -388q0 -257 -176 -483t-444 -226z" />
<glyph unicode="c" horiz-adv-x="1062" d="M513 -26q-164 0 -285.5 118t-121.5 336q0 264 179.5 453.5t447.5 189.5q176 0 291 -88l-73 -185q-111 103 -259 103q-161 0 -278 -136t-117 -322q0 -144 72 -221.5t189 -77.5q169 0 330 124l-7 -181q-155 -113 -368 -113z" />
<glyph unicode="d" horiz-adv-x="1295" d="M443 137q206 0 437 435l46 247q-114 79 -253 79q-169 0 -277 -177.5t-108 -369.5q0 -214 155 -214zM404 -26q-306 0 -306 374q0 262 176 492.5t418 230.5q137 0 268 -89q56 303 75 424q13 86 13 164v30h193v-26q0 -67 -14.5 -159t-41.5 -231l-127 -638q-46 -233 -46 -413 q0 -94 9 -133h-183l-1 60q0 146 16 240q-188 -326 -449 -326z" />
<glyph unicode="e" horiz-adv-x="1146" d="M502 620q165 0 256 49q83 44 83 119q0 55 -48.5 91.5t-118.5 36.5q-235 0 -360 -285q99 -11 188 -11zM508 -26q-179 0 -289.5 112.5t-110.5 337.5q0 260 175.5 453.5t436.5 193.5q146 0 229.5 -70.5t83.5 -183.5q0 -146 -110 -236q-129 -105 -386 -105q-108 0 -249 19 q-2 -21 -2 -41q0 -141 65 -224q68 -88 195 -88q203 0 396 142l-6 -197q-203 -113 -428 -113z" />
<glyph unicode="f" horiz-adv-x="782" d="M-76 -495q-101 0 -171 40l59 132q56 -29 103 -29q141 0 189 227l219 1024h-154l32 150h154l22 102q79 369 414 369q113 0 195 -39l-79 -148q-59 37 -134 37q-164 0 -211 -219l-22 -102h233l-32 -150h-233l-223 -1044q-75 -350 -361 -350z" />
<glyph unicode="g" horiz-adv-x="1258" d="M423 168q94 0 241 160t193 255l53 273q-118 42 -207 42q-163 0 -282 -161.5t-119 -383.5q0 -185 121 -185zM394 -488q-186 0 -339 126l95 163q121 -111 258 -111q282 0 340 300l63 325q-218 -320 -437 -320q-266 0 -266 332q0 253 186 498.5t478 245.5q147 0 346 -79 l-173 -966q-92 -514 -551 -514z" />
<glyph unicode="h" horiz-adv-x="1276" d="M1038 0h-185q-9 45 -9 112q0 117 42.5 336t42.5 258q0 187 -126 187q-109 0 -236.5 -153t-200.5 -312l-88 -428h-185l226 1110q55 273 55 457l-1 33h190v-16q0 -128 -34 -342q-14 -82 -96 -483q225 312 444 312q250 0 250 -297q0 -93 -52.5 -309.5t-52.5 -340.5 q0 -70 16 -124z" />
<glyph unicode="i" horiz-adv-x="563" d="M343 1197q-64 0 -99 45q-25 31 -25 75q0 82 71 141q54 44 118 44q63 0 98 -44q25 -33 25 -76q0 -82 -71 -140q-54 -45 -117 -45zM232 0h-185l191 899h-100l32 150h285z" />
<glyph unicode="j" horiz-adv-x="693" d="M431 1198q-64 0 -99 45q-25 31 -25 75q0 82 71 141q54 44 118 44q63 0 98 -44q25 -33 25 -76q0 -82 -71 -140q-54 -45 -117 -45zM-92 -505q-110 0 -192 40l71 152q66 -29 150 -29q131 0 178 217l218 1024h-110l32 150h295l-255 -1194q-76 -360 -387 -360z" />
<glyph unicode="k" horiz-adv-x="1120" d="M995 0h-235q-203 488 -368 549l-112 -549h-185q249 1194 268 1363q13 122 13 204l-1 33h190v-20q0 -119 -33 -328q-13 -79 -130 -650q433 276 457 448h225v-2q0 -83 -128.5 -204.5t-350.5 -257.5q160 -123 390 -586z" />
<glyph unicode="l" horiz-adv-x="704" d="M339 271q-8 -37 -8 -62q0 -70 81 -70q28 0 81 8l-10 -160q-80 -16 -138 -16q-119 0 -174 51q-35 32 -35 103q0 42 12 97q212 964 225 1113q13 150 13 232l-1 33h190v-20q0 -119 -33 -363q-9 -67 -203 -946z" />
<glyph unicode="m" horiz-adv-x="1720" d="M1493 0h-185q-11 49 -11 112q0 139 54 360.5t54 277.5q0 143 -85 143q-93 0 -212.5 -175t-173.5 -341l-76 -377h-185l105 510q35 170 35 246q0 137 -75 137q-81 0 -197.5 -162t-191.5 -354l-76 -377h-185l126 625q12 57 19 170q4 70 4 133q0 92 -4 122h180q2 -50 3 -111 q-2 -137 -21 -225q196 357 402 357q88 0 140.5 -61.5t52.5 -169.5q0 -38 -15 -126q188 357 407 357q218 0 218 -238q0 -103 -60.5 -344t-60.5 -365q0 -75 14 -124z" />
<glyph unicode="n" horiz-adv-x="1242" d="M1033 0h-185q-11 49 -11 112q0 135 43.5 327t43.5 275q0 179 -126 179q-108 0 -235.5 -154t-210.5 -350l-79 -389h-185l126 625q22 109 22 280l-3 145h180q5 -40 5 -80q0 -85 -23 -264q230 365 477 365q250 0 250 -297q0 -81 -51.5 -308.5t-51.5 -341.5q0 -75 14 -124z " />
<glyph unicode="o" horiz-adv-x="1217" d="M478 -31q-225 0 -314 139q-54 83 -54 217q0 88 23 197q60 281 208.5 419t362.5 138q376 0 376 -357q0 -89 -24 -200q-58 -273 -205.5 -413t-372.5 -140zM510 129q133 0 223.5 93t134.5 300q22 102 22 188q0 210 -197 210q-145 0 -236 -92.5t-136 -305.5q-21 -99 -21 -173 q0 -220 210 -220z" />
<glyph unicode="p" horiz-adv-x="1294" d="M229 -504h-195v23q0 87 23 212q14 76 158 768q44 216 44 459q0 32 -2 92h180q5 -23 5 -106q0 -125 -17 -230q222 357 456 357q277 0 277 -384q0 -282 -173.5 -497.5t-411.5 -215.5q-134 0 -259 115l-56 -273q-30 -149 -30 -280zM607 142q140 0 249 152t109 350 q0 249 -158 249q-156 0 -418 -439l-36 -186q136 -126 254 -126z" />
<glyph unicode="q" horiz-adv-x="1247" d="M422 147q76 0 214 161t201 285l53 265q-97 40 -198 40q-167 0 -284.5 -165t-117.5 -368q0 -218 132 -218zM864 -187q123 93 312 100l-32 -154q-280 -14 -400 -263h-107v29q0 84 17 196q8 50 133 594q-223 -341 -434 -341q-95 0 -175.5 85t-80.5 263q0 271 187 510 t477 239q134 0 343 -79z" />
<glyph unicode="r" horiz-adv-x="1007" d="M273 0h-185l126 625q22 109 22 280l-3 145h180q1 -28 1 -70q0 -160 -20 -271q235 362 408 362q172 0 172 -218q0 -60 -15 -128l-164 -32q7 35 7 69q0 131 -74 131q-109 0 -367 -457z" />
<glyph unicode="s" horiz-adv-x="1020" d="M375 -31q-261 0 -336 189l155 84q52 -117 217 -117q124 0 184.5 51.5t60.5 122.5q0 126 -240 178q-230 50 -230 223q0 174 126.5 276.5t313.5 102.5q227 0 317 -184l-155 -84q-55 123 -196 123q-96 0 -158.5 -48.5t-62.5 -129.5q0 -114 239 -171q230 -53 230 -228 q0 -165 -121.5 -276.5t-343.5 -111.5z" />
<glyph unicode="t" horiz-adv-x="832" d="M448 -31q-244 0 -244 213q0 59 16 135l124 582h-150l32 150h150l54 255l202 80l-71 -335h266l-32 -150h-266l-114 -539q-18 -84 -18 -136q0 -101 107 -101q66 0 137 28l12 -151q-107 -31 -205 -31z" />
<glyph unicode="u" horiz-adv-x="1222" d="M504 -28q-363 0 -363 325q0 92 156 752h185l-136 -641q-12 -58 -12 -103q0 -182 182 -182q120 0 189 65.5t101 215.5l137 645h185l-143 -671q-39 -187 -166.5 -296.5t-314.5 -109.5z" />
<glyph unicode="v" horiz-adv-x="1047" d="M435 -10h-200q5 125 5 236q0 474 -101 824h200q68 -232 68 -595q0 -154 -15 -270q423 531 423 852v13h200v-10q0 -321 -580 -1050z" />
<glyph unicode="w" horiz-adv-x="1633" d="M1098 -10h-200q-19 579 -46 813q-97 -269 -444 -813h-200q17 190 17 388q0 415 -82 672h200q49 -190 49 -451q0 -221 -27 -409q279 441 441 860h162q72 -468 72 -860q353 565 353 837v23h200v-6q0 -287 -495 -1054z" />
<glyph unicode="x" horiz-adv-x="1098" d="M949 0h-247q-78 124 -204 439q-264 -168 -264 -428v-11h-200q11 308 414 557q-137 345 -298 493h258q57 -63 204 -422q246 191 246 422h210q0 -244 -405 -544q155 -376 286 -506z" />
<glyph unicode="y" horiz-adv-x="1097" d="M66 -488q-143 0 -246 92l93 165q83 -79 168 -79q160 0 330 293q-55 728 -307 1067h215q194 -297 229 -852q284 521 284 784q0 39 -8 68h200q5 -14 5 -46q0 -277 -413 -997q-284 -495 -550 -495z" />
<glyph unicode="z" horiz-adv-x="1053" d="M720 -26q-83 0 -221 52.5t-220 52.5q-118 0 -214 -105l-62 75l747 847h-563l30 154h795l-20 -98l-657 -739q32 12 71 12q69 0 179.5 -38t171.5 -38q92 0 151 32l-35 -181q-65 -26 -153 -26z" />
<glyph unicode="{" horiz-adv-x="956" d="M662 -395h-68q-151 0 -234.5 71.5t-83.5 204.5q0 25 3.5 51t24.5 128q23 108 29.5 144.5t6.5 86.5q0 41 -13 77q-29 75 -113 106q-43 15 -122 15l33 148h18q152 0 240 90q82 84 121 266l31 146q38 185 150.5 283t293.5 98h88l-29 -134h-69q-229 0 -285 -264l-37 -172 q-38 -184 -117 -271.5t-239 -117.5q205 -78 205 -280q0 -51 -13 -107l-37 -172q-14 -70 -14 -111q0 -80 49.5 -116.5t157.5 -36.5h49z" />
<glyph unicode="|" horiz-adv-x="852" d="M353 -395h-156l407 1915h156z" />
<glyph unicode="}" horiz-adv-x="956" d="M-6 -395h-88l28 133h70q229 0 285 264l37 172q38 184 117 271.5t239 117.5q-205 78 -205 281q0 47 12 106q38 177 47 223q5 25 5 60q0 80 -49.5 116.5t-157.5 36.5h-49l26 134h68q150 0 233.5 -71.5t83.5 -205.5q0 -49 -12 -104l-31 -148q-20 -87 -20 -157q0 -42 14 -78 q28 -76 112 -105q43 -16 122 -16l-33 -148h-19q-153 0 -239 -88q-82 -85 -121 -268l-31 -145q-38 -186 -151 -283.5t-293 -97.5z" />
<glyph unicode="~" horiz-adv-x="1399" d="M979 600q-64 0 -128.5 24.5t-126 54.5t-117.5 54.5t-103 24.5q-85 0 -160.5 -33.5t-165.5 -110.5l35 160q160 127 301 127q69 0 132.5 -24.5t123 -54.5t115.5 -54.5t110 -24.5q142 0 322 144l-35 -160q-66 -53 -132 -84q-91 -43 -171 -43z" />
<glyph unicode="&#xa1;" horiz-adv-x="567" d="M393 1265q58 0 91 -40q22 -29 22 -69q0 -74 -64 -127q-49 -41 -107 -41q-57 0 -89 41q-23 28 -23 68q0 74 64 127q49 41 106 41zM230 845h145l-180 -985h-199z" />
<glyph unicode="&#xa2;" horiz-adv-x="1024" d="M862 162q-33 -42 -73 -77t-89 -60.5t-107 -39.5t-128 -14h-45l-78 -231h-117l84 252q-57 18 -98.5 50.5t-68.5 79t-39.5 105.5t-12.5 129t13.5 150.5t43 161t76 154.5t111.5 131.5t150 91.5t192 34l72 209h116l-76 -223q78 -20 133 -63.5t83 -114.5l-152 -82 q-17 42 -44.5 69t-68.5 41l-270 -796q46 1 84 10.5t71 27.5t62.5 43.5t58.5 57.5zM266 348q0 -74 21.5 -127.5t72.5 -79.5l265 787q-61 -5 -112 -33.5t-90.5 -73.5t-69 -102.5t-49 -120.5t-29 -127.5t-9.5 -122.5z" />
<glyph unicode="&#xa3;" d="M966 0h-946l33 156q72 14 150 119t120 303h-156l32 151h150v25q0 44 -5 101q-2 19 -2 40q0 55 14 119q84 399 523 399q286 0 339 -209l-155 -100q-31 148 -238 148q-288 0 -288 -353l1 -39q3 -42 3 -73q0 -36 -4 -58h381l-32 -151h-373q-63 -295 -251 -422h737z" />
<glyph unicode="&#xa4;" horiz-adv-x="1294" d="M649 494q58 0 116 22q121 46 192 158q52 82 52 170q0 85 -48 147q-69 86 -188 86q-58 0 -116 -22q-122 -47 -191 -158q-53 -84 -53 -174q0 -25 8 -64t40 -80t81 -63t107 -22zM1051 240l-160 203q-133 -83 -270 -83q-84 0 -156 33q-44 19 -78 49l-244 -202l-72 92l243 203 q-38 71 -38 163q0 43 10 87q30 139 134 249l-157 204l112 92l157 -202q128 82 269 82q138 0 235 -83l247 203l74 -92l-248 -205q37 -71 37 -160q0 -44 -10 -88q-30 -139 -134 -249l163 -204z" />
<glyph unicode="&#xa5;" horiz-adv-x="1031" d="M471 0h-187l112 526l-256 858h209l182 -673l475 673h199l-620 -849zM912 532h-831l32 148h831zM853 246h-831l32 148h831z" />
<glyph unicode="&#xa6;" horiz-adv-x="479" d="M350 800h-150l170 800h150zM116 -300h-150l170 800h150z" />
<glyph unicode="&#xa7;" horiz-adv-x="1026" d="M349 -104q-202 0 -309 81l90 139q104 -71 255 -71q235 0 265 141q2 11 2 22q0 110 -245 202q-234 87 -234 246q0 24 6 51q36 170 206 264q-92 64 -92 176q0 33 8 69q30 139 150 212t295 73q171 0 320 -76l-100 -152q-100 76 -261 76q-194 0 -224 -139q-2 -11 -2 -21 q0 -111 247 -195q232 -80 232 -245q0 -27 -6 -57q-35 -167 -195 -266q88 -63 88 -164q0 -28 -7 -59q-30 -142 -160.5 -224.5t-328.5 -82.5zM616 498q125 75 147 178q3 15 3 29q0 124 -239 192q-135 -57 -159 -170q-3 -13 -3 -25q0 -119 251 -204z" />
<glyph unicode="&#xa8;" horiz-adv-x="763" d="M533 1210q-64 0 -99 45q-25 31 -25 75q0 82 71 141q54 44 118 44q63 0 98 -44q25 -33 25 -76q0 -82 -71 -140q-54 -45 -117 -45zM133 1210q-64 0 -99 45q-25 31 -25 75q0 82 71 141q54 44 118 44q63 0 98 -44q25 -33 25 -76q0 -82 -71 -140q-54 -45 -117 -45z" />
<glyph unicode="&#xa9;" horiz-adv-x="1859" d="M744 -195q-223 0 -386 110q-159 106 -224 289q-39 109 -39 233q0 83 19 173q47 223 196 410q143 180 348.5 285.5t426.5 105.5q224 0 387 -109q157 -105 224 -287q39 -108 39 -228q0 -86 -19 -177q-50 -227 -197 -412q-144 -182 -348 -286q-210 -107 -427 -107zM772 -59 q92 0 183 24q180 48 330 172.5t233 294.5q76 157 76 319q0 18 -3.5 69.5t-30.5 125.5t-74.5 134.5t-112.5 104t-145 67.5t-172 24t-181 -24q-176 -47 -326.5 -171t-233.5 -294q-77 -157 -77 -320q0 -18 3.5 -69.5t30.5 -125.5t74.5 -135t111.5 -104.5t143 -67.5t171 -24z M846 168q-203 0 -275 112q-43 67 -43 173q0 71 19 159q47 221 164.5 333t319.5 112q116 0 190 -51q67 -47 92 -129l-143 -78q-19 59 -51 89q-43 38 -118 38q-127 0 -201 -78q-69 -74 -104 -236q-15 -73 -15 -129q0 -66 31.5 -125t157.5 -59q131 0 235 133l111 -74 q-70 -88 -151 -134q-97 -56 -219 -56z" />
<glyph unicode="&#xaa;" horiz-adv-x="744" d="M283 991q63 0 141.5 116.5t91.5 180.5l12 62q-23 6 -76 6q-91 0 -148.5 -91t-57.5 -185q0 -89 37 -89zM255 890q-132 0 -132 159q0 167 106 285.5t243 118.5q99 0 192 -27l-50 -244q-23 -115 -23 -217q0 -33 1 -62h-116v135q-86 -148 -221 -148zM601 690h-544l28 132h544 z" />
<glyph unicode="&#xab;" horiz-adv-x="913" d="M885 53h-191l-284 471l485 471h199l-492 -481zM535 53h-191l-284 471l485 471h199l-492 -481z" />
<glyph unicode="&#xac;" horiz-adv-x="1011" d="M838 300h-127l60 285h-684l25 115h811z" />
<glyph unicode="&#xad;" horiz-adv-x="644" d="M546 440h-610l37 172h610z" />
<glyph unicode="&#xae;" horiz-adv-x="1855" d="M807 -195q-223 0 -386 110q-159 106 -224 289q-39 109 -39 233q0 83 19 173q47 223 196 410q143 180 348.5 285.5t426.5 105.5q224 0 387 -109q157 -105 224 -287q39 -108 39 -228q0 -86 -19 -177q-50 -227 -197 -412q-144 -182 -348 -286q-210 -107 -427 -107zM835 -59 q92 0 183 24q180 48 330 172.5t233 294.5q76 157 76 319q0 18 -3.5 69.5t-30.5 125.5t-74.5 134.5t-112.5 104t-145 67.5t-172 24t-181 -24q-176 -47 -326.5 -171t-233.5 -294q-77 -157 -77 -320q0 -18 3.5 -69.5t30.5 -125.5t74.5 -135t111.5 -104.5t143 -67.5t171 -24z M1263 199h-172l-146 333h-123l-71 -333h-147l181 852h276q159 0 222 -52q50 -42 50 -122q0 -33 -9 -74q-23 -107 -79 -169q-51 -55 -137 -79zM972 659q98 0 140.5 30.5t58.5 107.5q6 26 6 47q0 33 -20 53q-30 27 -123 27h-129l-56 -265h123z" />
<glyph unicode="&#xaf;" horiz-adv-x="686" d="M601 1290h-544l28 132h544z" />
<glyph unicode="&#xb0;" horiz-adv-x="740" d="M364 972q-110 0 -171 78q-43 55 -43 130q0 27 6 56q23 108 116.5 186t203.5 78t170 -77q44 -57 44 -133q0 -27 -6 -54q-23 -108 -116.5 -186t-203.5 -78zM386 1078q32 0 63 12q66 25 104 86q28 46 28 93q0 45 -26 79q-36 46 -102 46q-31 0 -63 -12q-65 -25 -104 -86 q-28 -44 -28 -93q0 -45 26 -78q37 -47 102 -47z" />
<glyph unicode="&#xb1;" horiz-adv-x="1050" d="M569 258h-172l78 370h-330l32 148h330l78 370h172l-78 -370h330l-32 -148h-330zM849 20h-831l32 148h831z" />
<glyph unicode="&#xb2;" horiz-adv-x="624" d="M500 793h-492l22 106q148 106 214 158q136 108 181 171q40 55 40 111q0 32 -20.5 55.5t-68.5 23.5t-83.5 -22t-76.5 -70l-84 62q99 126 265 126q108 0 161 -55q36 -37 36 -94q0 -23 -6 -49q-9 -46 -31 -87t-58 -78t-93 -84.5t-234 -175.5h349z" />
<glyph unicode="&#xb3;" horiz-adv-x="623" d="M223 778q-105 0 -158 58q-41 46 -41 117q0 14 2 35l124 10l-1 -24q0 -103 91 -103q60 0 104 36t61 114q4 21 4 39q0 45 -30.5 74.5t-99.5 29.5h-62l16 76l190 165h-305l20 94h462l-19 -88l-187 -162q66 -9 113 -69q31 -40 31 -97q0 -25 -7 -55q-24 -118 -107 -184 t-201 -66z" />
<glyph unicode="&#xb4;" horiz-adv-x="542" d="M142 1169h-131l6 28q63 68 139 164.5t123 168.5h222l-5 -23q-59 -72 -168 -176.5t-186 -161.5z" />
<glyph unicode="&#xb5;" horiz-adv-x="1170" d="M119 -395h-174l307 1444h174l-169 -793q69 -117 232 -117q153 0 303 144l163 766h176q-174 -818 -174 -831q0 -68 93 -68l-32 -150h-115q-126 0 -136 119q-139 -150 -313 -150q-165 0 -240 82z" />
<glyph unicode="&#xb6;" horiz-adv-x="1312" d="M884 -200h-155l329 1550h-123l-329 -1550h-157l187 879q-82 -43 -154 -43q-170 0 -248 93.5t-78 218.5q0 236 173 394t403 158h651l-32 -150h-138z" />
<glyph unicode="&#xb7;" horiz-adv-x="383" d="M143 533q-64 0 -99 45q-25 31 -25 75q0 82 71 141q54 44 118 44q63 0 98 -44q25 -33 25 -76q0 -82 -71 -140q-54 -45 -117 -45z" />
<glyph unicode="&#xb8;" horiz-adv-x="1063" d="M278 -413q-67 0 -141 17q-61 14 -85 30l72 100q29 -13 78 -23t90 -10q62 0 101 19q50 23 50 74q0 37 -39 60t-114 28l84 118h104l-35 -49q127 -38 127 -159q0 -101 -77.5 -153t-214.5 -52z" />
<glyph unicode="&#xb9;" horiz-adv-x="625" d="M340 793h-120l110 518q-46 -31 -174 -35l20 91q152 7 222 132h92z" />
<glyph unicode="&#xba;" horiz-adv-x="686" d="M363 878q-123 0 -171 75q-28 42 -28 110q0 43 12 98q30 142 107.5 214t192.5 72q201 0 201 -186q0 -45 -12 -100q-29 -138 -105.5 -210.5t-196.5 -72.5zM379 972q124 0 165 189q10 51 10 94q0 98 -84 98q-65 0 -107.5 -43.5t-64.5 -148.5q-11 -50 -11 -87q0 -102 92 -102 zM601 690h-544l28 132h544z" />
<glyph unicode="&#xbb;" horiz-adv-x="907" d="M501 53h-199l492 482l-283 460h191l284 -471zM156 53h-199l492 482l-283 460h191l284 -471z" />
<glyph unicode="&#xbc;" horiz-adv-x="1588" d="M440 793h-120l110 518q-46 -31 -174 -35l20 91q152 7 222 132h92zM1315 -7h-117l33 154h-311l20 96l406 456h119l-97 -458h95l-20 -94h-95zM1251 241l59 277l-246 -277h187zM360 -100h-153l1162 1600h151z" />
<glyph unicode="&#xbd;" horiz-adv-x="1625" d="M440 793h-120l110 518q-46 -31 -174 -35l20 91q152 7 222 132h92zM1390 -7h-492l22 106q148 106 214 158q136 108 181 171q40 55 40 111q0 32 -20.5 55.5t-68.5 23.5t-83.5 -22t-76.5 -70l-84 62q99 126 265 126q108 0 161 -55q36 -37 36 -94q0 -23 -6 -49 q-9 -46 -31 -87t-58 -78t-93 -84.5t-234 -175.5h349zM290 -100h-153l1162 1600h151z" />
<glyph unicode="&#xbe;" horiz-adv-x="1642" d="M323 778q-105 0 -158 58q-41 46 -41 117q0 14 2 35l124 10l-1 -24q0 -103 91 -103q60 0 104 36t61 114q4 21 4 39q0 45 -30.5 74.5t-99.5 29.5h-62l16 76l190 165h-305l20 94h462l-19 -88l-187 -162q66 -9 113 -69q31 -40 31 -97q0 -25 -7 -55q-24 -118 -107 -184 t-201 -66zM1315 -7h-117l33 154h-311l20 96l406 456h119l-97 -458h95l-20 -94h-95zM1251 241l59 277l-246 -277h187zM360 -100h-153l1162 1600h151z" />
<glyph unicode="&#xbf;" horiz-adv-x="922" d="M743 1279q58 0 91 -40q22 -29 22 -69q0 -74 -64 -127q-49 -41 -107 -41q-57 0 -89 41q-23 28 -23 68q0 74 64 127q49 41 106 41zM574 879h174q-60 -284 -277 -391q-256 -127 -256 -316q0 -163 218 -163q185 0 297 141l131 -98q-160 -207 -461 -207q-198 0 -293 82 t-95 194q0 40 10 86q43 206 276.5 339.5t275.5 332.5z" />
<glyph unicode="&#xc0;" horiz-adv-x="1252" d="M1089 0h-187l-43 360h-564l-195 -360h-197l767 1384h240zM836 528l-82 674l-368 -674h450zM1010 1535h-110q-53 57 -119.5 163t-91.5 175l5 23h203q15 -76 51 -175.5t68 -157.5z" />
<glyph unicode="&#xc1;" horiz-adv-x="1252" d="M1089 0h-187l-43 360h-564l-195 -360h-197l767 1384h240zM836 528l-82 674l-368 -674h450zM702 1534h-131l6 28q63 68 139 164.5t123 168.5h222l-5 -23q-59 -72 -168 -176.5t-186 -161.5z" />
<glyph unicode="&#xc2;" horiz-adv-x="1252" d="M1089 0h-187l-43 360h-564l-195 -360h-197l767 1384h240zM836 528l-82 674l-368 -674h450zM1095 1536h-103q-57 48 -161 189q-134 -119 -242 -189h-109v27q145 133 204.5 197.5t82.5 103.5h158q37 -99 128 -235l42 -66v-27z" />
<glyph unicode="&#xc3;" horiz-adv-x="1252" d="M1089 0h-187l-43 360h-564l-195 -360h-197l767 1384h240zM836 528l-82 674l-368 -674h450zM552 1570h-100q58 258 231 258q44 0 83.5 -18t75 -39.5t66.5 -39.5t58 -18q44 0 69.5 27t51.5 90h100q-66 -258 -233 -258q-40 0 -77.5 17.5t-73 39t-69 39t-65.5 17.5 q-44 0 -69.5 -28.5t-47.5 -86.5z" />
<glyph unicode="&#xc4;" horiz-adv-x="1252" d="M1089 0h-187l-43 360h-564l-195 -360h-197l767 1384h240zM836 528l-82 674l-368 -674h450zM987 1547q-64 0 -99 45q-25 31 -25 75q0 82 71 141q54 44 118 44q63 0 98 -44q25 -33 25 -76q0 -82 -71 -140q-54 -45 -117 -45zM587 1547q-64 0 -99 45q-25 31 -25 75 q0 82 71 141q54 44 118 44q63 0 98 -44q25 -33 25 -76q0 -82 -71 -140q-54 -45 -117 -45z" />
<glyph unicode="&#xc5;" horiz-adv-x="1252" d="M1089 0h-187l-43 360h-564l-195 -360h-197l767 1384h240zM836 528l-82 674l-368 -674h450zM787 1516q-78 0 -119 53q-31 38 -31 90q0 85 65 155t163 70q78 0 120 -53q29 -38 29 -93q0 -19 -4 -38q-17 -78 -81.5 -131t-141.5 -53zM804 1600q20 0 41 8q42 15 65 54 q18 30 18 58q0 31 -16 51q-23 29 -65 29q-20 0 -40 -7q-41 -16 -65 -54q-19 -30 -19 -61q0 -28 17 -49q23 -29 64 -29z" />
<glyph unicode="&#xc6;" horiz-adv-x="1670" d="M1441 0h-788l81 383h-422l-257 -383h-201l937 1384h944l-58 -167h-581l-87 -408h526l-36 -168h-526l-100 -473h583zM770 551l142 666h-40l-447 -666h345z" />
<glyph unicode="&#xc7;" horiz-adv-x="1297" d="M568 -29q-291 0 -408 184q-77 121 -77 269q0 118 32 268q77 361 261.5 541t489.5 180q331 0 441 -260l-163 -90q-79 186 -313 186q-208 0 -334.5 -138.5t-186.5 -418.5q-28 -129 -28 -229q0 -328 315 -328q118 0 214.5 46.5t190.5 160.5l131 -100q-88 -106 -168 -160.5 t-177 -82.5t-220 -28zM448 -413q-67 0 -141 17q-61 14 -85 30l72 100q29 -13 78 -23t90 -10q62 0 101 19q50 23 50 74q0 37 -39 60t-114 28l84 118h104l-35 -49q127 -38 127 -159q0 -101 -77.5 -153t-214.5 -52z" />
<glyph unicode="&#xc8;" horiz-adv-x="1144" d="M905 0h-846l294 1384h846l-63 -167h-633l-86 -404h565l-36 -168h-565l-101 -477h636zM907 1534h-110q-53 57 -119.5 163t-91.5 175l5 23h203q15 -76 51 -175.5t68 -157.5z" />
<glyph unicode="&#xc9;" horiz-adv-x="1144" d="M905 0h-846l294 1384h846l-63 -167h-633l-86 -404h565l-36 -168h-565l-101 -477h636zM698 1535h-131l6 28q63 68 139 164.5t123 168.5h222l-5 -23q-59 -72 -168 -176.5t-186 -161.5z" />
<glyph unicode="&#xca;" horiz-adv-x="1144" d="M905 0h-846l294 1384h846l-63 -167h-633l-86 -404h565l-36 -168h-565l-101 -477h636zM1056 1536h-103q-57 48 -161 189q-134 -119 -242 -189h-109v27q145 133 204.5 197.5t82.5 103.5h158q37 -99 128 -235l42 -66v-27z" />
<glyph unicode="&#xcb;" horiz-adv-x="1144" d="M905 0h-846l294 1384h846l-63 -167h-633l-86 -404h565l-36 -168h-565l-101 -477h636zM955 1547q-64 0 -99 45q-25 31 -25 75q0 82 71 141q54 44 118 44q63 0 98 -44q25 -33 25 -76q0 -82 -71 -140q-54 -45 -117 -45zM555 1547q-64 0 -99 45q-25 31 -25 75q0 82 71 141 q54 44 118 44q63 0 98 -44q25 -33 25 -76q0 -82 -71 -140q-54 -45 -117 -45z" />
<glyph unicode="&#xcc;" horiz-adv-x="789" d="M524 0h-566l34 160h191l227 1067h-191l33 157h566l-33 -157h-191l-227 -1067h191zM751 1519h-110q-53 57 -119.5 163t-91.5 175l5 23h203q15 -76 51 -175.5t68 -157.5z" />
<glyph unicode="&#xcd;" horiz-adv-x="789" d="M524 0h-566l34 160h191l227 1067h-191l33 157h566l-33 -157h-191l-227 -1067h191zM491 1520h-131l6 28q63 68 139 164.5t123 168.5h222l-5 -23q-59 -72 -168 -176.5t-186 -161.5z" />
<glyph unicode="&#xce;" horiz-adv-x="789" d="M524 0h-566l34 160h191l227 1067h-191l33 157h566l-33 -157h-191l-227 -1067h191zM868 1536h-103q-57 48 -161 189q-134 -119 -242 -189h-109v27q145 133 204.5 197.5t82.5 103.5h158q37 -99 128 -235l42 -66v-27z" />
<glyph unicode="&#xcf;" horiz-adv-x="789" d="M524 0h-566l34 160h191l227 1067h-191l33 157h566l-33 -157h-191l-227 -1067h191zM766 1547q-64 0 -99 45q-25 31 -25 75q0 82 71 141q54 44 118 44q63 0 98 -44q25 -33 25 -76q0 -82 -71 -140q-54 -45 -117 -45zM366 1547q-64 0 -99 45q-25 31 -25 75q0 82 71 141 q54 44 118 44q63 0 98 -44q25 -33 25 -76q0 -82 -71 -140q-54 -45 -117 -45z" />
<glyph unicode="&#xd0;" horiz-adv-x="1292" d="M406 0h-352l294 1384h348q242 0 368 -69q173 -97 173 -354q0 -116 -32 -269q-54 -254 -151.5 -404t-248.5 -219t-399 -69zM428 168q182 0 292 50.5t179 162t112 313.5q28 132 28 226q0 187 -103.5 242t-284.5 55h-154l-223 -1049h154zM658 606h-610l37 172h610z" />
<glyph unicode="&#xd1;" horiz-adv-x="1402" d="M1086 0h-219l-372 1188l-253 -1188h-178l294 1384h271l342 -1087l231 1087h178zM652 1570h-100q58 258 231 258q44 0 83.5 -18t75 -39.5t66.5 -39.5t58 -18q44 0 69.5 27t51.5 90h100q-66 -258 -233 -258q-40 0 -77.5 17.5t-73 39t-69 39t-65.5 17.5q-44 0 -69.5 -28.5 t-47.5 -86.5z" />
<glyph unicode="&#xd2;" horiz-adv-x="1380" d="M556 -29q-256 0 -365.5 122t-109.5 312q0 124 35 287q82 384 264.5 552.5t481.5 168.5q245 0 359.5 -115t114.5 -317q0 -124 -34 -289q-83 -393 -268.5 -557t-477.5 -164zM591 135q203 0 327 123t190 434q31 148 31 253q0 154 -73 229t-239 75q-206 0 -329 -125 t-188 -432q-32 -148 -32 -253q0 -145 69.5 -224.5t243.5 -79.5zM1067 1519h-110q-53 57 -119.5 163t-91.5 175l5 23h203q15 -76 51 -175.5t68 -157.5z" />
<glyph unicode="&#xd3;" horiz-adv-x="1380" d="M556 -29q-256 0 -365.5 122t-109.5 312q0 124 35 287q82 384 264.5 552.5t481.5 168.5q245 0 359.5 -115t114.5 -317q0 -124 -34 -289q-83 -393 -268.5 -557t-477.5 -164zM591 135q203 0 327 123t190 434q31 148 31 253q0 154 -73 229t-239 75q-206 0 -329 -125 t-188 -432q-32 -148 -32 -253q0 -145 69.5 -224.5t243.5 -79.5zM813 1519h-131l6 28q63 68 139 164.5t123 168.5h222l-5 -23q-59 -72 -168 -176.5t-186 -161.5z" />
<glyph unicode="&#xd4;" horiz-adv-x="1380" d="M556 -29q-256 0 -365.5 122t-109.5 312q0 124 35 287q82 384 264.5 552.5t481.5 168.5q245 0 359.5 -115t114.5 -317q0 -124 -34 -289q-83 -393 -268.5 -557t-477.5 -164zM591 135q203 0 327 123t190 434q31 148 31 253q0 154 -73 229t-239 75q-206 0 -329 -125 t-188 -432q-32 -148 -32 -253q0 -145 69.5 -224.5t243.5 -79.5zM1186 1536h-103q-57 48 -161 189q-134 -119 -242 -189h-109v27q145 133 204.5 197.5t82.5 103.5h158q37 -99 128 -235l42 -66v-27z" />
<glyph unicode="&#xd5;" horiz-adv-x="1380" d="M556 -29q-256 0 -365.5 122t-109.5 312q0 124 35 287q82 384 264.5 552.5t481.5 168.5q245 0 359.5 -115t114.5 -317q0 -124 -34 -289q-83 -393 -268.5 -557t-477.5 -164zM591 135q203 0 327 123t190 434q31 148 31 253q0 154 -73 229t-239 75q-206 0 -329 -125 t-188 -432q-32 -148 -32 -253q0 -145 69.5 -224.5t243.5 -79.5zM644 1570h-100q58 258 231 258q44 0 83.5 -18t75 -39.5t66.5 -39.5t58 -18q44 0 69.5 27t51.5 90h100q-66 -258 -233 -258q-40 0 -77.5 17.5t-73 39t-69 39t-65.5 17.5q-44 0 -69.5 -28.5t-47.5 -86.5z" />
<glyph unicode="&#xd6;" horiz-adv-x="1380" d="M556 -29q-256 0 -365.5 122t-109.5 312q0 124 35 287q82 384 264.5 552.5t481.5 168.5q245 0 359.5 -115t114.5 -317q0 -124 -34 -289q-83 -393 -268.5 -557t-477.5 -164zM591 135q203 0 327 123t190 434q31 148 31 253q0 154 -73 229t-239 75q-206 0 -329 -125 t-188 -432q-32 -148 -32 -253q0 -145 69.5 -224.5t243.5 -79.5zM1093 1548q-64 0 -99 45q-25 31 -25 75q0 82 71 141q54 44 118 44q63 0 98 -44q25 -33 25 -76q0 -82 -71 -140q-54 -45 -117 -45zM693 1548q-64 0 -99 45q-25 31 -25 75q0 82 71 141q54 44 118 44q63 0 98 -44 q25 -33 25 -76q0 -82 -71 -140q-54 -45 -117 -45z" />
<glyph unicode="&#xd7;" horiz-adv-x="983" d="M735 286l-247 311l-367 -300l-79 100l368 301l-247 311l122 103l246 -313l369 302l78 -101l-368 -302l246 -310z" />
<glyph unicode="&#xd8;" horiz-adv-x="1380" d="M556 -29q-256 0 -365.5 122t-109.5 312q0 124 35 287q82 384 264.5 552.5t481.5 168.5q245 0 359.5 -115t114.5 -317q0 -124 -34 -289q-83 -393 -268.5 -557t-477.5 -164zM591 135q203 0 327 123t190 434q31 148 31 253q0 154 -73 229t-239 75q-206 0 -329 -125 t-188 -432q-32 -148 -32 -253q0 -145 69.5 -224.5t243.5 -79.5zM251 -218h-166l1077 1819h170z" />
<glyph unicode="&#xd9;" horiz-adv-x="1391" d="M542 -31q-186 0 -306 80t-120 269q0 109 33 260l171 806h185l-167 -786q-30 -139 -30 -229q0 -148 70 -192t196 -44q127 0 208 42.5t133.5 135.5t92.5 283l168 790h185l-171 -806q-48 -227 -127 -358t-201.5 -191t-319.5 -60zM1053 1535h-110q-53 57 -119.5 163 t-91.5 175l5 23h203q15 -76 51 -175.5t68 -157.5z" />
<glyph unicode="&#xda;" horiz-adv-x="1391" d="M542 -31q-186 0 -306 80t-120 269q0 109 33 260l171 806h185l-167 -786q-30 -139 -30 -229q0 -148 70 -192t196 -44q127 0 208 42.5t133.5 135.5t92.5 283l168 790h185l-171 -806q-48 -227 -127 -358t-201.5 -191t-319.5 -60zM794 1535h-131l6 28q63 68 139 164.5 t123 168.5h222l-5 -23q-59 -72 -168 -176.5t-186 -161.5z" />
<glyph unicode="&#xdb;" horiz-adv-x="1391" d="M542 -31q-186 0 -306 80t-120 269q0 109 33 260l171 806h185l-167 -786q-30 -139 -30 -229q0 -148 70 -192t196 -44q127 0 208 42.5t133.5 135.5t92.5 283l168 790h185l-171 -806q-48 -227 -127 -358t-201.5 -191t-319.5 -60zM1162 1536h-103q-57 48 -161 189 q-134 -119 -242 -189h-109v27q145 133 204.5 197.5t82.5 103.5h158q37 -99 128 -235l42 -66v-27z" />
<glyph unicode="&#xdc;" horiz-adv-x="1391" d="M542 -31q-186 0 -306 80t-120 269q0 109 33 260l171 806h185l-167 -786q-30 -139 -30 -229q0 -148 70 -192t196 -44q127 0 208 42.5t133.5 135.5t92.5 283l168 790h185l-171 -806q-48 -227 -127 -358t-201.5 -191t-319.5 -60zM1064 1548q-64 0 -99 45q-25 31 -25 75 q0 82 71 141q54 44 118 44q63 0 98 -44q25 -33 25 -76q0 -82 -71 -140q-54 -45 -117 -45zM664 1548q-64 0 -99 45q-25 31 -25 75q0 82 71 141q54 44 118 44q63 0 98 -44q25 -33 25 -76q0 -82 -71 -140q-54 -45 -117 -45z" />
<glyph unicode="&#xdd;" horiz-adv-x="1031" d="M471 0h-187l112 526l-256 858h209l182 -673l475 673h199l-620 -849zM601 1535h-131l6 28q63 68 139 164.5t123 168.5h222l-5 -23q-59 -72 -168 -176.5t-186 -161.5z" />
<glyph unicode="&#xde;" horiz-adv-x="1204" d="M244 0h-185l294 1384h185l-50 -235h225q259 0 352 -109q62 -73 62 -194q0 -61 -16 -134q-46 -219 -187 -328.5t-405 -109.5h-217zM516 442q196 0 284.5 67.5t116.5 202.5q10 45 10 83q0 74 -47.5 130t-222.5 56h-204l-115 -539h178z" />
<glyph unicode="&#xdf;" horiz-adv-x="1236" d="M-34 -365q-83 0 -139 23l35 151q55 -15 85 -15q68 0 102.5 42.5t56.5 147.5l204 1026q36 180 158 290t306 110q157 0 249 -80t92 -186q0 -168 -163 -267t-163 -175q0 -85 135.5 -170t135.5 -223q0 -149 -107 -243.5t-274 -94.5q-140 0 -220 79l53 137q93 -62 172 -62 q81 0 133.5 43t52.5 118q0 93 -134.5 169t-134.5 213q0 163 162 257.5t162 194.5q0 62 -42.5 98.5t-122.5 36.5q-109 0 -175 -68t-90 -189l-207 -1036q-32 -163 -99 -239q-78 -88 -223 -88z" />
<glyph unicode="&#xe0;" horiz-adv-x="1248" d="M412 147q125 0 296.5 240t197.5 369l26 131q-69 18 -181 18q-202 0 -331 -183.5t-129 -382.5q0 -192 121 -192zM356 -26q-255 0 -255 304q0 342 216 567.5t473 225.5q192 0 356 -47l-98 -479q-47 -231 -47 -434q0 -68 1 -111h-175l-1 38q0 212 42 384 q-260 -448 -512 -448zM888 1184h-110q-53 57 -119.5 163t-91.5 175l5 23h203q15 -76 51 -175.5t68 -157.5z" />
<glyph unicode="&#xe1;" horiz-adv-x="1248" d="M412 147q125 0 296.5 240t197.5 369l26 131q-69 18 -181 18q-202 0 -331 -183.5t-129 -382.5q0 -192 121 -192zM356 -26q-255 0 -255 304q0 342 216 567.5t473 225.5q192 0 356 -47l-98 -479q-47 -231 -47 -434q0 -68 1 -111h-175l-1 38q0 212 42 384 q-260 -448 -512 -448zM659 1184h-131l6 28q63 68 139 164.5t123 168.5h222l-5 -23q-59 -72 -168 -176.5t-186 -161.5z" />
<glyph unicode="&#xe2;" horiz-adv-x="1248" d="M412 147q125 0 296.5 240t197.5 369l26 131q-69 18 -181 18q-202 0 -331 -183.5t-129 -382.5q0 -192 121 -192zM356 -26q-255 0 -255 304q0 342 216 567.5t473 225.5q192 0 356 -47l-98 -479q-47 -231 -47 -434q0 -68 1 -111h-175l-1 38q0 212 42 384 q-260 -448 -512 -448zM1016 1186h-103q-57 48 -161 189q-134 -119 -242 -189h-109v27q145 133 204.5 197.5t82.5 103.5h158q37 -99 128 -235l42 -66v-27z" />
<glyph unicode="&#xe3;" horiz-adv-x="1248" d="M412 147q125 0 296.5 240t197.5 369l26 131q-69 18 -181 18q-202 0 -331 -183.5t-129 -382.5q0 -192 121 -192zM356 -26q-255 0 -255 304q0 342 216 567.5t473 225.5q192 0 356 -47l-98 -479q-47 -231 -47 -434q0 -68 1 -111h-175l-1 38q0 212 42 384 q-260 -448 -512 -448zM471 1220h-100q58 258 231 258q44 0 83.5 -18t75 -39.5t66.5 -39.5t58 -18q44 0 69.5 27t51.5 90h100q-66 -258 -233 -258q-40 0 -77.5 17.5t-73 39t-69 39t-65.5 17.5q-44 0 -69.5 -28.5t-47.5 -86.5z" />
<glyph unicode="&#xe4;" horiz-adv-x="1248" d="M412 147q125 0 296.5 240t197.5 369l26 131q-69 18 -181 18q-202 0 -331 -183.5t-129 -382.5q0 -192 121 -192zM356 -26q-255 0 -255 304q0 342 216 567.5t473 225.5q192 0 356 -47l-98 -479q-47 -231 -47 -434q0 -68 1 -111h-175l-1 38q0 212 42 384 q-260 -448 -512 -448zM906 1198q-64 0 -99 45q-25 31 -25 75q0 82 71 141q54 44 118 44q63 0 98 -44q25 -33 25 -76q0 -82 -71 -140q-54 -45 -117 -45zM506 1198q-64 0 -99 45q-25 31 -25 75q0 82 71 141q54 44 118 44q63 0 98 -44q25 -33 25 -76q0 -82 -71 -140 q-54 -45 -117 -45z" />
<glyph unicode="&#xe5;" horiz-adv-x="1248" d="M412 147q125 0 296.5 240t197.5 369l26 131q-69 18 -181 18q-202 0 -331 -183.5t-129 -382.5q0 -192 121 -192zM356 -26q-255 0 -255 304q0 342 216 567.5t473 225.5q192 0 356 -47l-98 -479q-47 -231 -47 -434q0 -68 1 -111h-175l-1 38q0 212 42 384 q-260 -448 -512 -448zM702 1166q-78 0 -119 53q-31 38 -31 90q0 85 65 155t163 70q78 0 120 -53q29 -38 29 -93q0 -19 -4 -38q-17 -78 -81.5 -131t-141.5 -53zM719 1250q20 0 41 8q42 15 65 54q18 30 18 58q0 31 -16 51q-23 29 -65 29q-20 0 -40 -7q-41 -16 -65 -54 q-19 -30 -19 -61q0 -28 17 -49q23 -29 64 -29z" />
<glyph unicode="&#xe6;" horiz-adv-x="1682" d="M948 598q228 0 354.5 59.5t126.5 167.5q0 48 -38.5 80.5t-116.5 32.5q-103 0 -196.5 -91.5t-141.5 -248.5h12zM360 123q146 0 363 142q-5 33 -5 57q0 54 22 168q-80 14 -164 14q-126 0 -192 -24t-107 -69.5t-56 -113.5q-6 -30 -6 -54q0 -51 33.5 -85.5t111.5 -34.5z M278 -31q-140 0 -203 91q-42 60 -42 146q0 220 188 340q145 93 354 93q99 0 194 -14q29 123 29 164q0 67 -49 104t-168 37q-178 0 -271 -117l-123 86q141 180 439 180q276 0 323 -145q30 29 63 54q128 93 266 93q153 0 235 -64t82 -178q0 -175 -171 -277.5t-480 -102.5h-33 l-4 -80q0 -121 61.5 -194.5t190.5 -73.5q63 0 129.5 18t165.5 66v-146q-94 -44 -166 -61.5t-159 -17.5q-254 0 -353 182q-249 -183 -498 -183z" />
<glyph unicode="&#xe7;" horiz-adv-x="1062" d="M513 -26q-164 0 -285.5 118t-121.5 336q0 264 179.5 453.5t447.5 189.5q176 0 291 -88l-73 -185q-111 103 -259 103q-161 0 -278 -136t-117 -322q0 -144 72 -221.5t189 -77.5q169 0 330 124l-7 -181q-155 -113 -368 -113zM369 -413q-67 0 -141 17q-61 14 -85 30l72 100 q29 -13 78 -23t90 -10q62 0 101 19q50 23 50 74q0 37 -39 60t-114 28l84 118h104l-35 -49q127 -38 127 -159q0 -101 -77.5 -153t-214.5 -52z" />
<glyph unicode="&#xe8;" horiz-adv-x="1146" d="M502 620q165 0 256 49q83 44 83 119q0 55 -48.5 91.5t-118.5 36.5q-235 0 -360 -285q99 -11 188 -11zM508 -26q-179 0 -289.5 112.5t-110.5 337.5q0 260 175.5 453.5t436.5 193.5q146 0 229.5 -70.5t83.5 -183.5q0 -146 -110 -236q-129 -105 -386 -105q-108 0 -249 19 q-2 -21 -2 -41q0 -141 65 -224q68 -88 195 -88q203 0 396 142l-6 -197q-203 -113 -428 -113zM834 1184h-110q-53 57 -119.5 163t-91.5 175l5 23h203q15 -76 51 -175.5t68 -157.5z" />
<glyph unicode="&#xe9;" horiz-adv-x="1146" d="M502 620q165 0 256 49q83 44 83 119q0 55 -48.5 91.5t-118.5 36.5q-235 0 -360 -285q99 -11 188 -11zM508 -26q-179 0 -289.5 112.5t-110.5 337.5q0 260 175.5 453.5t436.5 193.5q146 0 229.5 -70.5t83.5 -183.5q0 -146 -110 -236q-129 -105 -386 -105q-108 0 -249 19 q-2 -21 -2 -41q0 -141 65 -224q68 -88 195 -88q203 0 396 142l-6 -197q-203 -113 -428 -113zM604 1185h-131l6 28q63 68 139 164.5t123 168.5h222l-5 -23q-59 -72 -168 -176.5t-186 -161.5z" />
<glyph unicode="&#xea;" horiz-adv-x="1146" d="M502 620q165 0 256 49q83 44 83 119q0 55 -48.5 91.5t-118.5 36.5q-235 0 -360 -285q99 -11 188 -11zM508 -26q-179 0 -289.5 112.5t-110.5 337.5q0 260 175.5 453.5t436.5 193.5q146 0 229.5 -70.5t83.5 -183.5q0 -146 -110 -236q-129 -105 -386 -105q-108 0 -249 19 q-2 -21 -2 -41q0 -141 65 -224q68 -88 195 -88q203 0 396 142l-6 -197q-203 -113 -428 -113zM989 1186h-103q-57 48 -161 189q-134 -119 -242 -189h-109v27q145 133 204.5 197.5t82.5 103.5h158q37 -99 128 -235l42 -66v-27z" />
<glyph unicode="&#xeb;" horiz-adv-x="1146" d="M502 620q165 0 256 49q83 44 83 119q0 55 -48.5 91.5t-118.5 36.5q-235 0 -360 -285q99 -11 188 -11zM508 -26q-179 0 -289.5 112.5t-110.5 337.5q0 260 175.5 453.5t436.5 193.5q146 0 229.5 -70.5t83.5 -183.5q0 -146 -110 -236q-129 -105 -386 -105q-108 0 -249 19 q-2 -21 -2 -41q0 -141 65 -224q68 -88 195 -88q203 0 396 142l-6 -197q-203 -113 -428 -113zM885 1198q-64 0 -99 45q-25 31 -25 75q0 82 71 141q54 44 118 44q63 0 98 -44q25 -33 25 -76q0 -82 -71 -140q-54 -45 -117 -45zM485 1198q-64 0 -99 45q-25 31 -25 75 q0 82 71 141q54 44 118 44q63 0 98 -44q25 -33 25 -76q0 -82 -71 -140q-54 -45 -117 -45z" />
<glyph unicode="&#xec;" horiz-adv-x="564" d="M242 0h-185l191 899h-100l32 150h285zM549 1184h-110q-53 57 -119.5 163t-91.5 175l5 23h203q15 -76 51 -175.5t68 -157.5z" />
<glyph unicode="&#xed;" horiz-adv-x="564" d="M242 0h-185l191 899h-100l32 150h285zM276 1185h-131l6 28q63 68 139 164.5t123 168.5h222l-5 -23q-59 -72 -168 -176.5t-186 -161.5z" />
<glyph unicode="&#xee;" horiz-adv-x="564" d="M242 0h-185l191 899h-100l32 150h285zM658 1186h-103q-57 48 -161 189q-134 -119 -242 -189h-109v27q145 133 204.5 197.5t82.5 103.5h158q37 -99 128 -235l42 -66v-27z" />
<glyph unicode="&#xef;" horiz-adv-x="564" d="M242 0h-185l191 899h-100l32 150h285zM543 1198q-64 0 -99 45q-25 31 -25 75q0 82 71 141q54 44 118 44q63 0 98 -44q25 -33 25 -76q0 -82 -71 -140q-54 -45 -117 -45zM143 1198q-64 0 -99 45q-25 31 -25 75q0 82 71 141q54 44 118 44q63 0 98 -44q25 -33 25 -76 q0 -82 -71 -140q-54 -45 -117 -45z" />
<glyph unicode="&#xf0;" horiz-adv-x="1251" d="M571 -25q-215 0 -340 117t-125 348q0 261 151.5 445t434.5 184q111 0 185 -45h4q-70 133 -181 238l-260 -121l-88 104l236 111q-47 34 -154 96l148 109q94 -56 184 -123l266 123l88 -105l-248 -115q263 -282 263 -699q0 -313 -161 -490t-403 -177zM569 131 q152 0 261.5 131.5t109.5 349.5q0 126 -67 213.5t-189 87.5q-186 0 -284.5 -127.5t-98.5 -359.5q0 -130 67.5 -212.5t200.5 -82.5z" />
<glyph unicode="&#xf1;" horiz-adv-x="1242" d="M1033 0h-185q-11 49 -11 112q0 135 43.5 327t43.5 275q0 179 -126 179q-108 0 -235.5 -154t-210.5 -350l-79 -389h-185l126 625q22 109 22 280l-3 145h180q5 -40 5 -80q0 -85 -23 -264q230 365 477 365q250 0 250 -297q0 -81 -51.5 -308.5t-51.5 -341.5q0 -75 14 -124z M467 1220h-100q58 258 231 258q44 0 83.5 -18t75 -39.5t66.5 -39.5t58 -18q44 0 69.5 27t51.5 90h100q-66 -258 -233 -258q-40 0 -77.5 17.5t-73 39t-69 39t-65.5 17.5q-44 0 -69.5 -28.5t-47.5 -86.5z" />
<glyph unicode="&#xf2;" horiz-adv-x="1217" d="M478 -31q-225 0 -314 139q-54 83 -54 217q0 88 23 197q60 281 208.5 419t362.5 138q376 0 376 -357q0 -89 -24 -200q-58 -273 -205.5 -413t-372.5 -140zM510 129q133 0 223.5 93t134.5 300q22 102 22 188q0 210 -197 210q-145 0 -236 -92.5t-136 -305.5q-21 -99 -21 -173 q0 -220 210 -220zM898 1184h-110q-53 57 -119.5 163t-91.5 175l5 23h203q15 -76 51 -175.5t68 -157.5z" />
<glyph unicode="&#xf3;" horiz-adv-x="1217" d="M478 -31q-225 0 -314 139q-54 83 -54 217q0 88 23 197q60 281 208.5 419t362.5 138q376 0 376 -357q0 -89 -24 -200q-58 -273 -205.5 -413t-372.5 -140zM510 129q133 0 223.5 93t134.5 300q22 102 22 188q0 210 -197 210q-145 0 -236 -92.5t-136 -305.5q-21 -99 -21 -173 q0 -220 210 -220zM648 1185h-131l6 28q63 68 139 164.5t123 168.5h222l-5 -23q-59 -72 -168 -176.5t-186 -161.5z" />
<glyph unicode="&#xf4;" horiz-adv-x="1217" d="M478 -31q-225 0 -314 139q-54 83 -54 217q0 88 23 197q60 281 208.5 419t362.5 138q376 0 376 -357q0 -89 -24 -200q-58 -273 -205.5 -413t-372.5 -140zM510 129q133 0 223.5 93t134.5 300q22 102 22 188q0 210 -197 210q-145 0 -236 -92.5t-136 -305.5q-21 -99 -21 -173 q0 -220 210 -220zM1023 1186h-103q-57 48 -161 189q-134 -119 -242 -189h-109v27q145 133 204.5 197.5t82.5 103.5h158q37 -99 128 -235l42 -66v-27z" />
<glyph unicode="&#xf5;" horiz-adv-x="1217" d="M478 -31q-225 0 -314 139q-54 83 -54 217q0 88 23 197q60 281 208.5 419t362.5 138q376 0 376 -357q0 -89 -24 -200q-58 -273 -205.5 -413t-372.5 -140zM510 129q133 0 223.5 93t134.5 300q22 102 22 188q0 210 -197 210q-145 0 -236 -92.5t-136 -305.5q-21 -99 -21 -173 q0 -220 210 -220zM466 1220h-100q58 258 231 258q44 0 83.5 -18t75 -39.5t66.5 -39.5t58 -18q44 0 69.5 27t51.5 90h100q-66 -258 -233 -258q-40 0 -77.5 17.5t-73 39t-69 39t-65.5 17.5q-44 0 -69.5 -28.5t-47.5 -86.5z" />
<glyph unicode="&#xf6;" horiz-adv-x="1217" d="M478 -31q-225 0 -314 139q-54 83 -54 217q0 88 23 197q60 281 208.5 419t362.5 138q376 0 376 -357q0 -89 -24 -200q-58 -273 -205.5 -413t-372.5 -140zM510 129q133 0 223.5 93t134.5 300q22 102 22 188q0 210 -197 210q-145 0 -236 -92.5t-136 -305.5q-21 -99 -21 -173 q0 -220 210 -220zM928 1197q-64 0 -99 45q-25 31 -25 75q0 82 71 141q54 44 118 44q63 0 98 -44q25 -33 25 -76q0 -82 -71 -140q-54 -45 -117 -45zM528 1197q-64 0 -99 45q-25 31 -25 75q0 82 71 141q54 44 118 44q63 0 98 -44q25 -33 25 -76q0 -82 -71 -140 q-54 -45 -117 -45z" />
<glyph unicode="&#xf7;" horiz-adv-x="915" d="M853 628h-831l32 148h831zM493 886q-64 0 -99 45q-25 31 -25 75q0 82 71 141q54 44 118 44q63 0 98 -44q25 -33 25 -76q0 -82 -71 -140q-54 -45 -117 -45zM350 212q-64 0 -99 45q-25 31 -25 75q0 82 71 141q54 44 118 44q63 0 98 -44q25 -33 25 -76q0 -82 -71 -140 q-54 -45 -117 -45z" />
<glyph unicode="&#xf8;" horiz-adv-x="1217" d="M478 -31q-225 0 -314 139q-54 83 -54 217q0 88 23 197q60 281 208.5 419t362.5 138q376 0 376 -357q0 -89 -24 -200q-58 -273 -205.5 -413t-372.5 -140zM510 129q133 0 223.5 93t134.5 300q22 102 22 188q0 210 -197 210q-145 0 -236 -92.5t-136 -305.5q-21 -99 -21 -173 q0 -220 210 -220zM91 -276h-153l1162 1600h151z" />
<glyph unicode="&#xf9;" horiz-adv-x="1222" d="M504 -28q-363 0 -363 325q0 92 156 752h185l-136 -641q-12 -58 -12 -103q0 -182 182 -182q120 0 189 65.5t101 215.5l137 645h185l-143 -671q-39 -187 -166.5 -296.5t-314.5 -109.5zM930 1184h-110q-53 57 -119.5 163t-91.5 175l5 23h203q15 -76 51 -175.5t68 -157.5z " />
<glyph unicode="&#xfa;" horiz-adv-x="1222" d="M504 -28q-363 0 -363 325q0 92 156 752h185l-136 -641q-12 -58 -12 -103q0 -182 182 -182q120 0 189 65.5t101 215.5l137 645h185l-143 -671q-39 -187 -166.5 -296.5t-314.5 -109.5zM656 1185h-131l6 28q63 68 139 164.5t123 168.5h222l-5 -23q-59 -72 -168 -176.5 t-186 -161.5z" />
<glyph unicode="&#xfb;" horiz-adv-x="1222" d="M504 -28q-363 0 -363 325q0 92 156 752h185l-136 -641q-12 -58 -12 -103q0 -182 182 -182q120 0 189 65.5t101 215.5l137 645h185l-143 -671q-39 -187 -166.5 -296.5t-314.5 -109.5zM1021 1186h-103q-57 48 -161 189q-134 -119 -242 -189h-109v27q145 133 204.5 197.5 t82.5 103.5h158q37 -99 128 -235l42 -66v-27z" />
<glyph unicode="&#xfc;" horiz-adv-x="1222" d="M504 -28q-363 0 -363 325q0 92 156 752h185l-136 -641q-12 -58 -12 -103q0 -182 182 -182q120 0 189 65.5t101 215.5l137 645h185l-143 -671q-39 -187 -166.5 -296.5t-314.5 -109.5zM918 1197q-64 0 -99 45q-25 31 -25 75q0 82 71 141q54 44 118 44q63 0 98 -44 q25 -33 25 -76q0 -82 -71 -140q-54 -45 -117 -45zM518 1197q-64 0 -99 45q-25 31 -25 75q0 82 71 141q54 44 118 44q63 0 98 -44q25 -33 25 -76q0 -82 -71 -140q-54 -45 -117 -45z" />
<glyph unicode="&#xfd;" horiz-adv-x="1097" d="M66 -488q-143 0 -246 92l93 165q83 -79 168 -79q160 0 330 293q-55 728 -307 1067h215q194 -297 229 -852q284 521 284 784q0 39 -8 68h200q5 -14 5 -46q0 -277 -413 -997q-284 -495 -550 -495zM519 1185h-131l6 28q63 68 139 164.5t123 168.5h222l-5 -23 q-59 -72 -168 -176.5t-186 -161.5z" />
<glyph unicode="&#xfe;" horiz-adv-x="1240" d="M158 -495h-170l445 2095h170l-137 -656q156 135 326 135q311 0 311 -362q0 -283 -146 -515.5t-399 -232.5q-172 0 -274 117zM554 123q162 0 265.5 188.5t103.5 399.5q0 215 -166 215q-153 0 -324 -135l-119 -555q103 -113 240 -113z" />
<glyph unicode="&#xff;" horiz-adv-x="1097" d="M66 -488q-143 0 -246 92l93 165q83 -79 168 -79q160 0 330 293q-55 728 -307 1067h215q194 -297 229 -852q284 521 284 784q0 39 -8 68h200q5 -14 5 -46q0 -277 -413 -997q-284 -495 -550 -495zM833 1197q-64 0 -99 45q-25 31 -25 75q0 82 71 141q54 44 118 44 q63 0 98 -44q25 -33 25 -76q0 -82 -71 -140q-54 -45 -117 -45zM433 1197q-64 0 -99 45q-25 31 -25 75q0 82 71 141q54 44 118 44q63 0 98 -44q25 -33 25 -76q0 -82 -71 -140q-54 -45 -117 -45z" />
<glyph unicode="&#x131;" horiz-adv-x="564" d="M242 0h-185l191 899h-100l32 150h285z" />
<glyph unicode="&#x152;" horiz-adv-x="1754" d="M548 -29q-251 0 -364 136q-101 122 -101 362q0 201 68 401q79 236 228 377q176 166 427 166q112 0 256 -29h757l-58 -167h-574l-86 -404h520l-35 -168h-520l-103 -477h579l-15 -168h-756q-127 -29 -223 -29zM558 135q112 0 225 35l225 1047q-104 32 -225 32 q-180 0 -305 -147q-102 -120 -156 -322q-45 -165 -45 -315q0 -175 61 -249q66 -81 220 -81z" />
<glyph unicode="&#x153;" horiz-adv-x="1824" d="M1219 620q165 0 256 49q83 44 83 119q0 55 -48.5 91.5t-118.5 36.5q-235 0 -360 -285q99 -11 188 -11zM1225 -26q-179 0 -289.5 112.5t-110.5 337.5q0 260 175.5 453.5t436.5 193.5q146 0 229.5 -70.5t83.5 -183.5q0 -146 -110 -236q-129 -105 -386 -105q-108 0 -249 19 q-2 -21 -2 -41q0 -141 65 -224q68 -88 195 -88q203 0 396 142l-6 -197q-203 -113 -428 -113zM433 -31q-225 0 -314 139q-54 83 -54 217q0 88 23 197q60 281 208.5 419t362.5 138q376 0 376 -357q0 -89 -24 -200q-58 -273 -205.5 -413t-372.5 -140zM465 129q133 0 223.5 93 t134.5 300q22 102 22 188q0 210 -197 210q-145 0 -236 -92.5t-136 -305.5q-21 -99 -21 -173q0 -220 210 -220z" />
<glyph unicode="&#x178;" horiz-adv-x="1031" d="M471 0h-187l112 526l-256 858h209l182 -673l475 673h199l-620 -849zM878 1547q-64 0 -99 45q-25 31 -25 75q0 82 71 141q54 44 118 44q63 0 98 -44q25 -33 25 -76q0 -82 -71 -140q-54 -45 -117 -45zM478 1547q-64 0 -99 45q-25 31 -25 75q0 82 71 141q54 44 118 44 q63 0 98 -44q25 -33 25 -76q0 -82 -71 -140q-54 -45 -117 -45z" />
<glyph unicode="&#x237;" horiz-adv-x="625" d="M-92 -505q-110 0 -192 40l71 152q66 -29 150 -29q131 0 178 217l218 1024h-110l32 150h295l-255 -1194q-76 -360 -387 -360z" />
<glyph unicode="&#x2c6;" horiz-adv-x="792" d="M691 1186h-103q-57 48 -161 189q-134 -119 -242 -189h-109v27q145 133 204.5 197.5t82.5 103.5h158q37 -99 128 -235l42 -66v-27z" />
<glyph unicode="&#x2da;" horiz-adv-x="534" d="M233 1166q-78 0 -119 53q-31 38 -31 90q0 85 65 155t163 70q78 0 120 -53q29 -38 29 -93q0 -19 -4 -38q-17 -78 -81.5 -131t-141.5 -53zM250 1250q20 0 41 8q42 15 65 54q18 30 18 58q0 31 -16 51q-23 29 -65 29q-20 0 -40 -7q-41 -16 -65 -54q-19 -30 -19 -61 q0 -28 17 -49q23 -29 64 -29z" />
<glyph unicode="&#x2dc;" horiz-adv-x="949" d="M196 1220h-100q58 258 231 258q44 0 83.5 -18t75 -39.5t66.5 -39.5t58 -18q44 0 69.5 27t51.5 90h100q-66 -258 -233 -258q-40 0 -77.5 17.5t-73 39t-69 39t-65.5 17.5q-44 0 -69.5 -28.5t-47.5 -86.5z" />
<glyph unicode="&#x1d52;" horiz-adv-x="638" d="M277 778q-123 0 -171 75q-28 42 -28 110q0 43 12 98q30 142 107.5 214t192.5 72q201 0 201 -186q0 -45 -12 -100q-29 -138 -105.5 -210.5t-196.5 -72.5zM293 872q124 0 165 189q10 51 10 94q0 98 -84 98q-65 0 -107.5 -43.5t-64.5 -148.5q-11 -50 -11 -87q0 -102 92 -102 z" />
<glyph unicode="&#x2000;" horiz-adv-x="948" />
<glyph unicode="&#x2001;" horiz-adv-x="1896" />
<glyph unicode="&#x2002;" horiz-adv-x="948" />
<glyph unicode="&#x2003;" horiz-adv-x="1896" />
<glyph unicode="&#x2004;" horiz-adv-x="632" />
<glyph unicode="&#x2005;" horiz-adv-x="474" />
<glyph unicode="&#x2006;" horiz-adv-x="316" />
<glyph unicode="&#x2007;" horiz-adv-x="316" />
<glyph unicode="&#x2008;" horiz-adv-x="237" />
<glyph unicode="&#x2009;" horiz-adv-x="379" />
<glyph unicode="&#x200a;" horiz-adv-x="105" />
<glyph unicode="&#x2010;" horiz-adv-x="644" d="M555 440h-610l37 172h610z" />
<glyph unicode="&#x2011;" horiz-adv-x="644" d="M555 440h-610l37 172h610z" />
<glyph unicode="&#x2012;" horiz-adv-x="644" d="M555 440h-610l37 172h610z" />
<glyph unicode="&#x2013;" horiz-adv-x="1024" d="M1003 450h-1024l21 100h1024z" />
<glyph unicode="&#x2014;" horiz-adv-x="2048" d="M2027 450h-2048l21 100h2048z" />
<glyph unicode="&#x2018;" horiz-adv-x="411" d="M168 1013q-118 0 -118 139q0 107 77.5 221t186.5 198l47 -48q-139 -119 -174 -251q63 0 95 -16q46 -23 46 -79q0 -66 -47.5 -115t-112.5 -49z" />
<glyph unicode="&#x2019;" horiz-adv-x="440" d="M99 981l-62 67q137 92 180 211q-15 -3 -30 -3q-64 0 -99 45q-25 31 -25 75q0 82 71 141q54 44 118 44q65 0 98 -47q19 -28 19 -80q0 -37 -11 -88q-48 -226 -259 -365z" />
<glyph unicode="&#x201a;" horiz-adv-x="440" d="M99 -309l-62 67q137 92 180 211q-15 -3 -30 -3q-64 0 -99 45q-25 31 -25 75q0 82 71 141q54 44 118 44q65 0 98 -47q19 -28 19 -80q0 -37 -11 -88q-48 -226 -259 -365z" />
<glyph unicode="&#x201c;" horiz-adv-x="761" d="M518 1013q-118 0 -118 139q0 107 77.5 221t186.5 198l47 -48q-139 -119 -174 -251q63 0 95 -16q46 -23 46 -79q0 -66 -47.5 -115t-112.5 -49zM168 1013q-118 0 -118 139q0 107 77.5 221t186.5 198l47 -48q-139 -119 -174 -251q63 0 95 -16q46 -23 46 -79 q0 -66 -47.5 -115t-112.5 -49z" />
<glyph unicode="&#x201d;" horiz-adv-x="800" d="M459 981l-62 67q137 92 180 211q-15 -3 -30 -3q-64 0 -99 45q-25 31 -25 75q0 82 71 141q54 44 118 44q65 0 98 -47q19 -28 19 -80q0 -37 -11 -88q-48 -226 -259 -365zM99 981l-62 67q137 92 180 211q-15 -3 -30 -3q-64 0 -99 45q-25 31 -25 75q0 82 71 141q54 44 118 44 q65 0 98 -47q19 -28 19 -80q0 -37 -11 -88q-48 -226 -259 -365z" />
<glyph unicode="&#x201e;" horiz-adv-x="810" d="M469 -309l-62 67q137 92 180 211q-15 -3 -30 -3q-64 0 -99 45q-25 31 -25 75q0 82 71 141q54 44 118 44q65 0 98 -47q19 -28 19 -80q0 -37 -11 -88q-48 -226 -259 -365zM99 -309l-62 67q137 92 180 211q-15 -3 -30 -3q-64 0 -99 45q-25 31 -25 75q0 82 71 141 q54 44 118 44q65 0 98 -47q19 -28 19 -80q0 -37 -11 -88q-48 -226 -259 -365z" />
<glyph unicode="&#x2022;" horiz-adv-x="831" d="M340 149q-71 0 -131 27t-99 78q-60 75 -60 178q0 36 9 74q31 147 157.5 252t274.5 105q71 0 131 -27t100 -77q59 -76 59 -181q0 -35 -8 -72q-33 -149 -159 -253t-274 -104z" />
<glyph unicode="&#x2026;" horiz-adv-x="1750" d="M143 -33q-64 0 -99 45q-25 31 -25 75q0 82 71 141q54 44 118 44q63 0 98 -44q25 -33 25 -76q0 -82 -71 -140q-54 -45 -117 -45zM826 -33q-64 0 -99 45q-25 31 -25 75q0 82 71 141q54 44 118 44q63 0 98 -44q25 -33 25 -76q0 -82 -71 -140q-54 -45 -117 -45zM1509 -33 q-64 0 -99 45q-25 31 -25 75q0 82 71 141q54 44 118 44q63 0 98 -44q25 -33 25 -76q0 -82 -71 -140q-54 -45 -117 -45z" />
<glyph unicode="&#x202f;" horiz-adv-x="379" />
<glyph unicode="&#x2039;" horiz-adv-x="721" d="M545 53h-191l-284 471l485 471h199l-492 -481z" />
<glyph unicode="&#x203a;" horiz-adv-x="721" d="M166 53h-199l492 482l-283 460h191l284 -471z" />
<glyph unicode="&#x2044;" horiz-adv-x="1320" d="M120 -100h-153l1162 1600h151z" />
<glyph unicode="&#x205f;" horiz-adv-x="474" />
<glyph unicode="&#x20ac;" horiz-adv-x="1310" d="M612 -29q-466 0 -466 450q0 41 4 85h-108l64 119h59l29 139h-98l63 119h71q91 264 257.5 397t420.5 133q114 0 198.5 -29.5t136 -80.5t87.5 -150l-172 -96q-29 78 -64 116t-88.5 59t-131.5 21q-311 0 -449 -370h592l-63 -119h-565l-29 -139h530l-62 -119h-483 q-2 -27 -2 -53q0 -148 65.5 -235t231.5 -87q113 0 202.5 49.5t182.5 173.5l128 -92q-121 -160 -247.5 -225.5t-293.5 -65.5z" />
<glyph unicode="&#x2122;" horiz-adv-x="1396" d="M1329 670h-128l107 503l-224 -314h-87l-88 314l-107 -503h-128l152 714h160l95 -346l244 346h156zM378 670h-132l129 609h-229l22 105h591l-22 -105h-230z" />
<glyph unicode="&#x2212;" horiz-adv-x="915" d="M853 627h-831l32 148h831z" />
<glyph unicode="&#x25fc;" horiz-adv-x="1050" d="M0 1050h1050v-1050h-1050v1050z" />
<glyph horiz-adv-x="646" d="M206 81q63 0 141.5 116.5t91.5 180.5l12 62q-23 6 -76 6q-91 0 -148.5 -91t-57.5 -185q0 -89 37 -89zM178 -20q-132 0 -132 159q0 167 106 285.5t243 118.5q99 0 192 -27l-50 -244q-23 -115 -23 -217q0 -33 1 -62h-116v135q-86 -148 -221 -148z" />
<glyph horiz-adv-x="624" d="M415 -7h-117l33 154h-311l20 96l406 456h119l-97 -458h95l-20 -94h-95zM351 241l59 277l-246 -277h187z" />
<glyph horiz-adv-x="438" d="M-290 -100h-153l1162 1600h151z" />
<glyph horiz-adv-x="638" d="M257 -22q-123 0 -171 75q-28 42 -28 110q0 43 12 98q30 142 107.5 214t192.5 72q201 0 201 -186q0 -45 -12 -100q-29 -138 -105.5 -210.5t-196.5 -72.5zM273 72q124 0 165 189q10 51 10 94q0 98 -84 98q-65 0 -107.5 -43.5t-64.5 -148.5q-11 -50 -11 -87q0 -102 92 -102z " />
<glyph horiz-adv-x="625" d="M340 -7h-120l110 518q-46 -31 -174 -35l20 91q152 7 222 132h92z" />
<glyph horiz-adv-x="623" d="M213 -22q-105 0 -158 58q-41 46 -41 117q0 14 2 35l124 10l-1 -24q0 -103 91 -103q60 0 104 36t61 114q4 21 4 39q0 45 -30.5 74.5t-99.5 29.5h-62l16 76l190 165h-305l20 94h462l-19 -88l-187 -162q66 -9 113 -69q31 -40 31 -97q0 -25 -7 -55q-24 -118 -107 -184 t-201 -66z" />
<glyph horiz-adv-x="624" d="M490 -7h-492l22 106q148 106 214 158q136 108 181 171q40 55 40 111q0 32 -20.5 55.5t-68.5 23.5t-83.5 -22t-76.5 -70l-84 62q99 126 265 126q108 0 161 -55q36 -37 36 -94q0 -23 -6 -49q-9 -46 -31 -87t-58 -78t-93 -84.5t-234 -175.5h349z" />
</font>
</defs>
</svg>
